<svg id="Ebene_1" data-name="Ebene 1" xmlns="http://www.w3.org/2000/svg" viewBox="0 0 209.94 93.36"><defs><style>.cls-1{fill:#00a9e0;}.cls-2{fill:#9e007e;}</style></defs><title>AMPRION_LOGO_RGB_P</title><path d="M192.23,94a3,3,0,0,0,2.23.88,3.26,3.26,0,0,0,2.28-.84,2.89,2.89,0,0,0,0-4.23,3.26,3.26,0,0,0-2.28-.84,3,3,0,0,0-2.23.88,2.86,2.86,0,0,0,0,4.15Z" transform="translate(-34.17 -34.17)"/><path d="M109.78,100.61c-1.45-1.5-3.79-2.29-6.76-2.29A17.44,17.44,0,0,0,95.39,100l-.12,0,1.31,3.88.14-.05a13.82,13.82,0,0,1,5.69-1.25c3.17,0,4.85,1.47,4.85,4.24v.3a16.88,16.88,0,0,0-5.26-.79c-5.29,0-8.44,2.47-8.44,6.61V113c0,4.36,3.76,6.34,7.26,6.34a8.28,8.28,0,0,0,6.4-2.69V119H112v-12C112,104.16,111.25,102,109.78,100.61Zm-2.45,11c0,2.41-2.19,4.16-5.22,4.16-2.26,0-3.78-1.17-3.78-2.9v-.08c0-2,1.71-3.2,4.58-3.2a12.63,12.63,0,0,1,4.42.75Z" transform="translate(-34.17 -34.17)"/><path d="M140.13,98.17a8.14,8.14,0,0,0-6.75,3.42,6.5,6.5,0,0,0-6-3.42,7.18,7.18,0,0,0-6,3.18V98.59h-4.89V119h4.89V107.48c0-2.94,1.63-4.84,4.16-4.84s3.93,1.72,3.93,4.73V119h4.88V107.48c0-3,1.6-4.84,4.16-4.84s3.93,1.69,3.93,4.77V119h4.89V106C147.31,101.1,144.63,98.17,140.13,98.17Z" transform="translate(-34.17 -34.17)"/><path d="M163.38,98.17a8,8,0,0,0-6.71,3.48V98.59h-4.88v28.94h4.88V116.11a8.22,8.22,0,0,0,6.71,3.27c4.7,0,9.47-3.63,9.47-10.57v-.07C172.85,101.8,168.08,98.17,163.38,98.17Zm4.5,10.64c0,3.65-2.35,6.29-5.6,6.29s-5.72-2.7-5.72-6.29v-.07c0-3.59,2.46-6.29,5.72-6.29s5.6,2.7,5.6,6.29Z" transform="translate(-34.17 -34.17)"/><path d="M187.94,98.2a7.09,7.09,0,0,0-6.6,4.4v-4h-4.89V119h4.89v-7.79c0-5,2.44-7.81,6.71-7.81h.4V98.21h-.51Z" transform="translate(-34.17 -34.17)"/><rect x="157.89" y="64.42" width="4.89" height="20.37"/><path d="M236.81,98.17a7.22,7.22,0,0,0-6.14,3.2V98.59h-4.89V119h4.89V107.48c0-2.94,1.72-4.84,4.39-4.84s4.15,1.74,4.15,4.77V119h4.89V106C244.1,101.17,241.31,98.17,236.81,98.17Z" transform="translate(-34.17 -34.17)"/><path class="cls-1" d="M117.58,89S99.8,39.83,99.68,39.52v0l0-.06c-.8-2.07-1.77-3.91-4.18-3.94-2,.12-3.16,1.89-4.13,4.43L83.41,60.21C88.32,73.77,93.82,89,93.82,89Z" transform="translate(-34.17 -34.17)"/><path class="cls-2" d="M92.74,34.17H70.46c-4,0-5.09,1.15-6.53,4.84L34.17,111.94H60.35L89,38.63c.89-2.37,2-4.07,3.72-4.4a0,0,0,1,0,0-.06Z" transform="translate(-34.17 -34.17)"/><path d="M211.38,98.17a10.65,10.65,0,0,0-10.87,10.64v.08a10.86,10.86,0,0,0,21.71-.08v-.07A10.59,10.59,0,0,0,211.38,98.17Zm6,10.72a5.88,5.88,0,0,1-6,6.21,6.08,6.08,0,0,1-6-6.29v-.07c0-3.62,2.48-6.25,5.91-6.25a6,6,0,0,1,6,6.32Z" transform="translate(-34.17 -34.17)"/></svg>