<?xml version="1.0" encoding="UTF-8" standalone="no"?><!DOCTYPE svg PUBLIC "-//W3C//DTD SVG 1.1//EN" "http://www.w3.org/Graphics/SVG/1.1/DTD/svg11.dtd"><svg width="100%" height="100%" viewBox="0 0 99 42" version="1.1" xmlns="http://www.w3.org/2000/svg" xmlns:xlink="http://www.w3.org/1999/xlink" xml:space="preserve" xmlns:serif="http://www.serif.com/" style="fill-rule:evenodd;clip-rule:evenodd;stroke-linejoin:round;stroke-miterlimit:1.41421;"><g id="logo"><path d="M26.487,29.029l0,8.118l-0.819,0l-0.101,-0.814c-0.194,0.294 -0.437,0.525 -0.729,0.693c-0.292,0.169 -0.621,0.253 -0.987,0.253c-0.704,0 -1.25,-0.269 -1.639,-0.808c-0.388,-0.539 -0.583,-1.271 -0.583,-2.195c0,-0.594 0.094,-1.12 0.281,-1.578c0.187,-0.458 0.454,-0.818 0.802,-1.078c0.348,-0.26 0.757,-0.391 1.228,-0.391c0.621,0 1.156,0.242 1.605,0.726l0,-3.036l0.942,0.11Zm-2.446,7.513c0.329,0 0.61,-0.075 0.842,-0.225c0.232,-0.15 0.452,-0.38 0.662,-0.688l0,-2.871c-0.195,-0.256 -0.404,-0.452 -0.628,-0.588c-0.225,-0.136 -0.483,-0.204 -0.775,-0.204c-0.471,0 -0.839,0.195 -1.105,0.583c-0.265,0.389 -0.398,0.961 -0.398,1.716c0,0.756 0.121,1.324 0.364,1.705c0.244,0.382 0.59,0.572 1.038,0.572Z" style="fill:#dd841e;fill-rule:nonzero;"/><path d="M32.479,35.816c0,0.257 0.039,0.442 0.118,0.556c0.078,0.114 0.203,0.2 0.375,0.258l-0.224,0.649c-0.299,-0.036 -0.538,-0.124 -0.718,-0.264c-0.18,-0.139 -0.307,-0.348 -0.381,-0.627c-0.389,0.594 -0.98,0.891 -1.773,0.891c-0.576,0 -1.031,-0.159 -1.363,-0.478c-0.333,-0.319 -0.5,-0.743 -0.5,-1.271c0,-0.608 0.223,-1.076 0.668,-1.402c0.445,-0.326 1.075,-0.49 1.89,-0.49l0.965,0l0,-0.462c0,-0.418 -0.103,-0.72 -0.308,-0.907c-0.206,-0.187 -0.526,-0.281 -0.96,-0.281c-0.448,0 -0.979,0.107 -1.593,0.319l-0.235,-0.682c0.71,-0.264 1.376,-0.396 1.997,-0.396c0.688,0 1.2,0.164 1.537,0.49c0.336,0.326 0.505,0.797 0.505,1.413l0,2.684Zm-2.39,0.759c0.613,0 1.096,-0.311 1.447,-0.935l0,-1.386l-0.841,0c-1.122,0 -1.683,0.411 -1.683,1.232c0,0.352 0.091,0.622 0.275,0.809c0.183,0.187 0.45,0.28 0.802,0.28Z" style="fill:#dd841e;fill-rule:nonzero;"/><path d="M37.449,36.894c-0.389,0.257 -0.823,0.385 -1.301,0.385c-0.494,0 -0.877,-0.139 -1.15,-0.418c-0.273,-0.278 -0.41,-0.678 -0.41,-1.199l0,-3.586l-1.021,0l0,-0.715l1.021,0l0,-1.331l0.943,-0.099l0,1.43l1.425,0l-0.101,0.715l-1.324,0l0,3.542c0,0.308 0.058,0.534 0.174,0.677c0.115,0.143 0.304,0.214 0.566,0.214c0.269,0 0.542,-0.084 0.819,-0.253l0.359,0.638Z" style="fill:#dd841e;fill-rule:nonzero;"/><path d="M42.33,35.816c0,0.257 0.039,0.442 0.118,0.556c0.078,0.114 0.204,0.2 0.376,0.258l-0.225,0.649c-0.299,-0.036 -0.538,-0.124 -0.718,-0.264c-0.179,-0.139 -0.307,-0.348 -0.381,-0.627c-0.389,0.594 -0.98,0.891 -1.773,0.891c-0.576,0 -1.03,-0.159 -1.363,-0.478c-0.333,-0.319 -0.5,-0.743 -0.5,-1.271c0,-0.608 0.223,-1.076 0.668,-1.402c0.445,-0.326 1.075,-0.49 1.891,-0.49l0.964,0l0,-0.462c0,-0.418 -0.102,-0.72 -0.308,-0.907c-0.206,-0.187 -0.526,-0.281 -0.959,-0.281c-0.449,0 -0.98,0.107 -1.594,0.319l-0.235,-0.682c0.71,-0.264 1.376,-0.396 1.997,-0.396c0.688,0 1.2,0.164 1.537,0.49c0.337,0.326 0.505,0.797 0.505,1.413l0,2.684Zm-2.39,0.759c0.613,0 1.096,-0.311 1.447,-0.935l0,-1.386l-0.841,0c-1.122,0 -1.683,0.411 -1.683,1.232c0,0.352 0.092,0.622 0.275,0.809c0.183,0.187 0.451,0.28 0.802,0.28Z" style="fill:#dd841e;fill-rule:nonzero;"/><path d="M53.168,31.229c0.487,0 0.872,0.16 1.156,0.479c0.284,0.319 0.426,0.75 0.426,1.292l0,4.147l-0.942,0l0,-4.015c0,-0.784 -0.288,-1.177 -0.864,-1.177c-0.307,0 -0.568,0.088 -0.785,0.264c-0.217,0.176 -0.442,0.444 -0.674,0.803l0,4.125l-0.942,0l0,-4.015c0,-0.784 -0.288,-1.177 -0.864,-1.177c-0.299,0 -0.559,0.088 -0.78,0.264c-0.22,0.176 -0.443,0.444 -0.667,0.803l0,4.125l-0.943,0l0,-5.786l0.808,0l0.079,0.88c0.448,-0.674 1.024,-1.012 1.727,-1.012c0.367,0 0.679,0.094 0.937,0.281c0.258,0.187 0.44,0.449 0.544,0.786c0.232,-0.344 0.492,-0.608 0.78,-0.792c0.288,-0.183 0.623,-0.275 1.004,-0.275Z" style="fill:#dd841e;fill-rule:nonzero;"/><path d="M60.686,35.816c0,0.257 0.039,0.442 0.118,0.556c0.078,0.114 0.204,0.2 0.376,0.258l-0.225,0.649c-0.299,-0.036 -0.538,-0.124 -0.718,-0.264c-0.179,-0.139 -0.307,-0.348 -0.381,-0.627c-0.389,0.594 -0.98,0.891 -1.773,0.891c-0.576,0 -1.031,-0.159 -1.363,-0.478c-0.333,-0.319 -0.5,-0.743 -0.5,-1.271c0,-0.608 0.223,-1.076 0.668,-1.402c0.445,-0.326 1.075,-0.49 1.89,-0.49l0.965,0l0,-0.462c0,-0.418 -0.102,-0.72 -0.308,-0.907c-0.206,-0.187 -0.526,-0.281 -0.959,-0.281c-0.449,0 -0.98,0.107 -1.594,0.319l-0.235,-0.682c0.71,-0.264 1.376,-0.396 1.997,-0.396c0.688,0 1.2,0.164 1.537,0.49c0.337,0.326 0.505,0.797 0.505,1.413l0,2.684Zm-2.39,0.759c0.613,0 1.096,-0.311 1.447,-0.935l0,-1.386l-0.841,0c-1.122,0 -1.683,0.411 -1.683,1.232c0,0.352 0.092,0.622 0.275,0.809c0.183,0.187 0.45,0.28 0.802,0.28Z" style="fill:#dd841e;fill-rule:nonzero;"/><path d="M65.656,36.894c-0.389,0.257 -0.822,0.385 -1.301,0.385c-0.494,0 -0.877,-0.139 -1.15,-0.418c-0.273,-0.278 -0.41,-0.678 -0.41,-1.199l0,-3.586l-1.021,0l0,-0.715l1.021,0l0,-1.331l0.943,-0.099l0,1.43l1.425,0l-0.101,0.715l-1.324,0l0,3.542c0,0.308 0.058,0.534 0.174,0.677c0.116,0.143 0.304,0.214 0.566,0.214c0.27,0 0.543,-0.084 0.819,-0.253l0.359,0.638Z" style="fill:#dd841e;fill-rule:nonzero;"/><path d="M69.538,36.894c-0.389,0.257 -0.822,0.385 -1.301,0.385c-0.494,0 -0.877,-0.139 -1.15,-0.418c-0.273,-0.278 -0.41,-0.678 -0.41,-1.199l0,-3.586l-1.021,0l0,-0.715l1.021,0l0,-1.331l0.943,-0.099l0,1.43l1.425,0l-0.101,0.715l-1.324,0l0,3.542c0,0.308 0.058,0.534 0.174,0.677c0.116,0.143 0.305,0.214 0.566,0.214c0.27,0 0.543,-0.084 0.819,-0.253l0.359,0.638Z" style="fill:#dd841e;fill-rule:nonzero;"/><path d="M74.792,34.067c0,0.176 -0.008,0.345 -0.023,0.506l-3.803,0c0.044,0.668 0.213,1.159 0.504,1.474c0.292,0.316 0.674,0.473 1.145,0.473c0.292,0 0.557,-0.04 0.797,-0.121c0.239,-0.08 0.489,-0.212 0.751,-0.396l0.415,0.55c-0.613,0.484 -1.29,0.726 -2.03,0.726c-0.808,0 -1.44,-0.264 -1.897,-0.792c-0.456,-0.528 -0.684,-1.254 -0.684,-2.178c0,-0.601 0.097,-1.134 0.292,-1.6c0.194,-0.466 0.475,-0.829 0.841,-1.089c0.367,-0.26 0.797,-0.391 1.291,-0.391c0.777,0 1.372,0.252 1.784,0.754c0.411,0.502 0.617,1.197 0.617,2.084Zm-0.932,-0.264c0,-0.594 -0.121,-1.048 -0.364,-1.364c-0.243,-0.315 -0.604,-0.473 -1.083,-0.473c-0.426,0 -0.765,0.158 -1.015,0.473c-0.251,0.316 -0.395,0.8 -0.432,1.452l2.894,0l0,-0.088Z" style="fill:#dd841e;fill-rule:nonzero;"/><path d="M78.921,31.229c0.224,0 0.418,0.022 0.583,0.066l-0.168,0.902c-0.18,-0.044 -0.352,-0.066 -0.516,-0.066c-0.374,0 -0.677,0.134 -0.909,0.402c-0.232,0.268 -0.412,0.687 -0.539,1.259l0,3.355l-0.942,0l0,-5.786l0.808,0l0.089,1.21c0.157,-0.44 0.371,-0.773 0.64,-1.001c0.269,-0.227 0.587,-0.341 0.954,-0.341Z" style="fill:#dd841e;fill-rule:nonzero;"/><path d="M82.064,31.229c0.389,0 0.743,0.055 1.061,0.165c0.318,0.11 0.622,0.275 0.914,0.495l-0.404,0.583c-0.269,-0.176 -0.523,-0.304 -0.763,-0.385c-0.239,-0.08 -0.497,-0.121 -0.774,-0.121c-0.352,0 -0.63,0.074 -0.836,0.22c-0.206,0.147 -0.308,0.345 -0.308,0.594c0,0.242 0.095,0.431 0.286,0.567c0.19,0.136 0.533,0.269 1.026,0.401c0.659,0.169 1.147,0.389 1.465,0.66c0.317,0.272 0.476,0.649 0.476,1.133c0,0.558 -0.22,0.987 -0.662,1.287c-0.441,0.301 -0.979,0.451 -1.615,0.451c-0.883,0 -1.62,-0.253 -2.211,-0.759l0.505,-0.561c0.524,0.382 1.085,0.572 1.683,0.572c0.397,0 0.715,-0.084 0.954,-0.253c0.239,-0.168 0.359,-0.396 0.359,-0.682c0,-0.205 -0.041,-0.372 -0.123,-0.5c-0.083,-0.128 -0.227,-0.24 -0.432,-0.336c-0.206,-0.095 -0.511,-0.194 -0.915,-0.297c-0.628,-0.161 -1.081,-0.375 -1.357,-0.643c-0.277,-0.268 -0.416,-0.607 -0.416,-1.018c0,-0.3 0.09,-0.57 0.27,-0.808c0.179,-0.238 0.428,-0.425 0.746,-0.561c0.318,-0.136 0.675,-0.204 1.071,-0.204Z" style="fill:#dd841e;fill-rule:nonzero;"/><path d="M85.812,35.86c0.209,0 0.383,0.068 0.522,0.204c0.138,0.136 0.207,0.302 0.207,0.5c0,0.198 -0.069,0.367 -0.207,0.506c-0.139,0.14 -0.313,0.209 -0.522,0.209c-0.202,0 -0.372,-0.069 -0.511,-0.209c-0.138,-0.139 -0.207,-0.308 -0.207,-0.506c0,-0.19 0.069,-0.355 0.207,-0.495c0.139,-0.139 0.309,-0.209 0.511,-0.209Z" style="fill:#dd841e;fill-rule:nonzero;"/><path d="M20.358,10.78c1.722,0 2.997,0.623 3.824,1.867c0.827,1.245 1.24,2.993 1.24,5.244c0,1.398 -0.209,2.639 -0.627,3.722c-0.417,1.082 -1.031,1.931 -1.841,2.545c-0.81,0.614 -1.769,0.92 -2.878,0.92c-1.432,0 -2.566,-0.494 -3.402,-1.483l0,6.318l-3.274,0.358l0,-19.107l2.865,0l0.179,1.663c0.512,-0.683 1.113,-1.194 1.803,-1.535c0.691,-0.341 1.394,-0.512 2.111,-0.512Zm-1.203,11.792c1.893,0 2.84,-1.552 2.84,-4.655c0,-1.672 -0.218,-2.869 -0.653,-3.594c-0.434,-0.725 -1.087,-1.087 -1.956,-1.087c-0.529,0 -1.028,0.166 -1.497,0.499c-0.469,0.332 -0.874,0.78 -1.215,1.342l0,6.088c0.631,0.938 1.458,1.407 2.481,1.407Z" style="fill:#19668c;fill-rule:nonzero;"/><path d="M34.17,10.78c1.995,0 3.551,0.635 4.668,1.906c1.117,1.27 1.675,3.014 1.675,5.231c0,1.415 -0.256,2.664 -0.767,3.747c-0.512,1.083 -1.245,1.922 -2.2,2.519c-0.955,0.597 -2.089,0.895 -3.402,0.895c-1.995,0 -3.555,-0.635 -4.681,-1.905c-1.125,-1.27 -1.688,-3.023 -1.688,-5.256c0,-1.416 0.256,-2.661 0.768,-3.735c0.511,-1.074 1.249,-1.91 2.212,-2.506c0.964,-0.597 2.102,-0.896 3.415,-0.896Zm0,2.481c-1.961,0 -2.942,1.552 -2.942,4.656c0,1.602 0.243,2.783 0.729,3.542c0.486,0.759 1.215,1.138 2.187,1.138c0.972,0 1.701,-0.383 2.187,-1.151c0.486,-0.767 0.729,-1.944 0.729,-3.529c0,-1.586 -0.243,-2.759 -0.729,-3.517c-0.486,-0.759 -1.206,-1.139 -2.161,-1.139Z" style="fill:#19668c;fill-rule:nonzero;"/><path d="M46.857,24.695l-3.274,0l0,-13.531l3.274,0l0,13.531Zm-1.663,-20.386c0.614,0 1.113,0.192 1.496,0.575c0.384,0.384 0.576,0.857 0.576,1.42c0,0.563 -0.192,1.032 -0.576,1.407c-0.383,0.375 -0.882,0.563 -1.496,0.563c-0.597,0 -1.087,-0.188 -1.471,-0.563c-0.383,-0.375 -0.575,-0.844 -0.575,-1.407c0,-0.563 0.192,-1.036 0.575,-1.42c0.384,-0.383 0.874,-0.575 1.471,-0.575Z" style="fill:#19668c;fill-rule:nonzero;"/><path d="M58.009,10.78c1.21,0 2.153,0.363 2.826,1.087c0.674,0.725 1.01,1.735 1.01,3.031l0,9.797l-3.274,0l0,-9.285c0,-0.802 -0.14,-1.364 -0.422,-1.688c-0.281,-0.324 -0.694,-0.486 -1.24,-0.486c-0.563,0 -1.07,0.175 -1.522,0.524c-0.452,0.35 -0.891,0.857 -1.317,1.522l0,9.413l-3.274,0l0,-13.531l2.839,0l0.256,1.79c1.125,-1.449 2.498,-2.174 4.118,-2.174Z" style="fill:#19668c;fill-rule:nonzero;"/><path d="M73.407,24.055c-0.478,0.341 -1.011,0.597 -1.599,0.768c-0.588,0.17 -1.189,0.255 -1.803,0.255c-1.33,-0.017 -2.34,-0.396 -3.031,-1.138c-0.691,-0.742 -1.036,-1.837 -1.036,-3.287l0,-7.136l-2.123,0l0,-2.353l2.123,0l0,-2.993l3.274,-0.383l0,3.376l3.146,0l-0.332,2.353l-2.814,0l0,7.06c0,0.665 0.115,1.142 0.345,1.432c0.231,0.29 0.593,0.435 1.087,0.435c0.512,0 1.049,-0.171 1.612,-0.512l1.151,2.123Z" style="fill:#19668c;fill-rule:nonzero;"/><path d="M83.331,15.461c2.353,1.057 3.53,2.592 3.53,4.604c0,0.938 -0.264,1.786 -0.793,2.545c-0.529,0.759 -1.275,1.36 -2.238,1.803c-0.963,0.444 -2.085,0.665 -3.364,0.665c-1.261,0 -2.361,-0.217 -3.299,-0.652c-0.938,-0.435 -1.663,-1.027 -2.174,-1.777c-0.512,-0.751 -0.768,-1.595 -0.768,-2.533c0,-1.978 1.092,-3.427 3.274,-4.348c-1.722,-0.955 -2.583,-2.311 -2.583,-4.067c0,-0.904 0.251,-1.701 0.754,-2.391c0.504,-0.691 1.186,-1.22 2.047,-1.586c0.861,-0.367 1.803,-0.55 2.826,-0.55c1.04,0 1.987,0.17 2.839,0.511c0.853,0.341 1.531,0.844 2.034,1.509c0.503,0.665 0.754,1.458 0.754,2.379c0,1.62 -0.946,2.916 -2.839,3.888Zm-2.788,-5.985c-0.767,0 -1.368,0.196 -1.803,0.588c-0.435,0.392 -0.652,0.955 -0.652,1.688c0,0.682 0.204,1.224 0.614,1.624c0.409,0.401 1.065,0.764 1.969,1.088l0.512,0.179c0.665,-0.41 1.134,-0.845 1.406,-1.305c0.273,-0.46 0.41,-0.997 0.41,-1.611c0,-0.699 -0.213,-1.249 -0.64,-1.65c-0.426,-0.401 -1.031,-0.601 -1.816,-0.601Zm0,13.173c0.938,0 1.671,-0.239 2.2,-0.717c0.528,-0.477 0.793,-1.099 0.793,-1.867c0,-0.784 -0.23,-1.402 -0.691,-1.854c-0.46,-0.452 -1.279,-0.891 -2.455,-1.318l-0.768,-0.255c-1.398,0.716 -2.097,1.841 -2.097,3.376c0,0.819 0.273,1.462 0.818,1.931c0.546,0.469 1.279,0.704 2.2,0.704Z" style="fill:#19668c;fill-rule:nonzero;"/></g></svg>