<svg id="Ebene_1" data-name="Ebene 1" xmlns="http://www.w3.org/2000/svg" viewBox="0 0 66.61 28.35"><defs><style>.cls-1{fill:#009fe3;}</style></defs><title>zeb_Logo_blue_10mm_RGB</title><path class="cls-1" d="M40.83,17.53c0-5.68-4-10.43-9.63-10.43-6.06,0-9.93,5-9.93,10.64,0,6.4,4.59,10.61,10.69,10.61a11.1,11.1,0,0,0,8.37-3.66l-3.11-3.12a7.2,7.2,0,0,1-5.14,2.36,5.36,5.36,0,0,1-5.51-4.84H40.71A9.42,9.42,0,0,0,40.83,17.53Zm-14-2.44a4.42,4.42,0,0,1,4.37-3.57,4.07,4.07,0,0,1,4,3.57Z"/><path class="cls-1" d="M56.6,7.1A9,9,0,0,0,50.84,9V0H45.37V27.93h5.26V26.29a8.53,8.53,0,0,0,5.68,2.06A10.27,10.27,0,0,0,64,24.9a11,11,0,0,0,2.6-7.16C66.61,11.73,62.16,7.1,56.6,7.1Zm-.66,16.29a5.4,5.4,0,0,1-5.62-5.61,5.3,5.3,0,0,1,5.62-5.6,5.61,5.61,0,0,1,0,11.21Z"/><polygon class="cls-1" points="0 7.52 2.65 12.14 10.69 12.15 6.28 18.48 9.09 23.3 17.82 10.88 17.82 7.52 0 7.52"/><polygon class="cls-1" points="9.09 23.3 11.74 27.93 18.66 27.93 18.66 23.3 9.09 23.3"/></svg>