<?xml version="1.0" encoding="UTF-8" standalone="no"?>
<svg
   xmlns:dc="http://purl.org/dc/elements/1.1/"
   xmlns:cc="http://creativecommons.org/ns#"
   xmlns:rdf="http://www.w3.org/1999/02/22-rdf-syntax-ns#"
   xmlns:svg="http://www.w3.org/2000/svg"
   xmlns="http://www.w3.org/2000/svg"
   xmlns:sodipodi="http://sodipodi.sourceforge.net/DTD/sodipodi-0.dtd"
   xmlns:inkscape="http://www.inkscape.org/namespaces/inkscape"
   viewBox="0 0 273.68668 76.073334"
   height="76.073334"
   width="273.68668"
   xml:space="preserve"
   id="svg2"
   version="1.1"
   sodipodi:docname="logo_weiss.svg"
   inkscape:version="0.92.3 (2405546, 2018-03-11)"><sodipodi:namedview
     pagecolor="#ffffff"
     bordercolor="#666666"
     borderopacity="1"
     objecttolerance="10"
     gridtolerance="10"
     guidetolerance="10"
     inkscape:pageopacity="0"
     inkscape:pageshadow="2"
     inkscape:window-width="1920"
     inkscape:window-height="1156"
     id="namedview99"
     showgrid="false"
     inkscape:pagecheckerboard="true"
     inkscape:zoom="2.2945947"
     inkscape:cx="172.77612"
     inkscape:cy="35.970621"
     inkscape:window-x="1920"
     inkscape:window-y="25"
     inkscape:window-maximized="1"
     inkscape:current-layer="svg2" /><metadata
     id="metadata8"><rdf:RDF><cc:Work
         rdf:about=""><dc:format>image/svg+xml</dc:format><dc:type
           rdf:resource="http://purl.org/dc/dcmitype/StillImage" /><dc:title></dc:title></cc:Work></rdf:RDF></metadata><defs
     id="defs6"><clipPath
       id="clipPath24"
       clipPathUnits="userSpaceOnUse"><path
         id="path22"
         d="M 28.3468,0 C 28.3468,15.6557 15.6557,28.3468 0,28.3468 -15.6557,28.3468 -28.3468,15.6557 -28.3468,0 c 0,-15.6557 12.6911,-28.3468 28.3468,-28.3468 15.6557,0 28.3468,12.6911 28.3468,28.3468 z" /></clipPath></defs><g
     id="g18"
     transform="matrix(1.3333333,0,0,-1.3333333,37.794666,38.036001)"><g
       clip-path="url(#clipPath24)"
       id="g20"><g
         id="g26"><path
           id="path28"
           style="fill:none;stroke:#ffffff;stroke-width:0.99628001;stroke-linecap:butt;stroke-linejoin:miter;stroke-miterlimit:10;stroke-dasharray:none;stroke-opacity:1"
           d="M 27.84866,0 C 27.84866,15.38058 15.38058,27.84866 0,27.84866 -15.38058,27.84866 -27.84866,15.38058 -27.84866,0 c 0,-15.38058 12.46808,-27.84866 27.84866,-27.84866 15.38058,0 27.84866,12.46808 27.84866,27.84866 z"
           inkscape:connector-curvature="0" /></g><g
         id="g30"><path
           id="path32"
           style="fill:none;stroke:#ffffff;stroke-width:0.99628001;stroke-linecap:butt;stroke-linejoin:miter;stroke-miterlimit:10;stroke-dasharray:none;stroke-opacity:1"
           d="m -32.31575,-2.04292 c 0,0 0.26381,0.21997 0.36515,0.33322 0.10131,0.11325 0.2638,0.3295 0.36512,0.48309 0.10132,0.15361 0.26384,0.43391 0.36516,0.62403 0.10132,0.19012 0.26381,0.52626 0.36512,0.74621 0.10132,0.21999 0.26383,0.59883 0.36515,0.8393 0.10132,0.24044 0.26381,0.64494 0.36513,0.89378 0.10133,0.24882 0.26384,0.65672 0.36515,0.89963 0.10132,0.24287 0.26381,0.6293 0.36515,0.85096 0.10132,0.22165 0.26381,0.5623 0.36512,0.74665 0.10132,0.18434 0.26383,0.45068 0.36515,0.58197 0.10132,0.1313 0.26382,0.30005 0.36514,0.36436 0.10132,0.06433 0.26382,0.11397 0.36514,0.09928 0.10132,-0.01468 0.26381,-0.10286 0.36513,-0.20516 0.10134,-0.1023 0.26383,-0.33884 0.36514,-0.53213 0.10132,-0.19333 0.26383,-0.57853 0.36516,-0.86109 0.10132,-0.28259 0.26381,-0.81059 0.36513,-1.17564 0.10131,-0.36507 0.26382,-1.02078 0.36514,-1.45552 0.10132,-0.43472 0.26381,-1.19177 0.36513,-1.67777 0.10134,-0.48599 0.26384,-1.31109 0.36516,-1.82495 0.10132,-0.51385 0.26381,-1.36442 0.36513,-1.87868 0.10133,-0.51423 0.26382,-1.34307 0.36514,-1.82766 0.10131,-0.48461 0.26381,-1.24135 0.36514,-1.66496 0.10132,-0.42362 0.26383,-1.05553 0.36514,-1.38819 0.10132,-0.33266 0.26383,-0.79558 0.36515,-1.0094 0.10131,-0.21384 0.26381,-0.45982 0.36512,-0.53175 0.10134,-0.07195 0.26383,-0.07259 0.36515,0.01323 0.10131,0.08581 0.26382,0.35283 0.36514,0.60531 0.10133,0.25252 0.26382,0.79636 0.36514,1.21459 0.10132,0.4182 0.26381,1.22683 0.36515,1.79963 0.10131,0.5728 0.2638,1.62183 0.36512,2.32869 0.10132,0.70685 0.26384,1.95525 0.36516,2.76584 0.10132,0.81061 0.26381,2.2007 0.36513,3.07645 0.10133,0.87573 0.26382,2.33939 0.36514,3.23534 0.10133,0.89593 0.26381,2.35583 0.36513,3.22206 0.10133,0.86624 0.26384,2.23562 0.36516,3.02122 0.10132,0.7856 0.26381,1.98506 0.36514,2.64088 0.10132,0.6558 0.26381,1.60563 0.36513,2.08578 0.10133,0.48014 0.26384,1.1078 0.36516,1.37493 0.10131,0.26714 0.26381,0.52382 0.36512,0.55043 0.10134,0.02665 0.26383,-0.12945 0.36515,-0.35852 0.10133,-0.22906 0.26381,-0.807 0.36512,-1.2924 0.10135,-0.4854 0.26384,-1.47792 0.36516,-2.20605 0.10132,-0.72814 0.26381,-2.09919 0.36514,-3.04186 0.10132,-0.94266 0.26382,-2.63727 0.36513,-3.75227 0.10134,-1.11502 0.26383,-3.0512 0.36514,-4.28406 0.10134,-1.23288 0.26383,-3.31369 0.36515,-4.60165 0.10133,-1.28797 0.26382,-3.40697 0.36514,-4.68111 0.10132,-1.27412 0.26381,-3.31293 0.36514,-4.50205 0.10134,-1.18911 0.26382,-3.03302 0.36513,-4.06836 0.10133,-1.03537 0.26383,-2.57495 0.36516,-3.39376 0.10132,-0.81884 0.26381,-1.95739 0.36513,-2.50775 0.10131,-0.55037 0.26382,-1.21567 0.36515,-1.45905 0.10132,-0.24336 0.2638,-0.38109 0.36512,-0.29506 0.10135,0.08603 0.26383,0.49562 0.36515,0.91519 0.10132,0.41957 0.26381,1.37015 0.36515,2.10875 0.10132,0.7386 0.26381,2.19003 0.36514,3.21469 0.10132,1.02466 0.26379,2.9093 0.36513,4.17037 0.10133,1.26106 0.26382,3.48526 0.36514,4.91858 0.10132,1.4333 0.26382,3.88156 0.36514,5.41177 0.10132,1.53021 0.26381,4.07135 0.36515,5.61691 0.10133,1.54555 0.26381,4.0448 0.36514,5.52235 0.10132,1.47756 0.26381,3.79787 0.36514,5.12684 0.10132,1.32895 0.26381,3.34462 0.36513,4.45143 0.10132,1.1068 0.26381,2.70242 0.36516,3.52573 0.10132,0.82328 0.26379,1.9139 0.36513,2.40809 0.10131,0.49421 0.26382,1.01633 0.36514,1.15381 0.10132,0.13751 0.26378,0.06415 0.36509,-0.1627 0.10135,-0.22684 0.26385,-0.89374 0.36516,-1.47226 0.10132,-0.57851 0.26381,-1.79927 0.36514,-2.69734 0.10132,-0.89805 0.26382,-2.60746 0.36515,-3.77524 0.10132,-1.1678 0.26381,-3.26863 0.36513,-4.64141 0.10133,-1.37277 0.26382,-3.75035 0.36514,-5.25259 0.10132,-1.50223 0.26382,-4.02495 0.36514,-5.57451 0.10132,-1.54953 0.26381,-4.07995 0.36514,-5.59355 0.10134,-1.51357 0.26381,-3.91777 0.36513,-5.31523 0.10134,-1.39745 0.26383,-3.54822 0.36516,-4.75662 0.10132,-1.20841 0.26381,-2.99455 0.36514,-3.95279 0.10132,-0.95821 0.26381,-2.29123 0.36515,-2.95345 0.10132,-0.66225 0.26381,-1.48169 0.36512,-1.81953 0.10132,-0.33783 0.26383,-0.61171 0.36515,-0.61544 0.10132,-0.0037 0.26381,0.26706 0.36514,0.5886 0.10133,0.32153 0.26381,1.10809 0.36514,1.72879 0.10132,0.62069 0.26381,1.86702 0.36515,2.74482 0.10132,0.87781 0.2638,2.50252 0.36512,3.58179 0.10132,1.07927 0.26384,2.98039 0.36516,4.19684 0.10132,1.21644 0.26379,3.28641 0.36513,4.57056 0.10131,1.28411 0.26382,3.40394 0.36514,4.68461 0.10132,1.28065 0.26381,3.33609 0.36513,4.54558 0.10134,1.2095 0.26382,3.09445 0.36514,4.17155 0.10132,1.07712 0.2638,2.69822 0.36514,3.59151 0.10132,0.89331 0.26381,2.17638 0.36513,2.84683 0.10132,0.67043 0.26383,1.56248 0.36514,1.98532 0.10132,0.42287 0.26383,0.89699 0.36515,1.06236 0.10132,0.1654 0.26381,0.21745 0.36514,0.12962 C 2.10872,17.1799 2.27121,16.82788 2.37253,16.50511 2.47386,16.18236 2.63635,15.4688 2.73767,14.94139 2.83899,14.41397 3.0015,13.39578 3.10283,12.70378 3.20415,12.0118 3.36664,10.76413 3.46796,9.9539 3.56927,9.14368 3.73178,7.74257 3.8331,6.86418 3.93442,5.9858 4.09691,4.51837 4.19823,3.62302 4.29955,2.72766 4.46207,1.27477 4.56339,0.41107 4.6647,-0.4526 4.8272,-1.81358 4.92851,-2.60194 5.02985,-3.39029 5.19234,-4.59453 5.29366,-5.27086 5.39497,-5.94719 5.55746,-6.94025 5.6588,-7.47652 5.76012,-8.0128 5.92262,-8.75818 6.02394,-9.13603 c 0.10132,-0.37786 0.26383,-0.85272 0.36514,-1.06389 0.10132,-0.2112 0.26382,-0.41223 0.36513,-0.45819 0.10132,-0.04596 0.26383,0.01801 0.36514,0.12689 0.10132,0.10889 0.26383,0.41254 0.36515,0.65792 0.10133,0.24536 0.26382,0.75288 0.36514,1.1106 0.10132,0.3577 0.26381,1.02588 0.36514,1.46758 0.10132,0.44171 0.26381,1.22116 0.36513,1.71596 0.10132,0.49481 0.26384,1.33336 0.36516,1.85026 0.10132,0.5169 0.26381,1.36579 0.36513,1.87517 0.10133,0.50938 0.26382,1.32088 0.36514,1.79614 0.10132,0.47521 0.26382,1.21007 0.36514,1.62909 0.10134,0.41902 0.26382,1.04503 0.36514,1.39092 0.10132,0.34587 0.26381,0.84091 0.36515,1.10205 0.10132,0.26113 0.26381,0.60966 0.36513,0.78012 0.10131,0.17046 0.26383,0.36824 0.36515,0.44844 0.10132,0.08022 0.26381,0.13509 0.36513,0.12962 C 11.96751,5.41722 12.13,5.3356 12.23132,5.25372 12.33264,5.17186 12.49513,4.97835 12.59645,4.83252 12.69778,4.68669 12.86029,4.3978 12.96161,4.20265 13.06293,4.00752 13.22542,3.65445 13.32675,3.42604 13.42807,3.19762 13.59056,2.80237 13.69188,2.55638 13.7932,2.31042 13.9557,1.90117 14.05702,1.65326 14.15834,1.40533 14.32085,1.00589 14.42216,0.76959 14.5235,0.5333 14.68599,0.1636 14.78731,-0.04979 c 0.10132,-0.21345 0.26381,-0.53728 0.36513,-0.71902 0.10133,-0.18175 0.26382,-0.44716 0.36514,-0.59092 0.10132,-0.14378 0.26382,-0.34257 0.36516,-0.44534 0.10131,-0.10278 0.26381,-0.2343 0.36512,-0.29547 0.10132,-0.06119 0.26383,-0.12416 0.36514,-0.14558 0.10132,-0.02146 0.26382,-0.02306 0.36513,-0.00896 0.10134,0.01408 0.26384,0.06612 0.36516,0.11055 0.10132,0.04443 0.26381,0.14111 0.36513,0.20981 0.10133,0.06871 0.26382,0.19938 0.36514,0.28535 0.10132,0.08597 0.26381,0.23831 0.36514,0.3344 0.10132,0.09608 0.26383,0.25877 0.36515,0.35815 0.10132,0.09937 0.26382,0.26123 0.36514,0.35812 0.10132,0.0969 0.26381,0.25075 0.36513,0.34025 0.10133,0.08949 0.26382,0.22662 0.36514,0.30475 0.10132,0.07815 0.26383,0.19433 0.36516,0.2585 0.10132,0.06414 0.26381,0.15537 0.36513,0.20397 0.10132,0.04859 0.26381,0.11374 0.36514,0.14637 0.10132,0.0326 0.26381,0.07165 0.36513,0.08876 0.10132,0.01712 0.26384,0.0313 0.36516,0.03465 0.10132,0.00333 0.2638,-0.00177 0.36512,-0.01053 0.10134,-0.00872 0.26383,-0.03386 0.36515,-0.05254 0.10131,-0.01867 0.26381,-0.05612 0.36514,-0.08215 0.10131,-0.02601 0.26382,-0.07475 0.36514,-0.1055 0.10132,-0.03071 0.26381,-0.08336 0.36514,-0.11598 0.10134,-0.03262 0.26381,-0.08652 0.36513,-0.11913 0.10132,-0.03262 0.26384,-0.08505 0.36516,-0.11601 0.10132,-0.03094 0.26381,-0.07945 0.36513,-0.10705 0.10133,-0.02759 0.26382,-0.06859 0.36514,-0.09182 0.10133,-0.02327 0.26381,-0.0574 0.36514,-0.07591 0.10132,-0.01854 0.26383,-0.0444 0.36515,-0.05762 0.10131,-0.01324 0.26381,-0.02946 0.36514,-0.03776 0.10132,-0.00832 0.26381,-0.01831 0.36513,-0.02219 0.10133,-0.00389 0.26382,-0.0061 0.36514,-0.00584 0.10133,2.8e-4 0.26382,0.00418 0.36514,0.0078 0.10133,0.0036 0.26383,0.01218 0.36514,0.01828 0.10132,0.0061 0.26381,0.01786 0.36515,0.02569 0.10133,0.00783 0.26381,0.02191 0.36513,0.03076 0.10133,0.00885 0.26382,0.02396 0.36515,0.03307 0.10132,0.00914 0.26381,0.02393 0.36513,0.0327 0.10132,0.0088 0.26383,0.02272 0.36514,0.03078 0.10134,0.00804 0.26381,0.02034 0.36513,0.02723 0.10135,0.00693 0.26384,0.01688 0.36516,0.02254 0.10132,0.00566 0.26381,0.01393 0.36514,0.0183 0.10132,0.00436 0.26381,0.01028 0.36513,0.01324 0.10133,0.00296 0.26383,0.00649 0.36514,0.00816 0.10134,0.00168 0.26383,0.00338 0.36515,0.00391 0.10131,5.3e-4 0.26382,3.7e-4 0.36514,0 0.10132,-3.8e-4 0.2638,-0.00166 0.36514,-0.00272 0.10133,-0.00108 0.26381,-0.00344 0.36513,-0.00506 0.10133,-0.00164 0.26383,-0.00475 0.36516,-0.00662 0.10132,-0.0019 0.26381,-0.00498 0.36512,-0.00702 0.10132,-0.00203 0.26383,-0.00574 0.36516,-0.00779 0.10132,-0.00203 0.26379,-0.00511 0.36511,-0.007 0.10134,-0.00189 0.26384,-0.0049 0.36516,-0.00661 0.10132,-0.00174 0.26381,-0.00445 0.36513,-0.00586 0.10133,-0.00138 0.26382,-0.00322 0.36516,-0.00422 0.10132,-0.00102 0.26379,-0.00229 0.36513,-0.00312 0.10133,-8e-4 0.26382,-0.00219 0.36514,-0.00274 0.10132,-5.2e-4 0.26382,-8.9e-4 0.36514,-0.00115 0.10132,-2.6e-4 0.26381,-7.4e-4 0.36514,-7.7e-4 0.10132,-5e-5 0.26383,2.4e-4 0.36515,3.9e-4 0.10132,1.5e-4 0.26381,5.2e-4 0.36513,7.8e-4 0.10133,2.6e-4 0.26382,8.4e-4 0.36515,0.00116 0.10132,3.1e-4 0.2638,7.9e-4 0.36515,0.00116 0.10131,3.7e-4 0.2638,0.00119 0.36512,0.00157 0.10132,3.7e-4 0.26383,8.3e-4 0.36515,0.00114 0.10131,3.3e-4 0.26382,8.8e-4 0.36514,0.0012 0.10132,3e-4 0.26381,8.4e-4 0.36514,0.00116 0.10132,3.2e-4 0.26381,9.6e-4 0.36513,0.00114 0.10133,1.8e-4 0.36514,3.7e-4 0.36514,3.7e-4"
           inkscape:connector-curvature="0" /></g></g></g><g
     id="g34"
     transform="matrix(1.3333333,0,0,-1.3333333,37.794666,38.036001)"><g
       id="g36" /><g
       transform="translate(31.867,9.71)"
       id="g38"><g
         id="g40"><g
           transform="translate(-60.213,-38.238)"
           id="g42"><g
             id="text46"
             style="font-variant:normal;font-weight:bold;font-size:20.66251945px;font-family:Roboto;-inkscape-font-specification:Roboto-Bold;writing-mode:lr-tb;fill:#ffffff;fill-opacity:1;fill-rule:nonzero;stroke:none"
             transform="matrix(1,0,0,-1,60.213,38.238)"
             aria-label="PePetal.e.V."><path
               id="path64"
               d="M 4.338322,-5.175719 V 0 H 1.3115857 v -14.68976 h 5.7306206 q 1.6546159,0 2.9056668,0.605347 1.2611399,0.605348 1.9371109,1.72524 0.675971,1.109803 0.675971,2.5323693 0,2.1590719 -1.4831,3.4101229 -1.473012,1.2409618 -4.0860943,1.2409618 z m 0,-2.4516563 h 2.7038843 q 1.2006054,0 1.8261309,-0.5649908 0.6356146,-0.5649908 0.6356146,-1.6142593 0,-1.0795356 -0.6356146,-1.7454176 -0.6356146,-0.665882 -1.755507,-0.686061 H 4.338322 Z"
               inkscape:connector-curvature="0" /><path
               id="path66"
               d="m 19.347625,0.20178242 q -2.401211,0 -3.914579,-1.47301162 -1.503279,-1.4730117 -1.503279,-3.924668 v -0.2824954 q 0,-1.6445267 0.635614,-2.9359342 0.635615,-1.3014966 1.795864,-1.9976462 1.170338,-0.706238 2.663528,-0.706238 2.239785,0 3.521103,1.4124768 1.291407,1.4124769 1.291407,4.0053809 v 1.1905163 h -6.951404 q 0.141248,1.0694468 0.847486,1.7151505 0.716328,0.6457038 1.805953,0.6457038 1.684883,0 2.63326,-1.2207837 l 1.432656,1.6041703 q -0.655793,0.92819907 -1.775686,1.45283335 -1.119892,0.51454517 -2.481923,0.51454517 z M 19.014684,-8.7573569 q -0.867665,0 -1.412477,0.585169 -0.534724,0.585169 -0.68606,1.6747941 h 4.055826 v -0.2320498 q -0.02018,-0.9685556 -0.524634,-1.4931899 -0.504456,-0.5347234 -1.432655,-0.5347234 z"
               inkscape:connector-curvature="0" /><path
               id="path68"
               d="M 28.709765,-5.175719 V 0 h -3.026736 v -14.68976 h 5.73062 q 1.654616,0 2.905667,0.605347 1.26114,0.605348 1.937111,1.72524 0.675971,1.109803 0.675971,2.5323693 0,2.1590719 -1.483101,3.4101229 -1.473011,1.2409618 -4.086093,1.2409618 z m 0,-2.4516563 h 2.703884 q 1.200606,0 1.826131,-0.5649908 0.635615,-0.5649908 0.635615,-1.6142593 0,-1.0795356 -0.635615,-1.7454176 -0.635615,-0.665882 -1.755507,-0.686061 h -2.774508 z"
               inkscape:connector-curvature="0" /><path
               id="path70"
               d="m 47.149047,0.20178242 q -2.401211,0 -3.914579,-1.47301162 -1.503279,-1.4730117 -1.503279,-3.924668 v -0.2824954 q 0,-1.6445267 0.635614,-2.9359342 0.635615,-1.3014966 1.795864,-1.9976462 1.170338,-0.706238 2.663528,-0.706238 2.239785,0 3.521103,1.4124768 1.291408,1.4124769 1.291408,4.0053809 v 1.1905163 h -6.951405 q 0.141248,1.0694468 0.847486,1.7151505 0.716328,0.6457038 1.805953,0.6457038 1.684883,0 2.633261,-1.2207837 l 1.432655,1.6041703 q -0.655793,0.92819907 -1.775686,1.45283335 -1.119892,0.51454517 -2.481923,0.51454517 z M 46.816106,-8.7573569 q -0.867665,0 -1.412477,0.585169 -0.534724,0.585169 -0.68606,1.6747941 h 4.055826 v -0.2320498 q -0.02018,-0.9685556 -0.524634,-1.4931899 -0.504456,-0.5347234 -1.432655,-0.5347234 z"
               inkscape:connector-curvature="0" /><path
               id="path72"
               d="m 56.783591,-13.600135 v 2.683706 h 1.866488 v 2.1388939 h -1.866488 v 5.4481252 q 0,0.6053473 0.23205,0.8676644 0.23205,0.2623172 0.887843,0.2623172 0.484277,0 0.857575,-0.070624 v 2.20951748 q -0.857575,0.26231714 -1.765596,0.26231714 -3.067093,0 -3.127628,-3.09736012 v -5.8819574 h -1.594081 v -2.1388938 h 1.594081 v -2.683706 z"
               inkscape:connector-curvature="0" /><path
               id="path74"
               d="m 69.927167,0 q -0.201783,-0.39347571 -0.292585,-0.97864472 -1.059357,1.18042714 -2.75433,1.18042714 -1.60417,0 -2.663527,-0.92819912 -1.049269,-0.9281991 -1.049269,-2.340676 0,-1.7353288 1.281318,-2.6635279 1.291408,-0.9281991 3.722886,-0.9382883 h 1.341853 v -0.6255255 q 0,-0.756684 -0.393476,-1.2106945 -0.383386,-0.4540104 -1.220783,-0.4540104 -0.736506,0 -1.160249,0.3531192 -0.413654,0.3531193 -0.413654,0.9685556 h -2.915756 q 0,-0.9483773 0.585169,-1.755507 0.585169,-0.8071295 1.654616,-1.2611405 1.069446,-0.464099 2.40121,-0.464099 2.017825,0 3.198252,1.019001 1.190516,1.0089121 1.190516,2.8451321 v 4.7317977 q 0.01009,1.5537246 0.433832,2.35076515 V 0 Z m -2.4113,-2.0279133 q 0.645704,0 1.190516,-0.2824954 0.544813,-0.2925845 0.80713,-0.7768623 v -1.8765764 h -1.089625 q -2.189339,0 -2.330587,1.5133681 l -0.01009,0.171515 q 0,0.5448126 0.383386,0.8979318 0.383387,0.3531192 1.04927,0.3531192 z"
               inkscape:connector-curvature="0" /><path
               id="path76"
               d="M 77.755645,0 H 74.8298 v -15.49689 h 2.925845 z"
               inkscape:connector-curvature="0" /><path
               id="path78"
               d="m 80.307431,-1.4326552 q 0,-0.6961493 0.464099,-1.1299815 0.474189,-0.4338322 1.180427,-0.4338322 0.716328,0 1.180428,0.4338322 0.474188,0.4338322 0.474188,1.1299815 0,0.68606026 -0.464099,1.11989245 -0.4641,0.42374308 -1.190517,0.42374308 -0.716327,0 -1.180427,-0.42374308 -0.464099,-0.43383219 -0.464099,-1.11989245 z"
               inkscape:connector-curvature="0" /><path
               id="path80"
               d="m 94.488948,0.20178242 q -2.401211,0 -3.914579,-1.47301162 -1.503279,-1.4730117 -1.503279,-3.924668 v -0.2824954 q 0,-1.6445267 0.635614,-2.9359342 0.635615,-1.3014966 1.795864,-1.9976462 1.170338,-0.706238 2.663528,-0.706238 2.239785,0 3.521103,1.4124768 1.291408,1.4124769 1.291408,4.0053809 v 1.1905163 h -6.951405 q 0.141248,1.0694468 0.847486,1.7151505 0.716328,0.6457038 1.805953,0.6457038 1.684883,0 2.633261,-1.2207837 l 1.432655,1.6041703 q -0.655793,0.92819907 -1.775686,1.45283335 -1.119892,0.51454517 -2.481923,0.51454517 z M 94.156007,-8.7573569 q -0.867665,0 -1.412477,0.585169 -0.534724,0.585169 -0.68606,1.6747941 h 4.055826 v -0.2320498 q -0.02018,-0.9685556 -0.524634,-1.4931899 -0.504456,-0.5347234 -1.432655,-0.5347234 z"
               inkscape:connector-curvature="0" /><path
               id="path82"
               d="m 100.80465,-1.4326552 q 0,-0.6961493 0.4641,-1.1299815 0.47419,-0.4338322 1.18043,-0.4338322 0.71633,0 1.18043,0.4338322 0.47419,0.4338322 0.47419,1.1299815 0,0.68606026 -0.4641,1.11989245 -0.4641,0.42374308 -1.19052,0.42374308 -0.71633,0 -1.18043,-0.42374308 -0.4641,-0.43383219 -0.4641,-1.11989245 z"
               inkscape:connector-curvature="0" /><path
               id="path84"
               d="m 109.52731,-3.6421726 3.32941,-11.0475874 h 3.36976 L 111.1113,0 h -3.1579 l -5.095,-14.68976 h 3.35967 z"
               inkscape:connector-curvature="0" /><path
               id="path86"
               d="m 114.82004,-1.4326552 q 0,-0.6961493 0.4641,-1.1299815 0.47419,-0.4338322 1.18043,-0.4338322 0.71633,0 1.18043,0.4338322 0.47418,0.4338322 0.47418,1.1299815 0,0.68606026 -0.46409,1.11989245 -0.4641,0.42374308 -1.19052,0.42374308 -0.71633,0 -1.18043,-0.42374308 -0.4641,-0.43383219 -0.4641,-1.11989245 z"
               inkscape:connector-curvature="0" /></g><g
             id="text50"
             style="font-variant:normal;font-weight:normal;font-size:9.96263981px;font-family:Roboto;-inkscape-font-specification:Roboto-Regular;writing-mode:lr-tb;fill:#ffffff;fill-opacity:1;fill-rule:nonzero;stroke:none"
             transform="matrix(1,0,0,-1,60.213,24.606)"
             aria-label="Physikstudierendeund"><path
               id="path89"
               d="M 1.7561098,-2.772805 V 0 H 0.82211237 V -7.0828142 H 3.4343866 q 1.1626323,0 1.8193492,0.5934775 0.6615816,0.5934776 0.6615816,1.5712562 0,1.0312889 -0.6469879,1.5907145 -0.6421232,0.554561 -1.8436721,0.554561 z m 0,-0.7637375 h 1.6782768 q 0.7491438,0 1.1480385,-0.3502491 0.3988948,-0.3551136 0.3988948,-1.0215598 0,-0.6323941 -0.3988948,-1.0118306 -0.3988947,-0.3794364 -1.0945283,-0.3940301 h -1.731787 z"
               inkscape:connector-curvature="0" /><path
               id="path91"
               d="m 7.8664148,-4.6262063 q 0.5983421,-0.7345501 1.5566625,-0.7345501 1.6685477,0 1.6831417,1.8825887 V 0 h -0.899946 v -3.4830323 q -0.0049,-0.5691547 -0.2626867,-0.8415706 -0.2529577,-0.272416 -0.792925,-0.272416 -0.4378113,0 -0.7686021,0.2334994 -0.3307907,0.2334994 -0.5156444,0.6129359 V 0 H 6.9664693 v -7.4719799 h 0.8999455 z"
               inkscape:connector-curvature="0" /><path
               id="path93"
               d="m 14.17595,-1.3182985 1.225871,-3.9451665 h 0.963185 L 14.248918,0.81238323 Q 13.757597,2.1258172 12.687391,2.1258172 l -0.17026,-0.014594 -0.335655,-0.063239 V 1.3182985 l 0.243228,0.019458 q 0.45727,0 0.710228,-0.1848537 0.257822,-0.18485363 0.423217,-0.67617522 L 13.757597,-0.05837484 11.879872,-5.263465 h 0.982644 z"
               inkscape:connector-curvature="0" /><path
               id="path95"
               d="m 20.231897,-1.3961317 q 0,-0.3648427 -0.277281,-0.5642901 -0.272416,-0.2043119 -0.95832,-0.3502491 -0.68104,-0.1459371 -1.084799,-0.350249 -0.398895,-0.204312 -0.593478,-0.486457 -0.189718,-0.2821451 -0.189718,-0.6713107 0,-0.6469879 0.544832,-1.0945283 0.549696,-0.4475405 1.400996,-0.4475405 0.895081,0 1.449642,0.4621342 0.559425,0.4621342 0.559425,1.1820906 h -0.90481 q 0,-0.3697074 -0.316197,-0.6372587 -0.311332,-0.2675514 -0.78806,-0.2675514 -0.491322,0 -0.768602,0.2140411 -0.277281,0.2140411 -0.277281,0.5594256 0,0.3259262 0.257822,0.4913215 0.257823,0.1653954 0.929133,0.3161971 0.676176,0.1508017 1.094529,0.3599782 0.418353,0.2091765 0.6178,0.5059153 0.204312,0.2918742 0.204312,0.7150918 0,0.70536272 -0.56429,1.1334449 -0.56429,0.4232176 -1.464236,0.4232176 -0.632394,0 -1.118851,-0.22377023 -0.486457,-0.22377023 -0.763737,-0.62266498 -0.272416,-0.40375929 -0.272416,-0.87075809 h 0.899945 q 0.02432,0.452405 0.359978,0.71995641 0.34052,0.26268679 0.895081,0.26268679 0.51078,0 0.817248,-0.20431195 0.311333,-0.20917655 0.311333,-0.55456105 z"
               inkscape:connector-curvature="0" /><path
               id="path97"
               d="m 23.281732,0 h -0.899946 v -5.263465 h 0.899946 z m -0.972914,-6.6595966 q 0,-0.2189057 0.131343,-0.3697074 0.136208,-0.1508016 0.398895,-0.1508016 0.262687,0 0.398895,0.1508016 0.136208,0.1508017 0.136208,0.3697074 0,0.2189056 -0.136208,0.3648427 -0.136208,0.1459371 -0.398895,0.1459371 -0.262687,0 -0.398895,-0.1459371 -0.131343,-0.1459371 -0.131343,-0.3648427 z"
               inkscape:connector-curvature="0" /><path
               id="path99"
               d="m 26.190986,-2.4371497 -0.56429,0.588613 V 0 H 24.72675 v -7.4719799 h 0.899946 v 4.5191858 l 0.481592,-0.5788839 1.63936,-1.731787 h 1.094529 L 26.794193,-3.0646792 29.080541,0 h -1.055612 z"
               inkscape:connector-curvature="0" /><path
               id="path101"
               d="m 32.835631,-1.3961317 q 0,-0.3648427 -0.27728,-0.5642901 -0.272416,-0.2043119 -0.95832,-0.3502491 -0.68104,-0.1459371 -1.0848,-0.350249 -0.398894,-0.204312 -0.593477,-0.486457 -0.189718,-0.2821451 -0.189718,-0.6713107 0,-0.6469879 0.544832,-1.0945283 0.549696,-0.4475405 1.400996,-0.4475405 0.895081,0 1.449642,0.4621342 0.559425,0.4621342 0.559425,1.1820906 h -0.90481 q 0,-0.3697074 -0.316197,-0.6372587 -0.311332,-0.2675514 -0.78806,-0.2675514 -0.491322,0 -0.768602,0.2140411 -0.277281,0.2140411 -0.277281,0.5594256 0,0.3259262 0.257822,0.4913215 0.257823,0.1653954 0.929133,0.3161971 0.676176,0.1508017 1.094529,0.3599782 0.418353,0.2091765 0.6178,0.5059153 0.204312,0.2918742 0.204312,0.7150918 0,0.70536272 -0.56429,1.1334449 -0.56429,0.4232176 -1.464236,0.4232176 -0.632394,0 -1.118851,-0.22377023 -0.486457,-0.22377023 -0.763737,-0.62266498 -0.272416,-0.40375929 -0.272416,-0.87075809 h 0.899945 q 0.02432,0.452405 0.359978,0.71995641 0.34052,0.26268679 0.895081,0.26268679 0.51078,0 0.817248,-0.20431195 0.311332,-0.20917655 0.311332,-0.55456105 z"
               inkscape:connector-curvature="0" /><path
               id="path103"
               d="m 36.128697,-6.5379824 v 1.2745174 h 0.982643 v 0.6956336 h -0.982643 v 3.2641266 q 0,0.31619705 0.131344,0.47672786 0.131343,0.15566625 0.44754,0.15566625 0.155666,0 0.428082,-0.0583748 V 0 q -0.355113,0.0972914 -0.690769,0.0972914 -0.603206,0 -0.909674,-0.36484276 -0.306468,-0.36484277 -0.306468,-1.03615344 V -4.5678314 H 34.270431 V -5.263465 h 0.958321 v -1.2745174 z"
               inkscape:connector-curvature="0" /><path
               id="path105"
               d="m 41.412018,-0.52050901 q -0.525374,0.61780041 -1.542069,0.61780041 -0.84157,0 -1.284246,-0.48645702 -0.437812,-0.49132159 -0.442676,-1.44964188 V -5.263465 h 0.899945 v 3.4003346 q 0,1.19668428 0.972914,1.19668428 1.031289,0 1.371809,-0.76860208 V -5.263465 h 0.899946 V 0 h -0.856165 z"
               inkscape:connector-curvature="0" /><path
               id="path107"
               d="m 43.435981,-2.6755136 q 0,-1.211278 0.574019,-1.9458281 0.574019,-0.7394147 1.503152,-0.7394147 0.924268,0 1.464236,0.6323941 v -2.7436176 h 0.899945 V 0 h -0.826977 l -0.04378,-0.56429015 q -0.539967,0.66158155 -1.503152,0.66158155 -0.914539,0 -1.493423,-0.74914381 -0.574019,-0.74914379 -0.574019,-1.95555719 z m 0.899945,0.102156 q 0,0.8950809 0.369707,1.4009962 0.369708,0.50591528 1.02156,0.50591528 0.856165,0 1.250195,-0.76860208 v -2.4176914 q -0.40376,-0.7442793 -1.240466,-0.7442793 -0.661581,0 -1.031289,0.5107799 -0.369707,0.5107799 -0.369707,1.5128814 z"
               inkscape:connector-curvature="0" /><path
               id="path109"
               d="M 50.251596,0 H 49.35165 v -5.263465 h 0.899946 z m -0.972914,-6.6595966 q 0,-0.2189057 0.131343,-0.3697074 0.136208,-0.1508016 0.398895,-0.1508016 0.262687,0 0.398895,0.1508016 0.136208,0.1508017 0.136208,0.3697074 0,0.2189056 -0.136208,0.3648427 -0.136208,0.1459371 -0.398895,0.1459371 -0.262687,0 -0.398895,-0.1459371 -0.131343,-0.1459371 -0.131343,-0.3648427 z"
               inkscape:connector-curvature="0" /><path
               id="path111"
               d="m 53.87594,0.0972914 q -1.070206,0 -1.741516,-0.70049811 -0.671311,-0.70536269 -0.671311,-1.88258869 v -0.1653954 q 0,-0.7831958 0.296739,-1.3961316 0.301603,-0.6178004 0.836706,-0.9631849 0.539967,-0.3502491 1.167497,-0.3502491 1.026424,0 1.595579,0.6761753 0.569154,0.6761752 0.569154,1.9360989 v 0.3745719 h -3.56573 q 0.01946,0.7783313 0.452405,1.2599237 0.437812,0.4767279 1.109122,0.4767279 0.476728,0 0.807519,-0.19458281 0.330791,-0.19458279 0.578884,-0.51564449 l 0.549696,0.42808223 Q 55.199103,0.0972914 53.87594,0.0972914 Z m -0.111885,-4.7186331 q -0.544832,0 -0.91454,0.3988947 -0.369707,0.3940302 -0.457269,1.1091221 h 2.636597 v -0.068104 q -0.03892,-0.6859044 -0.369707,-1.0604763 -0.330791,-0.3794365 -0.895081,-0.3794365 z"
               inkscape:connector-curvature="0" /><path
               id="path113"
               d="m 59.514128,-4.4559463 q -0.204312,-0.034052 -0.442676,-0.034052 -0.885352,0 -1.201549,0.7540084 V 0 h -0.899946 v -5.263465 h 0.875623 l 0.01459,0.6080713 q 0.442676,-0.7053627 1.255059,-0.7053627 0.262687,0 0.398895,0.068104 z"
               inkscape:connector-curvature="0" /><path
               id="path115"
               d="m 62.435842,0.0972914 q -1.070206,0 -1.741516,-0.70049811 -0.671311,-0.70536269 -0.671311,-1.88258869 v -0.1653954 q 0,-0.7831958 0.296739,-1.3961316 0.301603,-0.6178004 0.836706,-0.9631849 0.539967,-0.3502491 1.167497,-0.3502491 1.026424,0 1.595579,0.6761753 0.569155,0.6761752 0.569155,1.9360989 v 0.3745719 h -3.56573 q 0.01946,0.7783313 0.452405,1.2599237 0.437811,0.4767279 1.109122,0.4767279 0.476727,0 0.807518,-0.19458281 0.330791,-0.19458279 0.578884,-0.51564449 l 0.549697,0.42808223 Q 63.759005,0.0972914 62.435842,0.0972914 Z m -0.111885,-4.7186331 q -0.544832,0 -0.914539,0.3988947 -0.369708,0.3940302 -0.45727,1.1091221 h 2.636597 v -0.068104 q -0.03892,-0.6859044 -0.369707,-1.0604763 -0.330791,-0.3794365 -0.895081,-0.3794365 z"
               inkscape:connector-curvature="0" /><path
               id="path117"
               d="m 66.381156,-5.263465 0.02919,0.6615816 q 0.603207,-0.758873 1.576121,-0.758873 1.668547,0 1.683141,1.8825887 V 0 H 68.76966 v -3.4830323 q -0.0049,-0.5691547 -0.262687,-0.8415706 -0.252958,-0.272416 -0.792925,-0.272416 -0.437812,0 -0.768602,0.2334994 -0.330791,0.2334994 -0.515645,0.6129359 V 0 h -0.899945 v -5.263465 z"
               inkscape:connector-curvature="0" /><path
               id="path119"
               d="m 70.808333,-2.6755136 q 0,-1.211278 0.574019,-1.9458281 0.57402,-0.7394147 1.503153,-0.7394147 0.924268,0 1.464235,0.6323941 v -2.7436176 h 0.899946 V 0 h -0.826977 l -0.04378,-0.56429015 Q 73.83896,0.0972914 72.875776,0.0972914 q -0.91454,0 -1.493424,-0.74914381 -0.574019,-0.74914379 -0.574019,-1.95555719 z m 0.899946,0.102156 q 0,0.8950809 0.369707,1.4009962 0.369707,0.50591528 1.02156,0.50591528 0.856164,0 1.250194,-0.76860208 v -2.4176914 q -0.403759,-0.7442793 -1.240465,-0.7442793 -0.661582,0 -1.031289,0.5107799 -0.369707,0.5107799 -0.369707,1.5128814 z"
               inkscape:connector-curvature="0" /><path
               id="path121"
               d="m 78.830366,0.0972914 q -1.070206,0 -1.741517,-0.70049811 -0.67131,-0.70536269 -0.67131,-1.88258869 v -0.1653954 q 0,-0.7831958 0.296738,-1.3961316 0.301604,-0.6178004 0.836707,-0.9631849 0.539967,-0.3502491 1.167496,-0.3502491 1.026425,0 1.595579,0.6761753 0.569155,0.6761752 0.569155,1.9360989 v 0.3745719 h -3.56573 q 0.01946,0.7783313 0.452405,1.2599237 0.437812,0.4767279 1.109122,0.4767279 0.476728,0 0.807519,-0.19458281 0.330791,-0.19458279 0.578884,-0.51564449 l 0.549696,0.42808223 Q 80.153529,0.0972914 78.830366,0.0972914 Z M 78.71848,-4.6213417 q -0.544831,0 -0.914539,0.3988947 -0.369707,0.3940302 -0.457269,1.1091221 h 2.636597 v -0.068104 q -0.03892,-0.6859044 -0.369708,-1.0604763 -0.33079,-0.3794365 -0.895081,-0.3794365 z"
               inkscape:connector-curvature="0" /><path
               id="path123"
               d="m 88.481507,-0.52050901 q -0.525374,0.61780041 -1.542069,0.61780041 -0.841571,0 -1.284247,-0.48645702 Q 85.21738,-0.88048721 85.212515,-1.8388075 V -5.263465 h 0.899946 v 3.4003346 q 0,1.19668428 0.972914,1.19668428 1.031289,0 1.371809,-0.76860208 V -5.263465 h 0.899945 V 0 h -0.856164 z"
               inkscape:connector-curvature="0" /><path
               id="path125"
               d="m 91.575675,-5.263465 0.02919,0.6615816 q 0.603207,-0.758873 1.576121,-0.758873 1.668547,0 1.683141,1.8825887 V 0 h -0.899945 v -3.4830323 q -0.0049,-0.5691547 -0.262687,-0.8415706 -0.252958,-0.272416 -0.792925,-0.272416 -0.437811,0 -0.768602,0.2334994 -0.330791,0.2334994 -0.515645,0.6129359 V 0 h -0.899945 v -5.263465 z"
               inkscape:connector-curvature="0" /><path
               id="path127"
               d="m 96.002852,-2.6755136 q 0,-1.211278 0.57402,-1.9458281 0.574019,-0.7394147 1.503152,-0.7394147 0.924268,0 1.464235,0.6323941 V -7.4719799 H 100.4442 V 0 h -0.826972 l -0.04378,-0.56429015 Q 99.03348,0.0972914 98.070296,0.0972914 q -0.91454,0 -1.493423,-0.74914381 -0.57402,-0.74914379 -0.57402,-1.95555719 z m 0.899946,0.102156 q 0,0.8950809 0.369707,1.4009962 0.369707,0.50591528 1.02156,0.50591528 0.856164,0 1.250194,-0.76860208 v -2.4176914 q -0.403759,-0.7442793 -1.240465,-0.7442793 -0.661582,0 -1.031289,0.5107799 -0.369707,0.5107799 -0.369707,1.5128814 z"
               inkscape:connector-curvature="0" /></g><g
             id="text54"
             style="font-variant:normal;font-weight:normal;font-size:9.96263981px;font-family:Roboto;-inkscape-font-specification:Roboto-Regular;writing-mode:lr-tb;fill:#ffffff;fill-opacity:1;fill-rule:nonzero;stroke:none"
             transform="matrix(1,0,0,-1,60.213,14.012)"
             aria-label="ehemaligePhysikstudierende"><path
               id="path130"
               d="m 2.8652319,0.0972914 q -1.0702055,0 -1.7415162,-0.70049811 Q 0.45240503,-1.3085694 0.45240503,-2.4857954 v -0.1653954 q 0,-0.7831958 0.29673878,-1.3961316 0.30160339,-0.6178004 0.83670609,-0.9631849 0.5399673,-0.3502491 1.1674968,-0.3502491 1.0264244,0 1.5955791,0.6761753 0.5691547,0.6761752 0.5691547,1.9360989 v 0.3745719 h -3.56573 q 0.019458,0.7783313 0.4524051,1.2599237 0.4378113,0.4767279 1.109122,0.4767279 0.4767278,0 0.8075186,-0.19458281 Q 4.052187,-1.0264243 4.3002801,-1.347486 l 0.5496964,0.42808223 Q 4.188395,0.0972914 2.8652319,0.0972914 Z M 2.7533467,-4.6213417 q -0.5448318,0 -0.9145392,0.3988947 -0.3697073,0.3940302 -0.4572696,1.1091221 H 4.018135 v -0.068104 Q 3.9792184,-3.8673333 3.6484277,-4.2419052 3.3176369,-4.6213417 2.7533467,-4.6213417 Z"
               inkscape:connector-curvature="0" /><path
               id="path132"
               d="m 6.8591921,-4.6262063 q 0.5983422,-0.7345501 1.5566625,-0.7345501 1.6685474,0 1.6831414,1.8825887 V 0 H 9.1990504 v -3.4830323 q -0.00486,-0.5691547 -0.2626868,-0.8415706 -0.2529576,-0.272416 -0.7929249,-0.272416 -0.4378113,0 -0.7686021,0.2334994 -0.3307908,0.2334994 -0.5156445,0.6129359 V 0 H 5.9592467 v -7.4719799 h 0.8999454 z"
               inkscape:connector-curvature="0" /><path
               id="path134"
               d="m 13.630861,0.0972914 q -1.070206,0 -1.741516,-0.70049811 -0.671311,-0.70536269 -0.671311,-1.88258869 v -0.1653954 q 0,-0.7831958 0.296739,-1.3961316 0.301603,-0.6178004 0.836706,-0.9631849 0.539967,-0.3502491 1.167497,-0.3502491 1.026424,0 1.595579,0.6761753 0.569154,0.6761752 0.569154,1.9360989 v 0.3745719 h -3.56573 q 0.01946,0.7783313 0.452405,1.2599237 0.437812,0.4767279 1.109122,0.4767279 0.476728,0 0.807519,-0.19458281 0.330791,-0.19458279 0.578884,-0.51564449 l 0.549696,0.42808223 Q 14.954024,0.0972914 13.630861,0.0972914 Z m -0.111885,-4.7186331 q -0.544832,0 -0.91454,0.3988947 -0.369707,0.3940302 -0.457269,1.1091221 h 2.636597 v -0.068104 q -0.03892,-0.6859044 -0.369708,-1.0604763 -0.33079,-0.3794365 -0.89508,-0.3794365 z"
               inkscape:connector-curvature="0" /><path
               id="path136"
               d="m 17.57131,-5.263465 0.02432,0.5837484 q 0.578883,-0.6810398 1.561527,-0.6810398 1.104257,0 1.503152,0.8464352 0.262687,-0.3794364 0.68104,-0.6129358 0.423217,-0.2334994 0.997237,-0.2334994 1.731787,0 1.760974,1.833943 V 0 h -0.899946 v -3.4733031 q 0,-0.5642902 -0.257822,-0.8415707 -0.257822,-0.2821451 -0.865893,-0.2821451 -0.501051,0 -0.831842,0.3016034 -0.330791,0.2967388 -0.384301,0.8026541 V 0 h -0.90481 v -3.4489803 q 0,-1.1480386 -1.123716,-1.1480386 -0.885351,0 -1.211278,0.7540084 V 0 H 16.72001 v -5.263465 z"
               inkscape:connector-curvature="0" /><path
               id="path138"
               d="m 28.706661,0 q -0.07783,-0.15566625 -0.126478,-0.554561 -0.62753,0.6518524 -1.498288,0.6518524 -0.778331,0 -1.279382,-0.43781132 -0.496186,-0.44267589 -0.496186,-1.11885118 0,-0.8221123 0.622665,-1.2745174 0.627529,-0.4572696 1.760974,-0.4572696 h 0.875623 v -0.4134884 q 0,-0.4718633 -0.282145,-0.7491438 -0.282145,-0.2821451 -0.831842,-0.2821451 -0.481592,0 -0.807518,0.2432285 -0.325927,0.2432285 -0.325927,0.588613 h -0.90481 q 0,-0.3940302 0.277281,-0.758873 0.282145,-0.3697073 0.758873,-0.5837484 0.481592,-0.2140411 1.055612,-0.2140411 0.909674,0 1.425319,0.4572696 0.515644,0.452405 0.535102,1.2501946 v 2.4225559 q 0,0.724821 0.184854,1.15290318 V 0 Z m -1.493423,-0.6859044 q 0.423218,0 0.802654,-0.21890566 0.379437,-0.21890564 0.549697,-0.56915474 v -1.0799346 h -0.705363 q -1.653954,0 -1.653954,0.9680495 0,0.4232176 0.282145,0.66158156 0.282146,0.23836394 0.724821,0.23836394 z"
               inkscape:connector-curvature="0" /><path
               id="path140"
               d="m 31.853587,0 h -0.899945 v -7.4719799 h 0.899945 z"
               inkscape:connector-curvature="0" /><path
               id="path142"
               d="m 34.27152,0 h -0.899946 v -5.263465 h 0.899946 z m -0.972914,-6.6595966 q 0,-0.2189057 0.131343,-0.3697074 0.136208,-0.1508016 0.398895,-0.1508016 0.262687,0 0.398895,0.1508016 0.136208,0.1508017 0.136208,0.3697074 0,0.2189056 -0.136208,0.3648427 -0.136208,0.1459371 -0.398895,0.1459371 -0.262687,0 -0.398895,-0.1459371 -0.131343,-0.1459371 -0.131343,-0.3648427 z"
               inkscape:connector-curvature="0" /><path
               id="path144"
               d="m 35.497635,-2.6755136 q 0,-1.2307363 0.569154,-1.9555572 0.569155,-0.7296856 1.508017,-0.7296856 0.963185,0 1.503152,0.6810398 l 0.04378,-0.5837484 h 0.822113 v 5.13698617 q 0,1.02155975 -0.608072,1.61017273 -0.603206,0.588613 -1.624766,0.588613 -0.569155,0 -1.113987,-0.2432285 -0.544831,-0.2432285 -0.831841,-0.6664461 l 0.466999,-0.53996731 q 0.578884,0.71509181 1.41559,0.71509181 0.656717,0 1.021559,-0.36970733 0.369708,-0.36970733 0.369708,-1.04101802 v -0.45240503 q -0.539968,0.62266498 -1.473965,0.62266498 -0.924268,0 -1.498288,-0.74427924 -0.569154,-0.74427926 -0.569153,-2.02852576 z m 0.90481,0.102156 q 0,0.8902163 0.364842,1.4009962 0.364843,0.50591528 1.02156,0.50591528 0.8513,0 1.250195,-0.77346668 v -2.4030977 q -0.413489,-0.7540084 -1.240466,-0.7540084 -0.656717,0 -1.026424,0.5107799 -0.369707,0.5107799 -0.369707,1.5128814 z"
               inkscape:connector-curvature="0" /><path
               id="path146"
               d="m 43.484907,0.0972914 q -1.070206,0 -1.741517,-0.70049811 -0.67131,-0.70536269 -0.67131,-1.88258869 v -0.1653954 q 0,-0.7831958 0.296738,-1.3961316 0.301604,-0.6178004 0.836707,-0.9631849 0.539967,-0.3502491 1.167496,-0.3502491 1.026425,0 1.595579,0.6761753 0.569155,0.6761752 0.569155,1.9360989 v 0.3745719 h -3.56573 q 0.01946,0.7783313 0.452405,1.2599237 0.437812,0.4767279 1.109122,0.4767279 0.476728,0 0.807519,-0.19458281 0.330791,-0.19458279 0.578884,-0.51564449 l 0.549696,0.42808223 Q 44.80807,0.0972914 43.484907,0.0972914 Z m -0.111886,-4.7186331 q -0.544831,0 -0.914539,0.3988947 -0.369707,0.3940302 -0.457269,1.1091221 h 2.636597 v -0.068104 q -0.03892,-0.6859044 -0.369708,-1.0604763 -0.33079,-0.3794365 -0.895081,-0.3794365 z"
               inkscape:connector-curvature="0" /><path
               id="path148"
               d="M 50.971553,-2.772805 V 0 h -0.933998 v -7.0828142 h 2.612274 q 1.162633,0 1.819349,0.5934775 0.661582,0.5934776 0.661582,1.5712562 0,1.0312889 -0.646988,1.5907145 -0.642123,0.554561 -1.843672,0.554561 z m 0,-0.7637375 h 1.678276 q 0.749144,0 1.148039,-0.3502491 0.398895,-0.3551136 0.398895,-1.0215598 0,-0.6323941 -0.398895,-1.0118306 -0.398895,-0.3794364 -1.094528,-0.3940301 h -1.731787 z"
               inkscape:connector-curvature="0" /><path
               id="path150"
               d="m 57.081855,-4.6262063 q 0.598342,-0.7345501 1.556663,-0.7345501 1.668547,0 1.683141,1.8825887 V 0 h -0.899946 v -3.4830323 q -0.0049,-0.5691547 -0.262686,-0.8415706 -0.252958,-0.272416 -0.792925,-0.272416 -0.437812,0 -0.768602,0.2334994 -0.330791,0.2334994 -0.515645,0.6129359 V 0 H 56.18191 v -7.4719799 h 0.899945 z"
               inkscape:connector-curvature="0" /><path
               id="path152"
               d="m 63.39139,-1.3182985 1.225872,-3.9451665 h 0.963185 L 63.464359,0.81238323 Q 62.973037,2.1258172 61.902832,2.1258172 l -0.17026,-0.014594 -0.335655,-0.063239 V 1.3182985 l 0.243228,0.019458 q 0.45727,0 0.710227,-0.1848537 0.257823,-0.18485363 0.423218,-0.67617522 L 62.973037,-0.05837484 61.095313,-5.263465 h 0.982643 z"
               inkscape:connector-curvature="0" /><path
               id="path154"
               d="m 69.447341,-1.3961317 q 0,-0.3648427 -0.27728,-0.5642901 -0.272416,-0.2043119 -0.958321,-0.3502491 -0.68104,-0.1459371 -1.084799,-0.350249 -0.398895,-0.204312 -0.593477,-0.486457 -0.189719,-0.2821451 -0.189719,-0.6713107 0,-0.6469879 0.544832,-1.0945283 0.549697,-0.4475405 1.400996,-0.4475405 0.895081,0 1.449642,0.4621342 0.559426,0.4621342 0.559426,1.1820906 h -0.90481 q 0,-0.3697074 -0.316197,-0.6372587 -0.311333,-0.2675514 -0.788061,-0.2675514 -0.491321,0 -0.768602,0.2140411 -0.27728,0.2140411 -0.27728,0.5594256 0,0.3259262 0.257822,0.4913215 0.257822,0.1653954 0.929133,0.3161971 0.676175,0.1508017 1.094528,0.3599782 0.418353,0.2091765 0.617801,0.5059153 0.204312,0.2918742 0.204312,0.7150918 0,0.70536272 -0.564291,1.1334449 -0.56429,0.4232176 -1.464235,0.4232176 -0.632394,0 -1.118851,-0.22377023 -0.486457,-0.22377023 -0.763738,-0.62266498 -0.272416,-0.40375929 -0.272416,-0.87075809 h 0.899946 q 0.02432,0.452405 0.359978,0.71995641 0.34052,0.26268679 0.895081,0.26268679 0.51078,0 0.817248,-0.20431195 0.311332,-0.20917655 0.311332,-0.55456105 z"
               inkscape:connector-curvature="0" /><path
               id="path156"
               d="m 72.497174,0 h -0.899945 v -5.263465 h 0.899945 z M 71.52426,-6.6595966 q 0,-0.2189057 0.131344,-0.3697074 0.136208,-0.1508016 0.398895,-0.1508016 0.262686,0 0.398894,0.1508016 0.136208,0.1508017 0.136208,0.3697074 0,0.2189056 -0.136208,0.3648427 -0.136208,0.1459371 -0.398894,0.1459371 -0.262687,0 -0.398895,-0.1459371 Q 71.52426,-6.440691 71.52426,-6.6595966 Z"
               inkscape:connector-curvature="0" /><path
               id="path158"
               d="m 75.406427,-2.4371497 -0.56429,0.588613 V 0 h -0.899946 v -7.4719799 h 0.899946 v 4.5191858 l 0.481592,-0.5788839 1.63936,-1.731787 h 1.094528 L 76.009633,-3.0646792 78.295981,0 H 77.24037 Z"
               inkscape:connector-curvature="0" /><path
               id="path160"
               d="m 82.05107,-1.3961317 q 0,-0.3648427 -0.27728,-0.5642901 -0.272416,-0.2043119 -0.958321,-0.3502491 -0.681039,-0.1459371 -1.084799,-0.350249 -0.398894,-0.204312 -0.593477,-0.486457 -0.189718,-0.2821451 -0.189718,-0.6713107 0,-0.6469879 0.544831,-1.0945283 0.549697,-0.4475405 1.400997,-0.4475405 0.895081,0 1.449642,0.4621342 0.559425,0.4621342 0.559425,1.1820906 h -0.90481 q 0,-0.3697074 -0.316197,-0.6372587 -0.311333,-0.2675514 -0.78806,-0.2675514 -0.491322,0 -0.768602,0.2140411 -0.277281,0.2140411 -0.277281,0.5594256 0,0.3259262 0.257822,0.4913215 0.257822,0.1653954 0.929133,0.3161971 0.676175,0.1508017 1.094528,0.3599782 0.418353,0.2091765 0.617801,0.5059153 0.204312,0.2918742 0.204312,0.7150918 0,0.70536272 -0.56429,1.1334449 -0.56429,0.4232176 -1.464236,0.4232176 -0.632394,0 -1.118851,-0.22377023 -0.486457,-0.22377023 -0.763738,-0.62266498 -0.272416,-0.40375929 -0.272416,-0.87075809 h 0.899946 q 0.02432,0.452405 0.359978,0.71995641 0.34052,0.26268679 0.895081,0.26268679 0.51078,0 0.817248,-0.20431195 0.311332,-0.20917655 0.311332,-0.55456105 z"
               inkscape:connector-curvature="0" /><path
               id="path162"
               d="m 85.34414,-6.5379824 v 1.2745174 h 0.982643 v 0.6956336 H 85.34414 v 3.2641266 q 0,0.31619705 0.131343,0.47672786 0.131344,0.15566625 0.447541,0.15566625 0.155666,0 0.428082,-0.0583748 V 0 q -0.355114,0.0972914 -0.690769,0.0972914 -0.603207,0 -0.909675,-0.36484276 -0.306468,-0.36484277 -0.306468,-1.03615344 v -3.2641266 h -0.95832 V -5.263465 h 0.95832 v -1.2745174 z"
               inkscape:connector-curvature="0" /><path
               id="path164"
               d="m 90.627457,-0.52050901 q -0.525374,0.61780041 -1.542069,0.61780041 -0.841571,0 -1.284246,-0.48645702 Q 87.36333,-0.88048721 87.358466,-1.8388075 V -5.263465 h 0.899945 v 3.4003346 q 0,1.19668428 0.972914,1.19668428 1.031289,0 1.371809,-0.76860208 V -5.263465 H 91.50308 V 0 h -0.856165 z"
               inkscape:connector-curvature="0" /><path
               id="path166"
               d="m 92.651427,-2.6755136 q 0,-1.211278 0.574019,-1.9458281 0.57402,-0.7394147 1.503153,-0.7394147 0.924268,0 1.464235,0.6323941 V -7.4719799 H 97.09278 V 0 h -0.826977 l -0.04378,-0.56429015 Q 95.682055,0.0972914 94.71887,0.0972914 q -0.914539,0 -1.493423,-0.74914381 -0.574019,-0.74914379 -0.574019,-1.95555719 z m 0.899946,0.102156 q 0,0.8950809 0.369707,1.4009962 0.369707,0.50591528 1.02156,0.50591528 0.856164,0 1.250194,-0.76860208 v -2.4176914 q -0.403759,-0.7442793 -1.240465,-0.7442793 -0.661582,0 -1.031289,0.5107799 -0.369707,0.5107799 -0.369707,1.5128814 z"
               inkscape:connector-curvature="0" /><path
               id="path168"
               d="m 99.467038,0 h -0.899945 v -5.263465 h 0.899945 z m -0.972914,-6.6595966 q 0,-0.2189057 0.131344,-0.3697074 0.136208,-0.1508016 0.398894,-0.1508016 0.262687,0 0.398895,0.1508016 0.136208,0.1508017 0.136208,0.3697074 0,0.2189056 -0.136208,0.3648427 -0.136208,0.1459371 -0.398895,0.1459371 -0.262686,0 -0.398894,-0.1459371 -0.131344,-0.1459371 -0.131344,-0.3648427 z"
               inkscape:connector-curvature="0" /><path
               id="path170"
               d="m 103.09138,0.0972914 q -1.0702,0 -1.74151,-0.70049811 -0.67131,-0.70536269 -0.67131,-1.88258869 v -0.1653954 q 0,-0.7831958 0.29673,-1.3961316 0.30161,-0.6178004 0.83671,-0.9631849 0.53997,-0.3502491 1.1675,-0.3502491 1.02642,0 1.59558,0.6761753 0.56915,0.6761752 0.56915,1.9360989 v 0.3745719 h -3.56573 q 0.0195,0.7783313 0.45241,1.2599237 0.43781,0.4767279 1.10912,0.4767279 0.47673,0 0.80752,-0.19458281 0.33079,-0.19458279 0.57888,-0.51564449 l 0.5497,0.42808223 q -0.66158,1.01669517 -1.98475,1.01669517 z m -0.11188,-4.7186331 q -0.54483,0 -0.91454,0.3988947 -0.36971,0.3940302 -0.45727,1.1091221 h 2.6366 v -0.068104 q -0.0389,-0.6859044 -0.36971,-1.0604763 -0.33079,-0.3794365 -0.89508,-0.3794365 z"
               inkscape:connector-curvature="0" /><path
               id="path172"
               d="m 108.72957,-4.4559463 q -0.20432,-0.034052 -0.44268,-0.034052 -0.88535,0 -1.20155,0.7540084 V 0 h -0.89994 v -5.263465 h 0.87562 l 0.0146,0.6080713 q 0.44268,-0.7053627 1.25506,-0.7053627 0.26269,0 0.3989,0.068104 z"
               inkscape:connector-curvature="0" /><path
               id="path174"
               d="m 111.65128,0.0972914 q -1.0702,0 -1.74152,-0.70049811 -0.67131,-0.70536269 -0.67131,-1.88258869 v -0.1653954 q 0,-0.7831958 0.29674,-1.3961316 0.30161,-0.6178004 0.83671,-0.9631849 0.53997,-0.3502491 1.1675,-0.3502491 1.02642,0 1.59557,0.6761753 0.56916,0.6761752 0.56916,1.9360989 v 0.3745719 h -3.56573 q 0.0195,0.7783313 0.4524,1.2599237 0.43782,0.4767279 1.10913,0.4767279 0.47672,0 0.80752,-0.19458281 0.33079,-0.19458279 0.57888,-0.51564449 l 0.5497,0.42808223 q -0.66159,1.01669517 -1.98475,1.01669517 z m -0.11188,-4.7186331 q -0.54484,0 -0.91454,0.3988947 -0.36971,0.3940302 -0.45727,1.1091221 h 2.63659 v -0.068104 q -0.0389,-0.6859044 -0.3697,-1.0604763 -0.33079,-0.3794365 -0.89508,-0.3794365 z"
               inkscape:connector-curvature="0" /><path
               id="path176"
               d="m 115.59659,-5.263465 0.0292,0.6615816 q 0.60321,-0.758873 1.57612,-0.758873 1.66855,0 1.68315,1.8825887 V 0 h -0.89995 v -3.4830323 q -0.005,-0.5691547 -0.26269,-0.8415706 -0.25295,-0.272416 -0.79292,-0.272416 -0.43781,0 -0.7686,0.2334994 -0.33079,0.2334994 -0.51565,0.6129359 V 0 h -0.89994 v -5.263465 z"
               inkscape:connector-curvature="0" /><path
               id="path178"
               d="m 120.02379,-2.6755136 q 0,-1.211278 0.57402,-1.9458281 0.57402,-0.7394147 1.50315,-0.7394147 0.92427,0 1.46423,0.6323941 v -2.7436176 h 0.89995 V 0 h -0.82698 l -0.0438,-0.56429015 q -0.53997,0.66158155 -1.50315,0.66158155 -0.91454,0 -1.49342,-0.74914381 -0.57402,-0.74914379 -0.57402,-1.95555719 z m 0.89994,0.102156 q 0,0.8950809 0.36971,1.4009962 0.36971,0.50591528 1.02156,0.50591528 0.85616,0 1.25019,-0.76860208 v -2.4176914 q -0.40375,-0.7442793 -1.24046,-0.7442793 -0.66158,0 -1.03129,0.5107799 -0.36971,0.5107799 -0.36971,1.5128814 z"
               inkscape:connector-curvature="0" /><path
               id="path180"
               d="m 128.0458,0.0972914 q -1.0702,0 -1.74151,-0.70049811 -0.67131,-0.70536269 -0.67131,-1.88258869 v -0.1653954 q 0,-0.7831958 0.29674,-1.3961316 0.3016,-0.6178004 0.8367,-0.9631849 0.53997,-0.3502491 1.1675,-0.3502491 1.02642,0 1.59558,0.6761753 0.56915,0.6761752 0.56915,1.9360989 v 0.3745719 h -3.56573 q 0.0195,0.7783313 0.45241,1.2599237 0.43781,0.4767279 1.10912,0.4767279 0.47673,0 0.80752,-0.19458281 0.33079,-0.19458279 0.57888,-0.51564449 l 0.5497,0.42808223 Q 129.36897,0.0972914 128.0458,0.0972914 Z m -0.11188,-4.7186331 q -0.54483,0 -0.91454,0.3988947 -0.36971,0.3940302 -0.45727,1.1091221 h 2.6366 v -0.068104 q -0.0389,-0.6859044 -0.36971,-1.0604763 -0.33079,-0.3794365 -0.89508,-0.3794365 z"
               inkscape:connector-curvature="0" /></g><g
             id="text58"
             style="font-variant:normal;font-weight:normal;font-size:9.96263981px;font-family:Roboto;-inkscape-font-specification:Roboto-Regular;writing-mode:lr-tb;fill:#ffffff;fill-opacity:1;fill-rule:nonzero;stroke:none"
             transform="matrix(1,0,0,-1,60.213,3.418)"
             aria-label="derTUDortmund"><path
               id="path183"
               d="m 0.46213417,-2.6755136 q 0,-1.211278 0.57401933,-1.9458281 0.5740192,-0.7394147 1.5031522,-0.7394147 0.9242683,0 1.4642356,0.6323941 V -7.4719799 H 4.9034868 V 0 H 4.0765098 L 4.0327287,-0.56429015 Q 3.4927614,0.0972914 2.5295765,0.0972914 q -0.9145392,0 -1.493423,-0.74914381 Q 0.46213417,-1.4009962 0.46213417,-2.6074096 Z m 0.89994553,0.102156 q 0,0.8950809 0.3697073,1.4009962 0.3697073,0.50591528 1.0215597,0.50591528 0.8561644,0 1.2501946,-0.76860208 V -3.8527396 Q 3.599782,-4.5970189 2.7630759,-4.5970189 q -0.6615816,0 -1.0312889,0.5107799 -0.3697073,0.5107799 -0.3697073,1.5128814 z"
               inkscape:connector-curvature="0" /><path
               id="path185"
               d="m 8.4841608,0.0972914 q -1.0702055,0 -1.7415162,-0.70049811 Q 6.0713339,-1.3085694 6.0713339,-2.4857954 v -0.1653954 q 0,-0.7831958 0.2967388,-1.3961316 0.3016034,-0.6178004 0.8367061,-0.9631849 0.5399673,-0.3502491 1.1674969,-0.3502491 1.0264243,0 1.595579,0.6761753 0.5691543,0.6761752 0.5691543,1.9360989 v 0.3745719 H 6.9712794 q 0.019458,0.7783313 0.4524051,1.2599237 0.4378113,0.4767279 1.109122,0.4767279 0.4767279,0 0.8075186,-0.19458281 Q 9.6711159,-1.0264243 9.919209,-1.347486 l 0.549696,0.42808223 Q 9.8073239,0.0972914 8.4841608,0.0972914 Z M 8.3722757,-4.6213417 q -0.5448319,0 -0.9145392,0.3988947 -0.3697074,0.3940302 -0.4572696,1.1091221 h 2.636597 v -0.068104 Q 9.5981473,-3.8673333 9.2673566,-4.2419052 8.9365658,-4.6213417 8.3722757,-4.6213417 Z"
               inkscape:connector-curvature="0" /><path
               id="path187"
               d="m 14.122346,-4.4559463 q -0.204312,-0.034052 -0.442676,-0.034052 -0.885352,0 -1.201549,0.7540084 V 0 h -0.899945 v -5.263465 h 0.875622 l 0.01459,0.6080713 q 0.442676,-0.7053627 1.255059,-0.7053627 0.262687,0 0.398895,0.068104 z"
               inkscape:connector-curvature="0" /><path
               id="path189"
               d="M 23.102669,-6.3142121 H 20.82605 V 0 h -0.929133 v -6.3142121 h -2.271754 v -0.7686021 h 5.477506 z"
               inkscape:connector-curvature="0" /><path
               id="path191"
               d="m 29.139804,-7.0828142 v 4.8159245 q -0.0049,1.0021014 -0.632395,1.63936014 -0.622665,0.6372587 -1.69287,0.71509182 l -0.248093,0.0097291 q -1.162632,0 -1.853401,-0.62752955 -0.690769,-0.62752951 -0.700498,-1.72692241 v -4.8256536 h 0.924268 v 4.7964662 q 0,0.7686021 0.423218,1.1966843 0.423217,0.42321754 1.206413,0.42321754 0.792925,0 1.211278,-0.42321754 0.423218,-0.4232176 0.423218,-1.1918197 v -4.8013308 z"
               inkscape:connector-curvature="0" /><path
               id="path193"
               d="m 33.940917,0 v -7.0828142 h 1.999339 q 0.924268,0 1.634495,0.4086239 0.710228,0.4086239 1.094529,1.1626322 0.389165,0.7540084 0.39403,1.731787 v 0.4524051 q 0,1.0021014 -0.389166,1.7561098 -0.384301,0.7540084 -1.104257,1.15776773 Q 36.854795,-0.00972914 35.901339,0 Z m 0.933998,-6.3142121 v 5.55047458 h 0.982643 q 1.079935,0 1.678277,-0.67131068 0.603206,-0.6713107 0.603206,-1.9117761 v -0.4134885 q 0,-1.2064134 -0.569154,-1.8728595 -0.56429,-0.6713107 -1.605308,-0.6810398 z"
               inkscape:connector-curvature="0" /><path
               id="path195"
               d="m 40.094978,-2.6803782 q 0,-0.7734667 0.301603,-1.3912671 0.306468,-0.6178004 0.846435,-0.9534557 0.544832,-0.3356554 1.240466,-0.3356554 1.07507,0 1.736651,0.7442793 0.666446,0.7442792 0.666446,1.97988 v 0.063239 q 0,0.768602 -0.296738,1.3815379 -0.291875,0.60807127 -0.841571,0.94859119 -0.544832,0.34051991 -1.255059,0.34051991 -1.070206,0 -1.736652,-0.74427924 -0.661581,-0.74427926 -0.661581,-1.97015096 z m 0.90481,0.1070206 q 0,0.8756226 0.403759,1.4058607 0.408624,0.5302382 1.089664,0.5302382 0.685904,0 1.089664,-0.5351027 0.403759,-0.5399673 0.403759,-1.5080168 0,-0.8658935 -0.413489,-1.4009962 -0.408624,-0.5399673 -1.089663,-0.5399673 -0.666446,0 -1.07507,0.5302381 -0.408624,0.5302382 -0.408624,1.517746 z"
               inkscape:connector-curvature="0" /><path
               id="path197"
               d="m 48.559206,-4.4559463 q -0.204312,-0.034052 -0.442676,-0.034052 -0.885352,0 -1.201549,0.7540084 V 0 h -0.899945 v -5.263465 h 0.875622 l 0.01459,0.6080713 q 0.442676,-0.7053627 1.255059,-0.7053627 0.262687,0 0.398895,0.068104 z"
               inkscape:connector-curvature="0" /><path
               id="path199"
               d="m 50.846505,-6.5379824 v 1.2745174 h 0.982643 v 0.6956336 h -0.982643 v 3.2641266 q 0,0.31619705 0.131343,0.47672786 0.131344,0.15566625 0.447541,0.15566625 0.155666,0 0.428082,-0.0583748 V 0 q -0.355114,0.0972914 -0.690769,0.0972914 -0.603207,0 -0.909675,-0.36484276 -0.306468,-0.36484277 -0.306468,-1.03615344 v -3.2641266 h -0.95832 V -5.263465 h 0.95832 v -1.2745174 z"
               inkscape:connector-curvature="0" /><path
               id="path201"
               d="m 53.726728,-5.263465 0.02432,0.5837484 q 0.578884,-0.6810398 1.561527,-0.6810398 1.104257,0 1.503152,0.8464352 0.262687,-0.3794364 0.68104,-0.6129358 0.423218,-0.2334994 0.997237,-0.2334994 1.731787,0 1.760974,1.833943 V 0 h -0.899945 v -3.4733031 q 0,-0.5642902 -0.257822,-0.8415707 -0.257823,-0.2821451 -0.865894,-0.2821451 -0.501051,0 -0.831841,0.3016034 -0.330791,0.2967388 -0.384301,0.8026541 V 0 h -0.90481 v -3.4489803 q 0,-1.1480386 -1.123716,-1.1480386 -0.885352,0 -1.211278,0.7540084 V 0 h -0.899946 v -5.263465 z"
               inkscape:connector-curvature="0" /><path
               id="path203"
               d="m 64.86208,-0.52050901 q -0.525374,0.61780041 -1.542069,0.61780041 -0.841571,0 -1.284246,-0.48645702 -0.437812,-0.49132159 -0.442676,-1.44964188 V -5.263465 h 0.899945 v 3.4003346 q 0,1.19668428 0.972914,1.19668428 1.031289,0 1.371809,-0.76860208 V -5.263465 h 0.899945 V 0 h -0.856164 z"
               inkscape:connector-curvature="0" /><path
               id="path205"
               d="m 67.956252,-5.263465 0.02919,0.6615816 q 0.603207,-0.758873 1.576121,-0.758873 1.668547,0 1.683141,1.8825887 V 0 h -0.899945 v -3.4830323 q -0.0049,-0.5691547 -0.262687,-0.8415706 -0.252958,-0.272416 -0.792925,-0.272416 -0.437811,0 -0.768602,0.2334994 -0.330791,0.2334994 -0.515645,0.6129359 V 0 h -0.899945 v -5.263465 z"
               inkscape:connector-curvature="0" /><path
               id="path207"
               d="m 72.383429,-2.6755136 q 0,-1.211278 0.57402,-1.9458281 0.574019,-0.7394147 1.503152,-0.7394147 0.924268,0 1.464235,0.6323941 v -2.7436176 h 0.899946 V 0 h -0.826977 l -0.04378,-0.56429015 q -0.539967,0.66158155 -1.503152,0.66158155 -0.91454,0 -1.493423,-0.74914381 -0.57402,-0.74914379 -0.57402,-1.95555719 z m 0.899946,0.102156 q 0,0.8950809 0.369707,1.4009962 0.369708,0.50591528 1.02156,0.50591528 0.856164,0 1.250194,-0.76860208 v -2.4176914 q -0.403759,-0.7442793 -1.240465,-0.7442793 -0.661581,0 -1.031289,0.5107799 -0.369707,0.5107799 -0.369707,1.5128814 z"
               inkscape:connector-curvature="0" /></g><g
             transform="translate(60.213,38.238)"
             id="g60" /></g></g><g
         transform="translate(-31.867,-9.71)"
         id="g62" /></g></g></svg>