<?xml version="1.0" encoding="UTF-8" standalone="no"?>
<!-- Created with Inkscape (http://www.inkscape.org/) -->

<svg
   xmlns:dc="http://purl.org/dc/elements/1.1/"
   xmlns:cc="http://creativecommons.org/ns#"
   xmlns:rdf="http://www.w3.org/1999/02/22-rdf-syntax-ns#"
   xmlns:svg="http://www.w3.org/2000/svg"
   xmlns="http://www.w3.org/2000/svg"
   xmlns:sodipodi="http://sodipodi.sourceforge.net/DTD/sodipodi-0.dtd"
   xmlns:inkscape="http://www.inkscape.org/namespaces/inkscape"
   width="218.72221mm"
   height="128.09679mm"
   viewBox="0 0 218.72221 128.09679"
   version="1.1"
   id="svg8"
   sodipodi:docname="logo2_gray.svg"
   inkscape:version="0.92.3 (2405546, 2018-03-11)">
  <defs
     id="defs2" />
  <sodipodi:namedview
     id="base"
     pagecolor="#ffffff"
     bordercolor="#666666"
     borderopacity="1.0"
     inkscape:pageopacity="0.0"
     inkscape:pageshadow="2"
     inkscape:zoom="0.49497475"
     inkscape:cx="228.66183"
     inkscape:cy="307.31461"
     inkscape:document-units="mm"
     inkscape:current-layer="layer1"
     showgrid="false"
     inkscape:window-width="1920"
     inkscape:window-height="1052"
     inkscape:window-x="1920"
     inkscape:window-y="0"
     inkscape:window-maximized="1"
     units="mm"
     fit-margin-top="0"
     fit-margin-left="0"
     fit-margin-right="0"
     fit-margin-bottom="0" />
  <metadata
     id="metadata5">
    <rdf:RDF>
      <cc:Work
         rdf:about="">
        <dc:format>image/svg+xml</dc:format>
        <dc:type
           rdf:resource="http://purl.org/dc/dcmitype/StillImage" />
        <dc:title></dc:title>
      </cc:Work>
    </rdf:RDF>
  </metadata>
  <g
     inkscape:label="Layer 1"
     inkscape:groupmode="layer"
     id="layer1"
     transform="translate(40.892919,-34.380538)">
    <g
       id="g3896"
       transform="translate(-104.32143,-143.63095)" />
    <g
       id="g4368"
       transform="translate(-130.42753,-49.712132)">
      <path
         style="fill:#fdb036;stroke-width:0.35277775"
         d="m 170.85526,210.24917 v -1.94028 h 68.96805 68.96806 v 1.94028 1.94028 h -68.96806 -68.96805 z m 67.38055,-9.54619 c -6.67042,-1.43781 -11.71995,-6.02147 -13.96745,-12.67881 -1.24088,-3.67562 -1.57488,-10.53593 -0.71278,-14.64027 2.17986,-10.37803 10.23198,-16.34297 21.26877,-15.75574 9.52905,0.50702 16.11207,5.93423 18.26185,15.05553 0.80454,3.41358 0.72979,10.4662 -0.14728,13.8955 -1.91422,7.48451 -7.11222,12.62614 -14.29616,14.14113 -3.05153,0.64352 -7.37444,0.63632 -10.40695,-0.0174 z m 7.86064,-10.1639 c 1.49365,-0.63643 2.50955,-1.77983 3.49213,-3.93041 0.71742,-1.57022 0.80466,-2.30975 0.81098,-6.87477 0.009,-6.63409 -0.74803,-9.07206 -3.4363,-11.06359 -1.40835,-1.04334 -4.95533,-1.20335 -6.61078,-0.29823 -2.69932,1.47587 -4.21435,5.42989 -4.22721,11.03244 -0.014,6.10982 1.585,10.0276 4.58017,11.22194 1.28991,0.51435 4.08512,0.46905 5.39101,-0.0874 z m -71.00786,-18.3899 v -28.39861 h 6.87466 6.87465 l 0.0927,12.40511 0.0927,12.40511 1.36972,-2.08636 c 0.75335,-1.1475 4.55571,-6.7298 8.44969,-12.40511 l 7.07997,-10.31875 h 8.41627 c 6.64093,0 8.35967,0.093 8.14795,0.44097 -0.14757,0.24253 -4.39027,5.82654 -9.42822,12.40889 -5.03795,6.58236 -9.15772,12.13861 -9.15505,12.34722 0.003,0.20862 4.23601,7.33082 9.40741,15.82712 5.1714,8.49631 9.40254,15.52099 9.40254,15.61042 0,0.0894 -3.61484,0.16259 -8.03298,0.16259 h -8.03298 l -5.97966,-10.40694 c -3.28882,-5.72382 -6.08843,-10.40694 -6.22136,-10.40694 -0.13294,0 -1.44725,1.32788 -2.92069,2.95085 l -2.67899,2.95086 v 7.45609 7.45608 h -6.87917 -6.87917 z m 94.19167,7.23194 v -21.16667 h 6.17361 6.17361 l 0.004,0.97014 c 0.002,0.53358 0.1016,1.56126 0.22103,2.28374 l 0.21715,1.3136 1.63105,-1.43799 c 3.24396,-2.86 6.9495,-4.04597 11.61946,-3.71887 6.63721,0.4649 10.27822,3.96301 11.5503,11.097 0.35847,2.01034 0.4885,6.5244 0.49759,17.27363 l 0.0123,14.55208 h -6.70277 -6.70278 l -7.1e-4,-14.55208 c -3.5e-4,-13.14754 -0.0601,-14.67125 -0.61736,-15.7868 -1.52831,-3.05935 -7.3211,-3.38195 -10.13843,-0.56462 l -0.88517,0.88532 v 15.0091 15.00908 h -6.52639 -6.52638 z"
         id="path4374"
         inkscape:connector-curvature="0" />
      <path
         style="fill:#387bca;stroke-width:0.35277775"
         d="M 90.069151,142.32023 V 84.09267 l 25.311809,0.119724 c 24.71039,0.116879 25.40264,0.138734 29.13485,0.919825 9.83818,2.058973 16.92753,6.115897 22.15641,12.679146 2.48131,3.114525 4.98563,8.082765 5.99644,11.896145 1.04174,3.93008 1.31319,13.12742 0.52216,17.69169 -2.39887,13.84162 -11.96402,23.15889 -26.89969,26.20259 -5.31239,1.08259 -11.87949,1.43113 -27.02962,1.43457 l -13.67014,0.003 v 22.75417 22.75416 h -7.761108 -7.761111 z m 48.922389,-0.36174 c 8.11139,-1.1198 14.33707,-5.1117 17.20388,-11.03112 1.31017,-2.70525 1.98432,-5.6368 2.20265,-9.57819 0.68086,-12.29171 -6.17682,-21.40202 -17.93674,-23.828604 -2.96589,-0.611994 -4.87895,-0.680646 -19.08315,-0.684816 l -15.78681,-0.0046 v 22.75416 22.75417 h 15.32031 c 9.03041,0 16.45326,-0.15641 18.07986,-0.38097 z m 112.10192,-37.01348 c 0,-6.305898 0.0478,-8.885585 0.1063,-5.732634 0.0585,3.152954 0.0585,8.312324 0,11.465274 -0.0585,3.15295 -0.1063,0.57327 -0.1063,-5.73264 z m -68.06737,-9.524995 c 0.35119,-0.388056 0.7179,-0.705555 0.81491,-0.705555 0.097,0 -0.11094,0.317499 -0.46213,0.705555 -0.35119,0.388056 -0.7179,0.705556 -0.81491,0.705556 -0.097,0 0.11095,-0.3175 0.46213,-0.705556 z m 10.36195,-0.264583 c -0.43881,-0.559526 -0.42634,-0.572003 0.13319,-0.133193 0.58764,0.460858 0.77452,0.750554 0.48417,0.750554 -0.0733,0 -0.35107,-0.277813 -0.61736,-0.617361 z"
         id="path4372"
         inkscape:connector-curvature="0" />
      <path
         style="fill:#555555;stroke-width:0.35277775"
         d="m 271.80557,151.30949 -2.17254,-3.37719 v -3.28149 -3.28149 l 1.10243,-0.22049 c 0.60634,-0.12127 5.26962,-0.22049 10.36285,-0.22049 5.09323,0 9.75651,0.0992 10.36285,0.22049 l 1.10243,0.22049 v 3.28149 3.28149 l -2.17253,3.37719 -2.17254,3.37719 h -7.12021 -7.12021 z m -1.73156,-13.80765 c -0.24254,-0.088 -0.44098,-0.37202 -0.44098,-0.63106 0,-1.19872 -4.12912,-8.50516 -6.84253,-12.10779 -4.98886,-6.62378 -5.84682,-8.99608 -5.85328,-16.18464 -0.005,-5.38772 0.37849,-7.57129 1.84549,-10.512502 2.40601,-4.823852 5.03182,-7.744971 9.70324,-10.794508 4.23403,-2.764 6.32503,-3.241262 13.40985,-3.060743 6.92174,0.176363 7.99849,0.492823 12.79073,3.759225 3.54873,2.418827 6.40871,5.655689 8.39204,9.497935 1.80864,3.503803 2.18594,5.426043 2.18083,11.110593 -0.006,7.18856 -0.86442,9.56086 -5.85328,16.18464 -2.70453,3.59085 -6.84253,10.90794 -6.84253,12.09944 0,0.69954 -0.62327,0.81639 -4.07112,0.76324 l -3.16083,-0.0487 0.0181,-1.61012 c 0.0288,-2.56625 3.89716,-10.08014 7.88564,-15.31701 4.25504,-5.58686 4.76272,-6.90038 4.78161,-12.37172 0.0147,-4.24626 0.0129,-4.25518 -1.36828,-7.05556 -3.30083,-6.692349 -9.74992,-10.487496 -16.89172,-9.940405 -3.02038,0.231373 -4.86295,0.824596 -7.52681,2.423281 -2.90638,1.74423 -4.81509,3.863358 -6.53505,7.255474 l -1.53012,3.01772 0.0147,4.27556 c 0.0189,5.49832 0.52218,6.80303 4.78161,12.39565 3.98849,5.23687 7.85687,12.75076 7.88565,15.31701 l 0.0181,1.61012 -3.175,0.0425 c -1.74625,0.0233 -3.37344,-0.0296 -3.61597,-0.11759 z m -68.79167,-12.34468 c -0.73032,-0.14067 -0.79375,-0.34454 -0.79375,-2.55134 v -2.39846 l 1.4385,-0.19294 c 1.69948,-0.22795 2.62954,-0.97603 3.14128,-2.52663 0.33499,-1.015 -0.0233,-2.27847 -3.51426,-12.39275 -2.13799,-6.19439 -3.88737,-11.302212 -3.8875,-11.350719 -1.3e-4,-0.04851 1.65537,-0.08819 3.67889,-0.08819 h 3.67914 l 0.53324,1.852083 c 0.29329,1.018646 1.03388,3.677708 1.64577,5.909036 0.61188,2.23132 1.22881,4.18025 1.37093,4.33095 0.14213,0.15071 1.02609,-2.38929 1.96435,-5.64444 0.93826,-3.255157 1.81298,-6.043364 1.94383,-6.196022 0.13084,-0.152659 1.83455,-0.232034 3.78602,-0.176389 l 3.54813,0.101171 -4.66871,13.40556 c -2.56779,7.37305 -4.92658,13.90258 -5.24176,14.51006 -1.46306,2.81987 -4.8113,4.14341 -8.6241,3.40903 z m 26.27048,-8.93251 c -3.63738,-0.91934 -6.10835,-3.20311 -6.76505,-6.25255 l -0.24691,-1.14653 h 3.22138 3.22139 l 0.37267,1.06905 c 0.92471,2.65262 6.2934,2.82352 6.2934,0.20034 0,-1.21826 -0.95641,-1.85321 -4.06015,-2.69546 -3.77758,-1.0251 -5.71481,-2.02924 -7.01567,-3.63649 -0.92961,-1.14858 -1.08325,-1.62737 -1.08325,-3.37582 0,-2.410612 0.92681,-4.035977 3.10777,-5.450136 3.50899,-2.275269 9.97729,-2.030402 13.21706,0.500353 1.29156,1.008905 2.53302,3.122831 2.53521,4.31691 l 0.002,0.982913 -3.43959,-0.10097 c -3.25881,-0.0957 -3.44548,-0.14252 -3.5519,-0.891615 -0.38161,-2.68646 -5.35569,-2.287347 -5.35569,0.429735 0,1.16284 1.00635,1.74903 4.23333,2.46588 6.08339,1.3514 8.4867,3.69184 8.02225,7.81239 -0.38214,3.39039 -3.66935,5.67395 -8.56595,5.95062 -1.54423,0.0872 -3.40816,0.007 -4.14207,-0.17862 z M 175.44137,100.18251 V 84.131127 h 3.52778 3.52778 v 6.063223 6.063224 l 0.97013,-0.929232 c 3.58733,-3.436061 9.43885,-2.319639 11.51353,2.196685 0.66667,1.451269 0.74623,2.390283 0.8603,10.154013 l 0.12569,8.55486 h -3.55983 -3.55982 v -7.56812 c 0,-4.87339 -0.14191,-7.87957 -0.39854,-8.44282 -0.77296,-1.696449 -3.76756,-2.083891 -5.31095,-0.687135 -0.58323,0.527805 -0.64051,1.300495 -0.64051,8.638865 v 8.05921 h -3.52778 -3.52778 z m 68.79166,4.7625 V 93.656126 h 3.35139 3.35139 v 11.288884 11.28889 h -3.35139 -3.35139 z m 23.98281,5.02742 c -0.67175,-0.85398 -0.73544,-1.24369 -0.53332,-3.26319 0.30291,-3.02666 1.53658,-5.50693 3.92914,-7.899491 2.41151,-2.411511 4.86826,-3.625629 7.96471,-3.936125 2.21586,-0.222197 2.41336,-0.181764 3.26319,0.668071 1.82843,1.828425 0.69928,4.212898 -2.16783,4.577905 -2.77626,0.35345 -3.29759,0.5236 -4.5641,1.48961 -1.8922,1.44325 -2.98705,3.37749 -3.26997,5.77696 -0.29986,2.54319 -1.0702,3.55607 -2.70453,3.55607 -0.83911,0 -1.36281,-0.2649 -1.91729,-0.96981 z M 245.77009,90.836874 c -1.12529,-0.45411 -1.88983,-1.758842 -1.88983,-3.225105 0,-1.812671 1.55751,-3.127864 3.70416,-3.127864 2.87008,0 4.61145,2.584449 3.34094,4.958429 -0.76484,1.429098 -3.34207,2.12626 -5.15527,1.39454 z"
         id="path4370"
         inkscape:connector-curvature="0" />
    </g>
  </g>
</svg>
