<?xml version="1.0" encoding="UTF-8" standalone="no"?>
<!-- Created with Inkscape (http://www.inkscape.org/) -->

<svg
   xmlns:dc="http://purl.org/dc/elements/1.1/"
   xmlns:cc="http://creativecommons.org/ns#"
   xmlns:rdf="http://www.w3.org/1999/02/22-rdf-syntax-ns#"
   xmlns:svg="http://www.w3.org/2000/svg"
   xmlns="http://www.w3.org/2000/svg"
   xmlns:sodipodi="http://sodipodi.sourceforge.net/DTD/sodipodi-0.dtd"
   xmlns:inkscape="http://www.inkscape.org/namespaces/inkscape"
   width="218.72221mm"
   height="128.09679mm"
   viewBox="0 0 218.72221 128.09679"
   version="1.1"
   id="svg8"
   sodipodi:docname="logo2.svg"
   inkscape:version="0.92.3 (2405546, 2018-03-11)">
  <defs
     id="defs2" />
  <sodipodi:namedview
     id="base"
     pagecolor="#ffffff"
     bordercolor="#666666"
     borderopacity="1.0"
     inkscape:pageopacity="0.0"
     inkscape:pageshadow="2"
     inkscape:zoom="0.49497475"
     inkscape:cx="230.70255"
     inkscape:cy="307.93403"
     inkscape:document-units="mm"
     inkscape:current-layer="layer1"
     showgrid="false"
     inkscape:window-width="1920"
     inkscape:window-height="1052"
     inkscape:window-x="1920"
     inkscape:window-y="0"
     inkscape:window-maximized="1"
     units="mm"
     fit-margin-top="0"
     fit-margin-left="0"
     fit-margin-right="0"
     fit-margin-bottom="0" />
  <metadata
     id="metadata5">
    <rdf:RDF>
      <cc:Work
         rdf:about="">
        <dc:format>image/svg+xml</dc:format>
        <dc:type
           rdf:resource="http://purl.org/dc/dcmitype/StillImage" />
        <dc:title></dc:title>
      </cc:Work>
    </rdf:RDF>
  </metadata>
  <g
     inkscape:label="Layer 1"
     inkscape:groupmode="layer"
     id="layer1"
     transform="translate(41.43286,-34.544405)">
    <g
       id="g3896"
       transform="translate(-104.32143,-143.63095)" />
    <g
       id="g4279"
       transform="translate(-20.847023,-21.916105)">
      <path
         style="fill:#fdb036;stroke-width:0.35277775"
         d="m 60.200272,182.61701 v -1.94028 h 68.968048 68.96806 v 1.94028 1.94028 H 129.16832 60.200272 Z m 67.380548,-9.54619 c -6.69932,-1.44404 -11.71021,-5.99262 -13.96744,-12.67881 -1.24089,-3.67562 -1.57489,-10.53593 -0.71279,-14.64027 2.17986,-10.37803 10.23198,-16.34297 21.26877,-15.75574 9.62182,0.51195 16.2493,6.03761 18.30068,15.25817 0.74256,3.33767 0.55046,12.02395 -0.32539,14.71331 -1.61899,4.97119 -5.30709,9.47715 -9.39438,11.47761 -4.23912,2.07477 -10.14821,2.70806 -15.16945,1.62573 z m 7.86064,-10.1639 c 1.49366,-0.63643 2.50955,-1.77983 3.49213,-3.93041 0.71742,-1.57022 0.80466,-2.30975 0.81098,-6.87477 0.009,-6.63409 -0.74803,-9.07206 -3.43629,-11.06359 -1.40836,-1.04334 -4.95534,-1.20335 -6.61079,-0.29823 -3.00763,1.64444 -4.44149,5.96538 -4.12149,12.42015 0.27498,5.54643 1.72961,8.74396 4.47427,9.83519 1.2915,0.51347 4.08627,0.46768 5.39119,-0.0883 z m -71.007855,-18.3899 v -28.39861 h 6.874654 6.874651 l 0.09271,12.40511 0.09271,12.40511 1.370869,-2.08636 c 0.753982,-1.1475 4.552559,-6.7298 8.441281,-12.40511 l 7.070411,-10.31875 h 8.424679 c 6.64765,0 8.36808,0.093 8.15636,0.44097 -0.14758,0.24253 -4.39028,5.82654 -9.42823,12.40889 -5.037949,6.58236 -9.157335,12.13861 -9.154192,12.34722 0.0032,0.20862 4.236477,7.32934 9.407402,15.82382 5.17093,8.49448 9.40169,15.51917 9.40169,15.61041 0,0.0913 -3.61484,0.1659 -8.03298,0.1659 h -8.032972 l -5.979664,-10.40694 c -3.288817,-5.72382 -6.088429,-10.40694 -6.221363,-10.40694 -0.132934,0 -1.447246,1.32788 -2.920689,2.95085 l -2.678991,2.95086 v 7.45609 7.45608 h -6.879167 -6.879166 z m 94.191665,7.23194 v -21.16667 h 6.17361 6.17361 l 0.004,0.97014 c 0.002,0.53358 0.1016,1.56126 0.22103,2.28374 l 0.21716,1.3136 1.63105,-1.43799 c 3.24395,-2.86 6.94949,-4.04597 11.61945,-3.71887 6.63722,0.4649 10.27822,3.96301 11.5503,11.097 0.35847,2.01034 0.4885,6.5244 0.49759,17.27363 l 0.0123,14.55208 h -6.70278 -6.70278 l -7e-4,-14.55208 c -3.6e-4,-13.14754 -0.0601,-14.67125 -0.61736,-15.7868 -1.52832,-3.05935 -7.32111,-3.38195 -10.13844,-0.56462 l -0.88516,0.88532 v 15.0091 15.00908 h -6.52639 -6.52639 z"
         id="path4285"
         inkscape:connector-curvature="0" />
      <path
         style="fill:#387bca;stroke-width:0.35277775"
         d="M -20.585837,114.68807 V 56.46051 l 25.311805,0.119724 c 24.710393,0.116879 25.402641,0.138734 29.13485,0.919825 12.505591,2.617217 21.289768,8.963164 25.96027,18.754462 2.571066,5.390014 2.988582,7.599852 2.999366,15.874999 0.01027,7.89286 -0.236078,9.50091 -2.255795,14.72399 -3.35801,8.68397 -11.033555,15.2599 -21.276175,18.22809 -6.288161,1.82224 -9.021759,2.0453 -27.330572,2.23012 l -17.021527,0.17182 v 22.71604 22.71604 h -7.761111 -7.761111 z m 48.67785,-0.35376 c 8.20403,-1.0287 14.542452,-5.03883 17.44842,-11.0391 1.310171,-2.70525 1.984322,-5.636795 2.202645,-9.57819 C 48.423947,81.425308 41.566257,72.315 29.806347,69.888416 26.840449,69.276422 24.927388,69.20777 10.72319,69.2036 L -5.063615,69.199 V 91.953131 114.7073 h 15.090503 c 8.494571,0 16.390686,-0.16303 18.065125,-0.37299 z m 135.262237,11.92646 -0.67204,-0.79375 0.88195,0.70179 c 0.48507,0.38599 0.94809,0.74318 1.02893,0.79375 0.0808,0.0506 -0.0136,0.092 -0.20991,0.092 -0.19629,0 -0.65931,-0.35719 -1.02893,-0.79375 z m 12.9393,0.70179 c 0.0808,-0.0506 0.54387,-0.40776 1.02894,-0.79375 l 0.88194,-0.70179 -0.67203,0.79375 c -0.36962,0.43656 -0.83264,0.79375 -1.02894,0.79375 -0.19629,0 -0.29075,-0.0414 -0.20991,-0.092 z m -16.80618,-9.96221 0.0198,-3.175 h 10.93611 10.93611 l 0.0198,3.175 0.0198,3.175 -0.12127,-3.0868 -0.12127,-3.08681 H 170.4432 159.70996 l -0.12128,3.08681 -0.12127,3.0868 0.0198,-3.175 z m 6.22131,-8.84884 c 0.0169,-0.41097 0.10052,-0.49456 0.21313,-0.21314 0.10191,0.25466 0.0894,0.55893 -0.0278,0.67616 -0.11723,0.11723 -0.20061,-0.0911 -0.18529,-0.46302 z m 9.17222,0 c 0.0169,-0.41097 0.10052,-0.49456 0.21313,-0.21314 0.10191,0.25466 0.0894,0.55893 -0.0278,0.67616 -0.11723,0.11723 -0.20061,-0.0911 -0.18529,-0.46302 z m -18.01952,-4.38032 c -0.20768,-0.38806 -0.29823,-0.70556 -0.20121,-0.70556 0.097,0 0.34631,0.3175 0.55399,0.70556 0.20768,0.38805 0.29822,0.70555 0.20121,0.70555 -0.097,0 -0.34631,-0.3175 -0.55399,-0.70555 z m 26.81111,0 c 0.20768,-0.38806 0.45698,-0.70556 0.55399,-0.70556 0.097,0 0.006,0.3175 -0.20121,0.70556 -0.20768,0.38805 -0.45698,0.70555 -0.55399,0.70555 -0.097,0 -0.006,-0.3175 0.20121,-0.70555 z m -20.05103,-1.24984 c -0.59107,-1.29726 -0.4783,-1.57402 0.16082,-0.39467 0.29846,0.55073 0.47664,1.06734 0.39596,1.14802 -0.0807,0.0807 -0.33123,-0.25832 -0.55678,-0.75335 z m 13.02048,0.72067 c 0,-0.19403 0.22687,-0.74965 0.50416,-1.23472 0.27729,-0.48507 0.50417,-0.7232 0.50417,-0.52917 0,0.19403 -0.22688,0.74965 -0.50417,1.23472 -0.27729,0.48507 -0.50416,0.7232 -0.50416,0.52917 z m -24.57658,-6.614584 -0.67204,-0.79375 0.79375,0.672038 c 0.43657,0.36962 0.79375,0.726807 0.79375,0.79375 0,0.282311 -0.28391,0.07389 -0.91546,-0.672038 z m 36.36963,0.08819 c 0.35119,-0.388056 0.7179,-0.705556 0.81491,-0.705556 0.097,0 -0.11095,0.3175 -0.46213,0.705556 -0.35119,0.388055 -0.7179,0.705555 -0.81491,0.705555 -0.097,0 0.11094,-0.3175 0.46213,-0.705555 z m -29.50194,-2.028473 c -0.43881,-0.559526 -0.42634,-0.572004 0.13319,-0.133194 0.58764,0.460858 0.77452,0.750555 0.48417,0.750555 -0.0733,0 -0.35107,-0.277812 -0.61736,-0.617361 z m 22.27,0.484167 c 0,-0.07325 0.27781,-0.351067 0.61736,-0.617361 0.55952,-0.43881 0.572,-0.426332 0.13319,0.133194 -0.46086,0.58764 -0.75055,0.774517 -0.75055,0.484167 z m -23.49324,-2.071666 -0.67204,-0.79375 0.79375,0.672038 c 0.43656,0.369619 0.79375,0.726807 0.79375,0.79375 0,0.28231 -0.28391,0.07389 -0.91546,-0.672038 z m 25.08074,0.08819 c 0.35118,-0.388056 0.71789,-0.705555 0.8149,-0.705555 0.097,0 -0.11094,0.317499 -0.46213,0.705555 -0.35118,0.388056 -0.71789,0.705555 -0.81491,0.705555 -0.097,0 0.11095,-0.317499 0.46214,-0.705555 z m 8.88837,-1.230291 c 0.32268,-0.676663 0.64932,-1.167663 0.72586,-1.091117 0.16139,0.161382 -0.90953,2.321408 -1.15092,2.321408 -0.0889,0 0.10239,-0.553632 0.42506,-1.230291 z M 90.274576,92.239117 c 0.339549,-0.08873 0.895174,-0.08873 1.234722,0 0.339549,0.08873 0.06174,0.161336 -0.617361,0.161336 -0.679097,0 -0.956909,-0.0726 -0.617361,-0.161336 z m 58.456744,-0.49259 c -0.21657,-0.404672 -0.32732,-0.802217 -0.24611,-0.883434 0.0812,-0.08122 0.3288,0.24988 0.55019,0.735768 0.48615,1.06699 0.24945,1.181939 -0.30408,0.147666 z m 7.3795,-0.587146 c -0.43881,-0.559527 -0.42633,-0.572004 0.1332,-0.133195 0.58764,0.460858 0.77451,0.750556 0.48416,0.750556 -0.0733,0 -0.35106,-0.277812 -0.61736,-0.617361 z m 27.91445,0.484166 c 0,-0.07325 0.27781,-0.351067 0.61736,-0.617361 0.55953,-0.438809 0.572,-0.426332 0.13319,0.133195 -0.46086,0.587639 -0.75055,0.774516 -0.75055,0.484166 z m -61.80226,-2.930013 c 0.25466,-0.101907 0.55894,-0.08938 0.67616,0.02783 0.11723,0.117228 -0.0911,0.200604 -0.46302,0.185286 -0.41097,-0.01693 -0.49456,-0.10052 -0.21314,-0.213134 z m 11.1599,-11.40068 c 0,-6.305902 0.0478,-8.885589 0.10631,-5.732638 0.0585,3.152951 0.0585,8.312326 0,11.465277 -0.0585,3.152951 -0.10631,0.573264 -0.10631,-5.732639 z m 7.05556,0 c 0,-6.305902 0.0478,-8.885589 0.10631,-5.732638 0.0585,3.152951 0.0585,8.312326 0,11.465277 -0.0585,3.152951 -0.10631,0.573264 -0.10631,-5.732639 z m 13.82066,10.746083 c -0.34043,-0.887126 -0.24,-1.11603 0.17587,-0.400875 0.20591,0.3541 0.30007,0.718135 0.20924,0.808965 -0.0908,0.09083 -0.26413,-0.09281 -0.38511,-0.40809 z m 31.89361,0.366416 c 0,-0.194027 0.15388,-0.590902 0.34197,-0.881944 0.18809,-0.291042 0.34197,-0.370417 0.34197,-0.176389 0,0.194028 -0.15388,0.590903 -0.34197,0.881944 -0.18809,0.291042 -0.34197,0.370417 -0.34197,0.176389 z m -33.14406,-4.615507 c 0.0169,-0.410969 0.10052,-0.494559 0.21313,-0.213138 0.10191,0.25466 0.0894,0.55893 -0.0278,0.676158 -0.11723,0.117225 -0.20061,-0.09114 -0.18529,-0.46302 z m 34.57222,0 c 0.0169,-0.410969 0.10052,-0.494559 0.21313,-0.213138 0.10191,0.25466 0.0894,0.55893 -0.0278,0.676158 -0.11723,0.117225 -0.20061,-0.09114 -0.18529,-0.46302 z m -65.64452,0.07259 c 0,-0.07325 0.27781,-0.351067 0.61736,-0.617361 0.55953,-0.43881 0.57201,-0.426332 0.1332,0.133194 -0.46086,0.58764 -0.75056,0.774517 -0.75056,0.484167 z m 24.36952,-0.425369 c 0.0169,-0.410969 0.10052,-0.494559 0.21313,-0.213138 0.10191,0.25466 0.0894,0.558931 -0.0278,0.676159 -0.11723,0.117224 -0.20061,-0.09114 -0.18529,-0.463021 z m 47.97777,0 c 0.0169,-0.410969 0.10052,-0.494559 0.21314,-0.213138 0.10191,0.25466 0.0894,0.558931 -0.0278,0.676159 -0.11722,0.117224 -0.2006,-0.09114 -0.18528,-0.463021 z m -36.5423,-1.207488 c -0.90181,-0.996484 -0.51799,-1.089127 0.43032,-0.103865 0.42963,0.44637 0.65267,0.811583 0.49565,0.811583 -0.15702,0 -0.57371,-0.318473 -0.92597,-0.707718 z m 30.2463,-1.408948 c 0,-0.679097 0.0726,-0.95691 0.16133,-0.617361 0.0887,0.339548 0.0887,0.895173 0,1.234722 -0.0887,0.339548 -0.16133,0.06174 -0.16133,-0.617361 z m -35.29085,-0.176389 c 0.007,-0.582083 0.0863,-0.7775 0.1757,-0.434258 0.0894,0.343241 0.0836,0.819491 -0.0131,1.058332 -0.0966,0.238841 -0.16982,-0.04199 -0.16263,-0.624074 z m 8.81944,0 c 0.007,-0.582083 0.0863,-0.7775 0.1757,-0.434258 0.0894,0.343241 0.0836,0.819491 -0.0131,1.058332 -0.0966,0.238841 -0.16981,-0.04199 -0.16262,-0.624074 z m -4.2464,-1.5875 c 0,-0.485069 0.0801,-0.683507 0.17793,-0.440972 0.0979,0.242535 0.0979,0.639409 0,0.881944 -0.0979,0.242535 -0.17793,0.0441 -0.17793,-0.440972 z M 146.33375,78.01841 c 0,-0.48507 0.0801,-0.683507 0.17793,-0.440972 0.0979,0.242534 0.0979,0.639409 0,0.881944 -0.0979,0.242535 -0.17793,0.0441 -0.17793,-0.440972 z m 47.97777,0 c 0,-0.48507 0.0801,-0.683507 0.17794,-0.440972 0.0979,0.242534 0.0979,0.639409 0,0.881944 -0.0979,0.242535 -0.17794,0.0441 -0.17794,-0.440972 z M 97.594715,77.99759 c 0,-0.205479 0.15875,-0.275485 0.352778,-0.155569 0.194027,0.119916 0.352777,0.288034 0.352777,0.373598 0,0.08556 -0.15875,0.155568 -0.352777,0.155568 -0.194028,0 -0.352778,-0.168119 -0.352778,-0.373597 z m 30.128985,-0.420152 -0.67204,-0.79375 0.79375,0.672037 c 0.43656,0.36962 0.79375,0.726808 0.79375,0.79375 0,0.282311 -0.28391,0.07389 -0.91546,-0.672037 z m 25.28498,-0.117593 c 0.0169,-0.410966 0.10052,-0.494559 0.21313,-0.213137 0.10191,0.254662 0.0894,0.558933 -0.0278,0.676158 -0.11723,0.117225 -0.20061,-0.09113 -0.18529,-0.463021 z m 34.57222,0 c 0.0169,-0.410966 0.10052,-0.494559 0.21313,-0.213137 0.10191,0.254662 0.0894,0.558933 -0.0278,0.676158 -0.11723,0.117225 -0.20061,-0.09113 -0.18529,-0.463021 z m -23.66397,-2.792824 c 0.45571,-0.485069 0.90792,-0.881944 1.00494,-0.881944 0.097,0 -0.19646,0.396875 -0.65216,0.881944 -0.4557,0.48507 -0.90792,0.881945 -1.00493,0.881945 -0.097,0 0.19645,-0.396875 0.65215,-0.881945 z m -46.25888,-1.146528 c -0.43881,-0.559525 -0.42633,-0.572003 0.13319,-0.133193 0.58764,0.460858 0.77452,0.750555 0.48417,0.750555 -0.0733,0 -0.35107,-0.277813 -0.61736,-0.617362 z m -32.707635,-0.79375 c 0,-0.485069 0.08007,-0.683506 0.177938,-0.440972 0.09786,0.242535 0.09786,0.63941 0,0.881945 -0.09786,0.242534 -0.177938,0.0441 -0.177938,-0.440973 z m 69.441525,0.373598 c 0,-0.182577 0.15693,-0.428947 0.34873,-0.547489 0.19998,-0.123592 0.25912,0.01801 0.13865,0.331958 -0.23452,0.611158 -0.48738,0.722978 -0.48738,0.215531 z m 4.93888,0.198765 c 0,-0.07326 0.27782,-0.351069 0.61736,-0.617361 0.55953,-0.43881 0.57201,-0.426332 0.1332,0.133193 -0.46086,0.587639 -0.75056,0.774516 -0.75056,0.484168 z m 10.84792,-1.511556 c 0.24253,-0.09786 0.63941,-0.09786 0.88194,0 0.24254,0.09786 0.0441,0.177936 -0.44097,0.177936 -0.48507,0 -0.6835,-0.08007 -0.44097,-0.177936 z m -52.82847,-0.252333 c 0,-0.07326 0.27781,-0.351069 0.61736,-0.617361 0.55953,-0.43881 0.57201,-0.426332 0.1332,0.133193 -0.46086,0.587639 -0.75056,0.774516 -0.75056,0.484168 z M 74.399577,71.072454 c 0.339548,-0.08873 0.895173,-0.08873 1.234722,0 0.339548,0.08873 0.06174,0.161333 -0.617361,0.161333 -0.679097,0 -0.95691,-0.0726 -0.617361,-0.161333 z m 87.753473,-0.59557 c 0,-0.07326 0.27781,-0.351069 0.61736,-0.617361 0.55952,-0.43881 0.572,-0.426332 0.13319,0.133193 -0.46086,0.587639 -0.75055,0.774516 -0.75055,0.484168 z m 10.29933,-0.748751 c 0.007,-0.582084 0.0863,-0.7775 0.17569,-0.434258 0.0894,0.343241 0.0836,0.819491 -0.0131,1.058333 -0.0966,0.238842 -0.16979,-0.04199 -0.1626,-0.624075 z m -15.76739,-0.176389 c 0.35119,-0.388056 0.7179,-0.705556 0.81491,-0.705556 0.097,0 -0.11094,0.3175 -0.46213,0.705556 -0.35119,0.388055 -0.7179,0.705555 -0.81491,0.705555 -0.097,0 0.11094,-0.3175 0.46213,-0.705555 z m 25.92917,-1.234722 c -0.85691,-0.873125 -1.47864,-1.5875 -1.38163,-1.5875 0.097,0 0.8775,0.714375 1.7344,1.5875 0.85691,0.873125 1.47864,1.5875 1.38163,1.5875 -0.097,0 -0.8775,-0.714375 -1.7344,-1.5875 z m -70.20278,0 c 0.4557,-0.48507 0.90792,-0.881945 1.00493,-0.881945 0.097,0 -0.19645,0.396875 -0.65215,0.881945 -0.4557,0.485069 -0.90792,0.881944 -1.00493,0.881944 -0.097,0 0.19645,-0.396875 0.65215,-0.881944 z M 72.371105,67.787855 C 72.722291,67.399799 73.089,67.0823 73.186014,67.0823 c 0.09701,0 -0.110945,0.317499 -0.462132,0.705555 -0.351186,0.388056 -0.717895,0.705555 -0.814909,0.705555 -0.09701,0 0.110945,-0.317499 0.462132,-0.705555 z m 10.197037,-0.440972 -0.672038,-0.79375 0.79375,0.672037 c 0.745928,0.631549 0.954349,0.915463 0.672038,0.915463 -0.06694,0 -0.42413,-0.357188 -0.79375,-0.79375 z M 159.15443,67.0823 c 0.35119,-0.388056 0.7179,-0.705556 0.81491,-0.705556 0.097,0 -0.11094,0.3175 -0.46213,0.705556 -0.35118,0.388055 -0.71789,0.705555 -0.81491,0.705555 -0.097,0 0.11095,-0.3175 0.46213,-0.705555 z m 9.79444,0.452408 c 0.53624,-0.08109 1.32999,-0.07892 1.76389,0.0048 0.43389,0.08374 -0.005,0.15008 -0.97499,0.147432 -0.97014,-0.0026 -1.32514,-0.07116 -0.7889,-0.152248 z m -18.08471,-1.291157 c 0,-0.07326 0.27781,-0.351069 0.61736,-0.617361 0.55953,-0.43881 0.572,-0.426332 0.13319,0.133193 -0.46086,0.587639 -0.75055,0.774516 -0.75055,0.484168 z m 38.40777,-0.484168 c -0.43881,-0.559525 -0.42633,-0.572003 0.1332,-0.133193 0.58764,0.460858 0.77451,0.750554 0.48416,0.750554 -0.0733,0 -0.35106,-0.277812 -0.61736,-0.617361 z m -35.93833,-2.38125 c 0.65821,-0.679097 1.27612,-1.234722 1.37313,-1.234722 0.097,0 -0.36214,0.555625 -1.02035,1.234722 -0.65821,0.679097 -1.27611,1.234722 -1.37313,1.234722 -0.097,0 0.36215,-0.555625 1.02035,-1.234722 z m 34.02086,0.08819 -1.03614,-1.146528 1.14653,1.03614 c 0.63059,0.569877 1.14653,1.085815 1.14653,1.146528 0,0.272542 -0.29109,0.03258 -1.25692,-1.03614 z m -21.73978,0.199984 c 0.25466,-0.101907 0.55893,-0.08937 0.67616,0.02785 0.11722,0.117225 -0.0911,0.200604 -0.46302,0.185286 -0.41097,-0.01693 -0.49456,-0.100521 -0.21314,-0.213137 z m 9.17222,0 c 0.25466,-0.101907 0.55893,-0.08937 0.67616,0.02785 0.11722,0.117225 -0.0911,0.200604 -0.46302,0.185286 -0.41097,-0.01693 -0.49456,-0.100521 -0.21314,-0.213137 z m -7.78316,-0.345428 c 0.24253,-0.09786 0.63941,-0.09786 0.88194,0 0.24254,0.09786 0.0441,0.177936 -0.44097,0.177936 -0.48507,0 -0.6835,-0.08007 -0.44097,-0.177936 z m 5.99722,0 c 0.24254,-0.09786 0.63941,-0.09786 0.88195,0 0.24253,0.09786 0.0441,0.177936 -0.44098,0.177936 -0.48507,0 -0.6835,-0.08007 -0.44097,-0.177936 z m -2.9919,-0.363612 c 0.34325,-0.08944 0.8195,-0.08356 1.05834,0.01307 0.23884,0.09663 -0.042,0.169816 -0.62408,0.162626 -0.58208,-0.0072 -0.7775,-0.08625 -0.43426,-0.175698 z M 185.0386,61.52605 c -0.43881,-0.559525 -0.42633,-0.572003 0.1332,-0.133193 0.33954,0.266292 0.61736,0.544105 0.61736,0.617361 0,0.290348 -0.2897,0.103471 -0.75056,-0.484168 z m -29.58833,0.13139 c 0,-0.07326 0.27781,-0.351069 0.61736,-0.617361 0.55953,-0.43881 0.572,-0.426332 0.13319,0.133193 -0.46085,0.587639 -0.75055,0.774516 -0.75055,0.484168 z m -22.509,-1.454307 c 0.007,-0.582083 0.0863,-0.777499 0.17569,-0.434258 0.0894,0.343241 0.0836,0.819491 -0.0131,1.058334 -0.0966,0.238841 -0.16979,-0.04199 -0.1626,-0.624076 z m 7.74803,-0.176389 c 0,-0.485069 0.0801,-0.683506 0.17794,-0.440972 0.0979,0.242535 0.0979,0.63941 0,0.881945 -0.0979,0.242534 -0.17794,0.0441 -0.17794,-0.440973 z m 18.44437,-0.862483 c 0.37663,-0.301745 0.83965,-0.548627 1.02893,-0.548627 0.44822,0 0.24809,0.162948 -0.83178,0.677231 -0.83159,0.396044 -0.84285,0.388702 -0.19715,-0.128604 z m 19.95271,-0.901405 c -0.29104,-0.188086 -0.37042,-0.341974 -0.17639,-0.341974 0.19403,0 0.5909,0.153888 0.88194,0.341974 0.29105,0.188085 0.37042,0.341973 0.17639,0.341973 -0.19402,0 -0.5909,-0.153888 -0.88194,-0.341973 z m -45.50833,-0.133193 c 0,-0.07326 0.27781,-0.351069 0.61736,-0.617361 0.55952,-0.43881 0.572,-0.426333 0.13319,0.133193 -0.46086,0.587639 -0.75055,0.774516 -0.75055,0.484168 z m 5.95222,-0.484168 c -0.43881,-0.559526 -0.42633,-0.572003 0.13319,-0.133193 0.58764,0.460858 0.77452,0.750554 0.48417,0.750554 -0.0733,0 -0.35107,-0.277813 -0.61736,-0.617361 z m 25.73163,-0.68196 c 0.25466,-0.101907 0.55893,-0.08937 0.67616,0.02785 0.11722,0.117225 -0.0911,0.200604 -0.46302,0.185286 -0.41097,-0.01693 -0.49456,-0.100521 -0.21314,-0.213137 z m 2.09462,-0.345428 c 0.24253,-0.09786 0.63941,-0.09786 0.88194,0 0.24254,0.09786 0.0441,0.177936 -0.44097,0.177936 -0.48507,0 -0.68351,-0.08007 -0.44097,-0.177936 z m 5.29166,0 c 0.24254,-0.09786 0.63941,-0.09786 0.88195,0 0.24253,0.09786 0.0441,0.177936 -0.44097,0.177936 -0.48507,0 -0.68351,-0.08007 -0.44098,-0.177936 z"
         id="path4283"
         inkscape:connector-curvature="0" />
      <path
         style="fill:#040404;stroke-width:0.35277775"
         d="m 164.00861,126.51458 c -0.42398,-0.29697 -1.57055,-1.75806 -2.54794,-3.24686 l -1.77707,-2.70693 v -3.27952 -3.27953 h 10.75972 10.75973 v 3.27953 3.27952 l -1.77707,2.70693 c -0.97739,1.4888 -2.12396,2.94989 -2.54794,3.24686 -0.61435,0.4303 -1.92092,0.53994 -6.43472,0.53994 -4.51379,0 -5.82036,-0.10964 -6.43471,-0.53994 z m -4.64803,-17.8927 c -1.55887,-4.04958 -4.43757,-8.895577 -7.38175,-12.426452 -4.17157,-5.002847 -6.32016,-12.418602 -5.37084,-18.537143 0.90193,-5.813055 2.99722,-9.988079 7.09033,-14.128044 4.4687,-4.519847 10.11686,-6.815561 16.745,-6.806065 11.12217,0.01593 20.38079,7.209496 23.32073,18.119234 0.9382,3.481519 0.86265,8.99808 -0.16908,12.347221 -1.02739,3.335048 -2.80147,6.74335 -4.68715,9.004797 -2.3132,2.774156 -5.19537,7.365892 -6.48106,10.325322 l -1.18102,2.71849 -2.89896,0.10336 c -1.59443,0.0568 -3.02035,-0.0226 -3.1687,-0.17639 -0.38233,-0.39651 1.07684,-4.7476 2.62082,-7.815 1.5024,-2.98482 2.77242,-4.93017 5.32944,-8.163357 3.20688,-4.054905 4.12975,-5.99955 4.78057,-10.073484 1.15556,-7.233532 -3.10581,-15.088088 -9.93997,-18.321333 -11.63735,-5.505642 -25.01458,2.865382 -25.08094,15.694818 -0.0255,4.938201 1.16573,8.050381 4.86127,12.699999 2.5505,3.208955 3.82791,5.16231 5.33848,8.163357 1.38786,2.75724 2.98904,7.35636 2.71531,7.79926 -0.0901,0.14584 -1.50781,0.26516 -3.1504,0.26516 -2.77141,0 -3.00853,-0.0572 -3.29208,-0.79375 z M 90.627354,97.54493 c -0.72837,-0.158581 -0.79375,-0.370374 -0.79375,-2.571274 v -2.398458 l 1.498755,-0.201027 c 1.585856,-0.212707 2.908931,-1.351202 3.277683,-2.820416 0.151045,-0.601817 -5.349903,-17.556532 -7.433927,-22.912428 -0.219495,-0.564099 0.08045,-0.617361 3.476657,-0.617361 h 3.716877 l 0.529526,1.852083 c 0.291236,1.018646 1.056563,3.7959 1.700724,6.171676 0.644162,2.375775 1.266384,4.320463 1.382713,4.321527 0.116328,0.0011 0.97241,-2.605024 1.902407,-5.791309 0.929991,-3.186285 1.800301,-5.970258 1.934011,-6.186607 0.15975,-0.258474 1.45853,-0.358663 3.78753,-0.292172 l 3.54441,0.101191 -4.72423,13.581943 c -2.78361,8.002732 -5.123628,14.161604 -5.696522,14.993055 -0.534758,0.776111 -1.560353,1.699951 -2.279099,2.052979 -1.330205,0.653359 -4.386785,1.029462 -5.823765,0.716598 z m 25.947936,-9.084084 c -3.26633,-0.879319 -6.09454,-3.56701 -6.34812,-6.032714 l -0.10884,-1.058334 3.10029,-0.102125 3.10031,-0.102126 0.37753,1.082982 c 0.9288,2.664357 6.29825,2.847029 6.29825,0.214274 0,-1.234835 -1.09228,-1.965343 -4.08497,-2.732001 -3.00375,-0.769488 -5.63907,-1.97631 -6.5731,-3.01009 -1.14162,-1.263538 -1.76639,-3.30758 -1.51775,-4.965591 0.28744,-1.916755 2.17419,-4.143196 4.31725,-5.094526 3.38013,-1.500481 8.86951,-1.033709 11.81492,1.004645 1.35864,0.940242 2.74643,3.293197 2.74643,4.656492 0,0.762609 -0.091,0.780667 -3.43958,0.68237 -3.25881,-0.09566 -3.44549,-0.142524 -3.55191,-0.891617 -0.37183,-2.617342 -5.35573,-2.362968 -5.35573,0.273352 0,1.368206 0.86351,1.880602 4.68305,2.778845 3.55423,0.835853 4.64149,1.334106 5.96603,2.734039 1.83044,1.934613 2.19527,4.465018 0.98562,6.836126 -1.67069,3.274814 -7.53978,5.037006 -12.40968,3.725999 z M 64.786383,72.550355 V 56.498967 h 3.527777 3.527778 v 6.033767 6.033766 l 1.225081,-1.075633 c 3.633,-3.189818 9.250972,-1.990608 11.252721,2.402 0.657832,1.44353 0.741956,2.431686 0.864436,10.154015 l 0.135686,8.55486 H 81.7559 78.191938 v -7.568123 c 0,-4.873391 -0.141905,-7.87957 -0.39854,-8.442821 -0.517621,-1.136055 -2.081132,-1.770728 -3.641186,-1.47806 -2.310168,0.43339 -2.310274,0.43382 -2.310274,9.400315 v 8.088689 H 68.31416 64.786383 Z m 68.791667,4.762499 V 66.023966 h 3.35139 3.35138 v 11.288888 11.288888 h -3.35138 -3.35139 z m 24.96335,5.265829 c -1.15617,-0.67359 -1.38325,-1.600387 -0.96172,-3.925029 1.08582,-5.987876 5.82825,-10.426187 11.54308,-10.802825 2.5866,-0.170471 3.26084,0.217698 3.26084,1.877304 0,1.449968 -0.4494,1.811663 -2.64583,2.12946 -4.50012,0.651113 -7.54428,3.732532 -8.1425,8.242157 -0.31746,2.393067 -1.52241,3.371175 -3.05387,2.478933 z M 135.10513,63.040256 c -2.19959,-0.956805 -2.61877,-3.740155 -0.79446,-5.275207 2.33934,-1.968423 6.32293,-0.620262 6.32293,2.139858 0,1.680586 -0.54705,2.561056 -1.95734,3.150314 -1.46776,0.61327 -2.1333,0.610481 -3.57113,-0.01497 z"
         id="path4281"
         inkscape:connector-curvature="0" />
    </g>
  </g>
</svg>
