<?xml version="1.0" encoding="UTF-8"?>
<svg xmlns="http://www.w3.org/2000/svg" xmlns:xlink="http://www.w3.org/1999/xlink" width="222pt" height="61pt" viewBox="0 0 222 61" version="1.1">
<defs>
<clipPath id="clip1">
  <path d="M 0 47 L 221.667969 47 L 221.667969 61 L 0 61 Z M 0 47 "/>
</clipPath>
<clipPath id="clip2">
  <path d="M 0 0.339844 L 221.667969 0.339844 L 221.667969 40 L 0 40 Z M 0 0.339844 "/>
</clipPath>
</defs>
<g id="surface1">
<g clip-path="url(#clip1)" clip-rule="nonzero">
<path style=" stroke:none;fill-rule:nonzero;fill:rgb(39.677429%,38.580322%,38.851929%);fill-opacity:1;" d="M 8.09375 48.117188 C 8.746094 48.390625 9.386719 48.863281 10.011719 49.53125 L 8.640625 50.871094 C 7.773438 49.964844 6.761719 49.511719 5.605469 49.511719 C 4.597656 49.511719 3.753906 49.839844 3.074219 50.5 C 2.394531 51.160156 2.054688 51.960938 2.054688 52.902344 C 2.054688 53.878906 2.410156 54.707031 3.113281 55.382812 C 3.820312 56.0625 4.691406 56.398438 5.726562 56.398438 C 6.398438 56.398438 6.964844 56.261719 7.425781 55.980469 C 7.886719 55.699219 8.261719 55.265625 8.542969 54.667969 L 5.582031 54.667969 L 5.582031 52.863281 L 10.726562 52.863281 L 10.742188 53.289062 C 10.742188 54.171875 10.507812 55.011719 10.046875 55.800781 C 9.582031 56.59375 8.980469 57.199219 8.246094 57.613281 C 7.507812 58.03125 6.644531 58.238281 5.652344 58.238281 C 4.589844 58.238281 3.644531 58.011719 2.8125 57.554688 C 1.980469 57.101562 1.320312 56.453125 0.835938 55.609375 C 0.351562 54.765625 0.109375 53.859375 0.109375 52.882812 C 0.109375 51.546875 0.558594 50.382812 1.453125 49.394531 C 2.511719 48.21875 3.894531 47.628906 5.59375 47.628906 C 6.484375 47.628906 7.316406 47.792969 8.09375 48.117188 Z M 22.007812 54.792969 L 15.90625 54.792969 C 15.996094 55.324219 16.230469 55.746094 16.613281 56.058594 C 16.996094 56.375 17.484375 56.53125 18.078125 56.53125 C 18.785156 56.53125 19.394531 56.285156 19.90625 55.792969 L 21.503906 56.535156 C 21.105469 57.09375 20.628906 57.507812 20.074219 57.777344 C 19.515625 58.042969 18.855469 58.179688 18.089844 58.179688 C 16.90625 58.179688 15.9375 57.808594 15.191406 57.070312 C 14.445312 56.328125 14.074219 55.402344 14.074219 54.292969 C 14.074219 53.152344 14.445312 52.203125 15.1875 51.449219 C 15.933594 50.699219 16.863281 50.320312 17.988281 50.320312 C 19.179688 50.320312 20.148438 50.699219 20.894531 51.449219 C 21.640625 52.203125 22.011719 53.199219 22.011719 54.433594 Z M 20.105469 53.316406 C 19.980469 52.898438 19.734375 52.5625 19.367188 52.300781 C 18.996094 52.039062 18.570312 51.90625 18.082031 51.90625 C 17.550781 51.90625 17.085938 52.054688 16.6875 52.347656 C 16.4375 52.53125 16.203125 52.855469 15.992188 53.316406 Z M 28.246094 50.515625 L 28.246094 51.335938 C 28.589844 51 28.960938 50.746094 29.359375 50.574219 C 29.757812 50.40625 30.183594 50.320312 30.636719 50.320312 C 31.625 50.320312 32.464844 50.691406 33.15625 51.425781 C 33.84375 52.164062 34.191406 53.109375 34.191406 54.261719 C 34.191406 55.375 33.835938 56.304688 33.121094 57.054688 C 32.40625 57.804688 31.558594 58.179688 30.582031 58.179688 C 30.148438 58.179688 29.742188 58.101562 29.367188 57.949219 C 28.988281 57.792969 28.617188 57.542969 28.246094 57.195312 L 28.246094 60.71875 L 26.363281 60.71875 L 26.363281 50.515625 Z M 30.242188 52.050781 C 29.644531 52.050781 29.148438 52.253906 28.753906 52.65625 C 28.359375 53.058594 28.164062 53.585938 28.164062 54.234375 C 28.164062 54.898438 28.359375 55.4375 28.753906 55.847656 C 29.148438 56.257812 29.644531 56.460938 30.242188 56.460938 C 30.820312 56.460938 31.308594 56.253906 31.707031 55.835938 C 32.101562 55.417969 32.300781 54.886719 32.300781 54.242188 C 32.300781 53.601562 32.105469 53.078125 31.714844 52.667969 C 31.328125 52.257812 30.835938 52.050781 30.242188 52.050781 Z M 38.136719 50.515625 L 39.765625 50.515625 L 39.765625 51.453125 C 39.941406 51.082031 40.175781 50.800781 40.464844 50.609375 C 40.757812 50.417969 41.078125 50.320312 41.425781 50.320312 C 41.671875 50.320312 41.929688 50.386719 42.199219 50.515625 L 41.605469 52.128906 C 41.382812 52.019531 41.203125 51.960938 41.058594 51.960938 C 40.765625 51.960938 40.519531 52.140625 40.316406 52.5 C 40.113281 52.855469 40.015625 53.554688 40.015625 54.601562 L 40.023438 54.964844 L 40.023438 57.984375 L 38.136719 57.984375 Z M 45.949219 50.515625 L 47.867188 50.515625 L 47.867188 54.113281 C 47.867188 54.8125 47.917969 55.300781 48.015625 55.570312 C 48.113281 55.84375 48.269531 56.054688 48.484375 56.207031 C 48.703125 56.359375 48.96875 56.433594 49.28125 56.433594 C 49.597656 56.433594 49.867188 56.359375 50.089844 56.210938 C 50.308594 56.0625 50.472656 55.84375 50.578125 55.554688 C 50.660156 55.339844 50.699219 54.878906 50.699219 54.175781 L 50.699219 50.515625 L 52.597656 50.515625 L 52.597656 53.679688 C 52.597656 54.984375 52.492188 55.878906 52.285156 56.359375 C 52.027344 56.945312 51.652344 57.394531 51.15625 57.707031 C 50.660156 58.019531 50.03125 58.179688 49.265625 58.179688 C 48.4375 58.179688 47.765625 57.996094 47.253906 57.628906 C 46.742188 57.261719 46.378906 56.75 46.171875 56.097656 C 46.023438 55.644531 45.949219 54.820312 45.949219 53.625 Z M 47.734375 47.175781 C 48.015625 47.175781 48.25 47.273438 48.445312 47.464844 C 48.640625 47.65625 48.738281 47.886719 48.738281 48.15625 C 48.738281 48.433594 48.640625 48.667969 48.445312 48.859375 C 48.25 49.050781 48.015625 49.148438 47.734375 49.148438 C 47.460938 49.148438 47.226562 49.050781 47.035156 48.859375 C 46.839844 48.667969 46.742188 48.433594 46.742188 48.15625 C 46.742188 47.886719 46.839844 47.65625 47.035156 47.464844 C 47.226562 47.273438 47.460938 47.175781 47.734375 47.175781 Z M 50.816406 47.175781 C 51.09375 47.175781 51.332031 47.273438 51.527344 47.464844 C 51.71875 47.65625 51.816406 47.886719 51.816406 48.15625 C 51.816406 48.433594 51.71875 48.667969 51.527344 48.859375 C 51.332031 49.050781 51.09375 49.148438 50.816406 49.148438 C 50.542969 49.148438 50.308594 49.050781 50.113281 48.859375 C 49.917969 48.667969 49.820312 48.433594 49.820312 48.15625 C 49.820312 47.886719 49.917969 47.65625 50.113281 47.464844 C 50.308594 47.273438 50.542969 47.175781 50.816406 47.175781 Z M 56.417969 50.515625 L 57.089844 50.515625 C 57.097656 49.535156 57.113281 48.957031 57.140625 48.777344 C 57.191406 48.363281 57.367188 48.039062 57.664062 47.796875 C 57.964844 47.558594 58.386719 47.4375 58.933594 47.4375 C 59.328125 47.4375 59.773438 47.527344 60.269531 47.707031 L 60.269531 49.132812 C 59.996094 49.054688 59.769531 49.015625 59.59375 49.015625 C 59.371094 49.015625 59.210938 49.0625 59.109375 49.15625 C 59.035156 49.222656 58.996094 49.363281 58.996094 49.582031 L 58.988281 50.515625 L 60.191406 50.515625 L 60.191406 52.101562 L 58.988281 52.101562 L 58.988281 57.984375 L 57.089844 57.984375 L 57.089844 52.101562 L 56.417969 52.101562 Z M 64.496094 47.761719 L 66.394531 47.761719 L 66.394531 50.515625 L 67.519531 50.515625 L 67.519531 52.128906 L 66.394531 52.128906 L 66.394531 57.984375 L 64.496094 57.984375 L 64.496094 52.128906 L 63.523438 52.128906 L 63.523438 50.515625 L 64.496094 50.515625 Z M 78.933594 54.792969 L 72.835938 54.792969 C 72.925781 55.324219 73.160156 55.746094 73.542969 56.058594 C 73.925781 56.375 74.414062 56.53125 75.007812 56.53125 C 75.714844 56.53125 76.324219 56.285156 76.835938 55.792969 L 78.433594 56.535156 C 78.035156 57.09375 77.558594 57.507812 77.003906 57.777344 C 76.445312 58.042969 75.785156 58.179688 75.019531 58.179688 C 73.832031 58.179688 72.867188 57.808594 72.121094 57.070312 C 71.375 56.328125 71 55.402344 71 54.292969 C 71 53.152344 71.371094 52.203125 72.117188 51.449219 C 72.859375 50.699219 73.792969 50.320312 74.914062 50.320312 C 76.105469 50.320312 77.074219 50.699219 77.824219 51.449219 C 78.570312 52.203125 78.941406 53.199219 78.941406 54.433594 Z M 77.035156 53.316406 C 76.910156 52.898438 76.664062 52.5625 76.292969 52.300781 C 75.925781 52.039062 75.496094 51.90625 75.011719 51.90625 C 74.480469 51.90625 74.015625 52.054688 73.617188 52.347656 C 73.367188 52.53125 73.132812 52.855469 72.921875 53.316406 Z M 90.472656 47.882812 L 95.550781 47.882812 L 95.550781 49.757812 L 92.40625 49.757812 L 92.40625 51.59375 L 95.550781 51.59375 L 95.550781 53.4375 L 92.40625 53.4375 L 92.40625 57.984375 L 90.472656 57.984375 Z M 100.632812 47.4375 C 100.964844 47.4375 101.25 47.554688 101.488281 47.792969 C 101.726562 48.03125 101.84375 48.320312 101.84375 48.660156 C 101.84375 48.992188 101.726562 49.277344 101.492188 49.515625 C 101.257812 49.75 100.972656 49.867188 100.644531 49.867188 C 100.308594 49.867188 100.019531 49.75 99.78125 49.507812 C 99.542969 49.269531 99.425781 48.976562 99.425781 48.632812 C 99.425781 48.300781 99.542969 48.019531 99.78125 47.789062 C 100.015625 47.554688 100.300781 47.4375 100.632812 47.4375 Z M 99.683594 50.515625 L 101.582031 50.515625 L 101.582031 57.984375 L 99.683594 57.984375 Z M 106.125 50.515625 L 108.023438 50.515625 L 108.023438 51.28125 C 108.453125 50.921875 108.84375 50.671875 109.191406 50.53125 C 109.542969 50.390625 109.898438 50.320312 110.265625 50.320312 C 111.015625 50.320312 111.652344 50.582031 112.175781 51.097656 C 112.613281 51.539062 112.835938 52.1875 112.835938 53.046875 L 112.835938 57.984375 L 110.957031 57.984375 L 110.957031 54.714844 C 110.957031 53.820312 110.917969 53.230469 110.835938 52.9375 C 110.753906 52.644531 110.613281 52.421875 110.414062 52.269531 C 110.210938 52.113281 109.964844 52.039062 109.667969 52.039062 C 109.285156 52.039062 108.953125 52.164062 108.679688 52.417969 C 108.402344 52.671875 108.214844 53.023438 108.105469 53.472656 C 108.050781 53.707031 108.023438 54.210938 108.023438 54.988281 L 108.023438 57.984375 L 106.125 57.984375 Z M 123.074219 50.515625 L 124.972656 50.515625 L 124.972656 57.984375 L 123.074219 57.984375 L 123.074219 57.195312 C 122.703125 57.542969 122.332031 57.792969 121.960938 57.949219 C 121.585938 58.101562 121.183594 58.179688 120.746094 58.179688 C 119.769531 58.179688 118.925781 57.804688 118.210938 57.054688 C 117.5 56.304688 117.140625 55.375 117.140625 54.261719 C 117.140625 53.109375 117.488281 52.164062 118.175781 51.425781 C 118.867188 50.691406 119.703125 50.320312 120.691406 50.320312 C 121.144531 50.320312 121.570312 50.40625 121.96875 50.574219 C 122.367188 50.746094 122.734375 51 123.074219 51.335938 Z M 121.078125 52.050781 C 120.492188 52.050781 120.003906 52.257812 119.617188 52.667969 C 119.226562 53.078125 119.035156 53.601562 119.035156 54.242188 C 119.035156 54.886719 119.230469 55.417969 119.625 55.835938 C 120.019531 56.253906 120.507812 56.460938 121.085938 56.460938 C 121.679688 56.460938 122.175781 56.257812 122.566406 55.847656 C 122.960938 55.4375 123.15625 54.898438 123.15625 54.234375 C 123.15625 53.585938 122.960938 53.058594 122.566406 52.65625 C 122.175781 52.253906 121.679688 52.050781 121.078125 52.050781 Z M 129.710938 50.515625 L 131.609375 50.515625 L 131.609375 51.28125 C 132.039062 50.921875 132.429688 50.671875 132.777344 50.53125 C 133.128906 50.390625 133.484375 50.320312 133.851562 50.320312 C 134.601562 50.320312 135.238281 50.582031 135.761719 51.097656 C 136.199219 51.539062 136.421875 52.1875 136.421875 53.046875 L 136.421875 57.984375 L 134.542969 57.984375 L 134.542969 54.714844 C 134.542969 53.820312 134.503906 53.230469 134.421875 52.9375 C 134.339844 52.644531 134.199219 52.421875 133.996094 52.269531 C 133.796875 52.113281 133.550781 52.039062 133.253906 52.039062 C 132.867188 52.039062 132.539062 52.164062 132.265625 52.417969 C 131.988281 52.671875 131.796875 53.023438 131.691406 53.472656 C 131.636719 53.707031 131.609375 54.210938 131.609375 54.988281 L 131.609375 57.984375 L 129.710938 57.984375 Z M 140.757812 50.515625 L 146.546875 50.515625 L 143.148438 56.398438 L 146.351562 56.398438 L 146.351562 57.984375 L 140.234375 57.984375 L 143.648438 52.101562 L 140.757812 52.101562 Z M 152.328125 50.515625 L 152.328125 51.335938 C 152.671875 51 153.042969 50.746094 153.441406 50.574219 C 153.839844 50.40625 154.265625 50.320312 154.722656 50.320312 C 155.707031 50.320312 156.546875 50.691406 157.238281 51.425781 C 157.929688 52.164062 158.273438 53.109375 158.273438 54.261719 C 158.273438 55.375 157.917969 56.304688 157.203125 57.054688 C 156.488281 57.804688 155.644531 58.179688 154.664062 58.179688 C 154.230469 58.179688 153.824219 58.101562 153.449219 57.949219 C 153.074219 57.792969 152.699219 57.542969 152.328125 57.195312 L 152.328125 60.71875 L 150.445312 60.71875 L 150.445312 50.515625 Z M 154.324219 52.050781 C 153.726562 52.050781 153.230469 52.253906 152.835938 52.65625 C 152.441406 53.058594 152.246094 53.585938 152.246094 54.234375 C 152.246094 54.898438 152.441406 55.4375 152.835938 55.847656 C 153.230469 56.257812 153.726562 56.460938 154.324219 56.460938 C 154.902344 56.460938 155.390625 56.253906 155.789062 55.835938 C 156.183594 55.417969 156.382812 54.886719 156.382812 54.242188 C 156.382812 53.601562 156.1875 53.078125 155.800781 52.667969 C 155.410156 52.257812 154.917969 52.050781 154.324219 52.050781 Z M 161.886719 47.628906 L 163.785156 47.628906 L 163.785156 57.984375 L 161.886719 57.984375 Z M 173.484375 50.515625 L 175.382812 50.515625 L 175.382812 57.984375 L 173.484375 57.984375 L 173.484375 57.195312 C 173.113281 57.542969 172.742188 57.792969 172.371094 57.949219 C 171.996094 58.101562 171.59375 58.179688 171.160156 58.179688 C 170.183594 58.179688 169.335938 57.804688 168.625 57.054688 C 167.910156 56.304688 167.554688 55.375 167.554688 54.261719 C 167.554688 53.109375 167.898438 52.164062 168.589844 51.425781 C 169.277344 50.691406 170.117188 50.320312 171.101562 50.320312 C 171.558594 50.320312 171.984375 50.40625 172.382812 50.574219 C 172.777344 50.746094 173.148438 51 173.484375 51.335938 Z M 171.488281 52.050781 C 170.902344 52.050781 170.414062 52.257812 170.027344 52.667969 C 169.640625 53.078125 169.445312 53.601562 169.445312 54.242188 C 169.445312 54.886719 169.644531 55.417969 170.039062 55.835938 C 170.433594 56.253906 170.917969 56.460938 171.496094 56.460938 C 172.09375 56.460938 172.585938 56.257812 172.980469 55.847656 C 173.371094 55.4375 173.570312 54.898438 173.570312 54.234375 C 173.570312 53.585938 173.371094 53.058594 172.980469 52.65625 C 172.585938 52.253906 172.089844 52.050781 171.488281 52.050781 Z M 180.121094 50.515625 L 182.019531 50.515625 L 182.019531 51.28125 C 182.449219 50.921875 182.839844 50.671875 183.191406 50.53125 C 183.539062 50.390625 183.898438 50.320312 184.261719 50.320312 C 185.011719 50.320312 185.648438 50.582031 186.171875 51.097656 C 186.613281 51.539062 186.832031 52.1875 186.832031 53.046875 L 186.832031 57.984375 L 184.953125 57.984375 L 184.953125 54.714844 C 184.953125 53.820312 184.914062 53.230469 184.832031 52.9375 C 184.753906 52.644531 184.609375 52.421875 184.410156 52.269531 C 184.210938 52.113281 183.960938 52.039062 183.664062 52.039062 C 183.28125 52.039062 182.949219 52.164062 182.675781 52.417969 C 182.402344 52.671875 182.210938 53.023438 182.101562 53.472656 C 182.046875 53.707031 182.019531 54.210938 182.019531 54.988281 L 182.019531 57.984375 L 180.121094 57.984375 Z M 191.480469 50.515625 L 193.398438 50.515625 L 193.398438 54.113281 C 193.398438 54.8125 193.449219 55.300781 193.546875 55.570312 C 193.644531 55.84375 193.800781 56.054688 194.015625 56.207031 C 194.230469 56.359375 194.496094 56.433594 194.8125 56.433594 C 195.128906 56.433594 195.398438 56.359375 195.617188 56.210938 C 195.839844 56.0625 196.003906 55.84375 196.109375 55.554688 C 196.191406 55.339844 196.230469 54.878906 196.230469 54.175781 L 196.230469 50.515625 L 198.128906 50.515625 L 198.128906 53.679688 C 198.128906 54.984375 198.023438 55.878906 197.8125 56.359375 C 197.558594 56.945312 197.183594 57.394531 196.6875 57.707031 C 196.191406 58.019531 195.5625 58.179688 194.796875 58.179688 C 193.96875 58.179688 193.296875 57.996094 192.785156 57.628906 C 192.269531 57.261719 191.910156 56.75 191.703125 56.097656 C 191.554688 55.644531 191.480469 54.820312 191.480469 53.625 Z M 202.851562 50.515625 L 204.75 50.515625 L 204.75 51.28125 C 205.179688 50.921875 205.570312 50.671875 205.921875 50.53125 C 206.269531 50.390625 206.628906 50.320312 206.992188 50.320312 C 207.742188 50.320312 208.378906 50.582031 208.902344 51.097656 C 209.34375 51.539062 209.5625 52.1875 209.5625 53.046875 L 209.5625 57.984375 L 207.683594 57.984375 L 207.683594 54.714844 C 207.683594 53.820312 207.644531 53.230469 207.5625 52.9375 C 207.480469 52.644531 207.339844 52.421875 207.140625 52.269531 C 206.9375 52.113281 206.691406 52.039062 206.394531 52.039062 C 206.011719 52.039062 205.679688 52.164062 205.40625 52.417969 C 205.132812 52.671875 204.941406 53.023438 204.832031 53.472656 C 204.777344 53.707031 204.75 54.210938 204.75 54.988281 L 204.75 57.984375 L 202.851562 57.984375 Z M 219.808594 50.515625 L 221.699219 50.515625 L 221.699219 56.914062 C 221.699219 58.179688 221.441406 59.105469 220.925781 59.703125 C 220.234375 60.507812 219.195312 60.910156 217.804688 60.910156 C 217.0625 60.910156 216.441406 60.820312 215.933594 60.636719 C 215.429688 60.453125 215.003906 60.183594 214.65625 59.828125 C 214.308594 59.476562 214.050781 59.042969 213.882812 58.535156 L 215.976562 58.535156 C 216.160156 58.746094 216.398438 58.90625 216.691406 59.011719 C 216.984375 59.121094 217.328125 59.175781 217.726562 59.175781 C 218.238281 59.175781 218.648438 59.09375 218.960938 58.941406 C 219.269531 58.785156 219.488281 58.582031 219.617188 58.335938 C 219.742188 58.089844 219.808594 57.664062 219.808594 57.058594 C 219.472656 57.386719 219.125 57.625 218.757812 57.769531 C 218.390625 57.914062 217.976562 57.984375 217.511719 57.984375 C 216.496094 57.984375 215.640625 57.625 214.941406 56.902344 C 214.238281 56.175781 213.890625 55.261719 213.890625 54.152344 C 213.890625 52.96875 214.261719 52.015625 215.003906 51.296875 C 215.675781 50.648438 216.476562 50.320312 217.40625 50.320312 C 217.84375 50.320312 218.257812 50.402344 218.644531 50.558594 C 219.03125 50.714844 219.417969 50.976562 219.808594 51.335938 Z M 217.839844 52.074219 C 217.242188 52.074219 216.746094 52.269531 216.359375 52.667969 C 215.96875 53.0625 215.773438 53.5625 215.773438 54.160156 C 215.773438 54.78125 215.972656 55.292969 216.371094 55.691406 C 216.769531 56.089844 217.273438 56.289062 217.875 56.289062 C 218.464844 56.289062 218.949219 56.09375 219.332031 55.707031 C 219.714844 55.316406 219.90625 54.804688 219.90625 54.175781 C 219.90625 53.550781 219.710938 53.046875 219.328125 52.65625 C 218.941406 52.269531 218.445312 52.074219 217.839844 52.074219 "/>
</g>
<g clip-path="url(#clip2)" clip-rule="nonzero">
<path style=" stroke:none;fill-rule:nonzero;fill:rgb(8.21228%,25.967407%,50.631714%);fill-opacity:1;" d="M 130.683594 39.863281 C 141.492188 39.863281 150.253906 31.035156 150.253906 20.144531 C 150.253906 9.253906 141.492188 0.425781 130.683594 0.425781 C 119.875 0.425781 111.113281 9.253906 111.113281 20.144531 C 111.113281 31.035156 119.875 39.863281 130.683594 39.863281 Z M 21.855469 16.964844 C 22.773438 15.550781 23.863281 14.476562 25.121094 13.734375 C 26.382812 12.996094 27.769531 12.625 29.28125 12.625 C 31.882812 12.625 33.863281 13.433594 35.226562 15.050781 C 36.589844 16.667969 37.269531 19.015625 37.269531 22.101562 L 37.269531 36 L 29.988281 36 L 29.988281 24.097656 C 30 23.921875 30.011719 23.738281 30.019531 23.546875 C 30.023438 23.359375 30.027344 23.085938 30.027344 22.734375 C 30.027344 21.117188 29.792969 19.945312 29.320312 19.21875 C 28.847656 18.492188 28.085938 18.128906 27.035156 18.128906 C 25.660156 18.128906 24.597656 18.699219 23.847656 19.839844 C 23.101562 20.980469 22.714844 22.632812 22.6875 24.789062 L 22.6875 36 L 15.40625 36 L 15.40625 24.097656 C 15.40625 21.570312 15.1875 19.945312 14.757812 19.21875 C 14.324219 18.492188 13.554688 18.128906 12.453125 18.128906 C 11.0625 18.128906 9.988281 18.703125 9.234375 19.847656 C 8.480469 20.996094 8.101562 22.636719 8.101562 24.769531 L 8.101562 36 L 0.820312 36 L 0.820312 13.175781 L 8.101562 13.175781 L 8.101562 16.519531 C 8.992188 15.226562 10.015625 14.253906 11.167969 13.601562 C 12.320312 12.953125 13.589844 12.625 14.980469 12.625 C 16.542969 12.625 17.925781 13.003906 19.125 13.765625 C 20.328125 14.527344 21.234375 15.59375 21.855469 16.964844 Z M 44.441406 13.175781 L 51.679688 13.175781 L 51.679688 36 L 44.441406 36 Z M 44.441406 4.289062 L 51.679688 4.289062 L 51.679688 10.242188 L 44.441406 10.242188 Z M 66.960938 6.695312 L 66.960938 13.175781 L 74.425781 13.175781 L 74.425781 18.390625 L 66.960938 18.390625 L 66.960938 28.074219 C 66.960938 29.132812 67.171875 29.847656 67.589844 30.222656 C 68.007812 30.59375 68.835938 30.78125 70.078125 30.78125 L 73.796875 30.78125 L 73.796875 36 L 67.589844 36 C 64.730469 36 62.703125 35.398438 61.511719 34.195312 C 60.316406 32.992188 59.71875 30.953125 59.71875 28.074219 L 59.71875 18.390625 L 56.121094 18.390625 L 56.121094 13.175781 L 59.71875 13.175781 L 59.71875 6.695312 Z M 79.59375 5.574219 L 88.289062 5.574219 L 99.273438 26.441406 L 99.273438 5.574219 L 106.65625 5.574219 L 106.65625 36 L 97.960938 36 L 86.976562 15.132812 L 86.976562 36 L 79.59375 36 Z M 166.105469 19.066406 C 167.738281 19.066406 168.90625 18.757812 169.613281 18.148438 C 170.324219 17.535156 170.675781 16.53125 170.675781 15.132812 C 170.675781 13.746094 170.324219 12.753906 169.613281 12.15625 C 168.90625 11.558594 167.738281 11.261719 166.105469 11.261719 L 162.828125 11.261719 L 162.828125 19.066406 Z M 162.828125 24.484375 L 162.828125 36 L 155.039062 36 L 155.039062 5.574219 L 166.933594 5.574219 C 170.914062 5.574219 173.828125 6.246094 175.683594 7.589844 C 177.535156 8.9375 178.464844 11.0625 178.464844 13.96875 C 178.464844 15.980469 177.980469 17.632812 177.019531 18.921875 C 176.054688 20.214844 174.601562 21.164062 172.660156 21.773438 C 173.722656 22.019531 174.679688 22.574219 175.519531 23.4375 C 176.363281 24.296875 177.21875 25.605469 178.078125 27.359375 L 182.308594 36 L 174.015625 36 L 170.332031 28.4375 C 169.589844 26.917969 168.839844 25.878906 168.078125 25.320312 C 167.316406 24.765625 166.300781 24.484375 165.035156 24.484375 Z M 188.183594 5.574219 L 198.09375 5.574219 L 204.96875 21.855469 L 211.886719 5.574219 L 221.777344 5.574219 L 221.777344 36 L 214.414062 36 L 214.414062 13.746094 L 207.457031 30.152344 L 202.523438 30.152344 L 195.566406 13.746094 L 195.566406 36 L 188.183594 36 L 188.183594 5.574219 "/>
</g>
<path style=" stroke:none;fill-rule:nonzero;fill:rgb(100%,100%,100%);fill-opacity:1;" d="M 143.601562 15.808594 L 134.988281 15.808594 L 134.988281 7.132812 L 126.378906 7.132812 L 126.378906 15.808594 L 117.769531 15.808594 L 117.769531 24.484375 L 126.378906 24.484375 L 126.378906 33.160156 L 134.988281 33.160156 L 134.988281 24.484375 L 143.601562 24.484375 L 143.601562 15.808594 "/>
</g>
</svg>
