<?xml version="1.0" encoding="UTF-8"?>
<svg xmlns="http://www.w3.org/2000/svg" xmlns:xlink="http://www.w3.org/1999/xlink" width="56.693pt" height="56.693pt" viewBox="0 0 56.693 56.693" version="1.1">
<defs>
<clipPath id="clip1">
  <path d="M 0 0 L 56.691406 0 L 56.691406 56.691406 L 0 56.691406 Z M 0 0 "/>
</clipPath>
<clipPath id="clip2">
  <path d="M 56.691406 28.347656 C 56.691406 12.691406 44 0 28.347656 0 C 12.691406 0 0 12.691406 0 28.347656 C 0 44.003906 12.691406 56.695312 28.347656 56.695312 C 44 56.695312 56.691406 44.003906 56.691406 28.347656 Z M 56.691406 28.347656 "/>
</clipPath>
</defs>
<g id="surface1">
<g clip-path="url(#clip1)" clip-rule="nonzero">
<g clip-path="url(#clip2)" clip-rule="nonzero">
<path style=" stroke:none;fill-rule:nonzero;fill:rgb(33.724976%,33.724976%,33.724976%);fill-opacity:1;" d="M 56.691406 28.347656 C 56.691406 12.691406 44 0 28.347656 0 C 12.691406 0 0 12.691406 0 28.347656 C 0 44.003906 12.691406 56.695312 28.347656 56.695312 C 44 56.695312 56.691406 44.003906 56.691406 28.347656 Z M 56.691406 28.347656 "/>
<path style="fill:none;stroke-width:0.99628;stroke-linecap:butt;stroke-linejoin:miter;stroke:rgb(100%,100%,100%);stroke-opacity:1;stroke-miterlimit:10;" d="M -32.31475 -2.043625 C -32.31475 -2.043625 -32.053031 -1.824875 -31.951469 -1.711594 C -31.849906 -1.598312 -31.685844 -1.379562 -31.584281 -1.227219 C -31.482719 -1.074875 -31.322563 -0.793625 -31.221 -0.602219 C -31.119438 -0.410812 -30.955375 -0.074875 -30.853813 0.143875 C -30.75225 0.362625 -30.592094 0.741531 -30.490531 0.983719 C -30.388969 1.222 -30.224906 1.62825 -30.123344 1.87825 C -30.021781 2.124344 -29.861625 2.5345 -29.760063 2.776688 C -29.6585 3.018875 -29.494438 3.405594 -29.392875 3.62825 C -29.295219 3.847 -29.131156 4.19075 -29.029594 4.374344 C -28.928031 4.557938 -28.763969 4.823563 -28.662406 4.956375 C -28.56475 5.085281 -28.400688 5.257156 -28.299125 5.319656 C -28.197563 5.386063 -28.0335 5.432938 -27.935844 5.421219 C -27.834281 5.405594 -27.670219 5.31575 -27.568656 5.214188 C -27.467094 5.112625 -27.306938 4.874344 -27.205375 4.682938 C -27.103813 4.487625 -26.93975 4.104813 -26.838188 3.819656 C -26.736625 3.538406 -26.576469 3.011063 -26.474906 2.643875 C -26.373344 2.280594 -26.209281 1.624344 -26.107719 1.19075 C -26.006156 0.757156 -25.846 -0.00065625 -25.744438 -0.488937 C -25.642875 -0.973312 -25.478813 -1.797531 -25.37725 -2.313156 C -25.275688 -2.824875 -25.115531 -3.676437 -25.013969 -4.192062 C -24.912406 -4.703781 -24.748344 -5.535812 -24.646781 -6.020187 C -24.545219 -6.504562 -24.385063 -7.258469 -24.2835 -7.68425 C -24.181938 -8.106125 -24.017875 -8.738937 -23.916313 -9.070969 C -23.81475 -9.403 -23.654594 -9.867844 -23.553031 -10.082687 C -23.451469 -10.293625 -23.287406 -10.539719 -23.185844 -10.613937 C -23.084281 -10.68425 -22.924125 -10.68425 -22.822563 -10.598312 C -22.721 -10.512375 -22.556938 -10.24675 -22.455375 -9.99675 C -22.353813 -9.742844 -22.193656 -9.199875 -22.092094 -8.781906 C -21.990531 -8.363937 -21.826469 -7.551437 -21.724906 -6.981125 C -21.62725 -6.406906 -21.463188 -5.360031 -21.361625 -4.653 C -21.260063 -3.945969 -21.096 -2.695969 -20.998344 -1.887375 C -20.896781 -1.074875 -20.732719 0.31575 -20.631156 1.19075 C -20.529594 2.06575 -20.365531 3.530594 -20.267875 4.425125 C -20.166313 5.323563 -20.00225 6.780594 -19.900688 7.647781 C -19.799125 8.514969 -19.638969 9.882156 -19.537406 10.667313 C -19.435844 11.456375 -19.271781 12.655594 -19.170219 13.311844 C -19.068656 13.964188 -18.9085 14.917313 -18.806938 15.393875 C -18.705375 15.874344 -18.541313 16.50325 -18.43975 16.768875 C -18.338188 17.038406 -18.178031 17.296219 -18.076469 17.319656 C -17.974906 17.347 -17.810844 17.19075 -17.709281 16.964188 C -17.607719 16.733719 -17.447563 16.155594 -17.346 15.671219 C -17.244438 15.182938 -17.080375 14.19075 -16.978813 13.464188 C -16.87725 12.737625 -16.717094 11.366531 -16.615531 10.421219 C -16.513969 9.479813 -16.349906 7.7845 -16.248344 6.671219 C -16.146781 5.554031 -15.986625 3.620438 -15.885063 2.386063 C -15.7835 1.151688 -15.619438 -0.926437 -15.517875 -2.2155 C -15.416313 -3.504562 -15.256156 -5.62175 -15.154594 -6.895187 C -15.053031 -8.172531 -14.888969 -10.211594 -14.787406 -11.399094 C -14.685844 -12.586594 -14.525688 -14.430344 -14.424125 -15.4655 C -14.322563 -16.504562 -14.1585 -18.043625 -14.056938 -18.860031 C -13.959281 -19.680344 -13.795219 -20.817062 -13.693656 -21.367844 C -13.592094 -21.918625 -13.428031 -22.582687 -13.330375 -22.828781 C -13.228813 -23.070969 -13.06475 -23.207687 -12.963188 -23.12175 C -12.861625 -23.035812 -12.697563 -22.625656 -12.599906 -22.207687 C -12.498344 -21.789719 -12.334281 -20.836594 -12.232719 -20.098312 C -12.131156 -19.360031 -11.971 -17.910812 -11.869438 -16.883469 C -11.767875 -15.860031 -11.603813 -13.973312 -11.50225 -12.7155 C -11.400688 -11.453781 -11.240531 -9.227219 -11.138969 -7.793625 C -11.037406 -6.363937 -10.873344 -3.914719 -10.771781 -2.383469 C -10.670219 -0.852219 -10.510063 1.686844 -10.4085 3.233719 C -10.306938 4.780594 -10.142875 7.276688 -10.041313 8.757156 C -9.93975 10.233719 -9.779594 12.554031 -9.678031 13.882156 C -9.576469 15.210281 -9.412406 17.225906 -9.310844 18.335281 C -9.209281 19.44075 -9.049125 21.0345 -8.947563 21.858719 C -8.846 22.682938 -8.681938 23.772781 -8.580375 24.268875 C -8.478813 24.761063 -8.318656 25.2845 -8.217094 25.421219 C -8.115531 25.557938 -7.951469 25.487625 -7.849906 25.257156 C -7.748344 25.030594 -7.588188 24.366531 -7.486625 23.788406 C -7.385063 23.206375 -7.221 21.987625 -7.119438 21.089188 C -7.017875 20.19075 -6.857719 18.483719 -6.756156 17.31575 C -6.654594 16.147781 -6.490531 14.046219 -6.388969 12.671219 C -6.291313 11.300125 -6.12725 8.921219 -6.025688 7.421219 C -5.924125 5.917313 -5.760063 3.393875 -5.662406 1.847 C -5.560844 0.296219 -5.396781 -2.235031 -5.295219 -3.74675 C -5.193656 -5.262375 -5.0335 -7.664719 -4.931938 -9.063156 C -4.830375 -10.461594 -4.666313 -12.610031 -4.56475 -13.820969 C -4.463188 -15.028 -4.303031 -16.813156 -4.201469 -17.774094 C -4.099906 -18.731125 -3.935844 -20.063156 -3.834281 -20.727219 C -3.732719 -21.387375 -3.572563 -22.207687 -3.471 -22.547531 C -3.369438 -22.883469 -3.205375 -23.156906 -3.103813 -23.160812 C -3.00225 -23.164719 -2.842094 -22.895187 -2.740531 -22.570969 C -2.638969 -22.250656 -2.474906 -21.4655 -2.373344 -20.844406 C -2.271781 -20.223312 -2.111625 -18.977219 -2.010063 -18.098312 C -1.9085 -17.219406 -1.744438 -15.594406 -1.642875 -14.516281 C -1.541313 -13.438156 -1.381156 -11.535812 -1.279594 -10.320969 C -1.178031 -9.102219 -1.013969 -7.031906 -0.912406 -5.750656 C -0.810844 -4.4655 -0.650688 -2.344406 -0.549125 -1.063156 C -0.447563 0.214188 -0.2835 2.272781 -0.181938 3.479813 C -0.080375 4.69075 0.0797812 6.573563 0.181344 7.651688 C 0.282906 8.729813 0.446969 10.350906 0.548531 11.245438 C 0.650094 12.136063 0.81025 13.421219 0.911812 14.089188 C 1.013375 14.761063 1.177437 15.651688 1.279 16.077469 C 1.376656 16.499344 1.540719 16.972 1.642281 17.139969 C 1.743844 17.304031 1.907906 17.354813 2.005562 17.268875 C 2.107125 17.179031 2.271187 16.827469 2.37275 16.50325 C 2.474312 16.182938 2.634469 15.468094 2.736031 14.94075 C 2.837594 14.413406 3.001656 13.393875 3.103219 12.702469 C 3.204781 12.011063 3.364937 10.764969 3.4665 9.952469 C 3.568062 9.143875 3.732125 7.741531 3.833687 6.862625 C 3.93525 5.987625 4.095406 4.518875 4.196969 3.624344 C 4.298531 2.725906 4.462594 1.276688 4.564156 0.4095 C 4.665719 -0.453781 4.825875 -1.813156 4.927437 -2.602219 C 5.029 -3.391281 5.193062 -4.594406 5.294625 -5.270187 C 5.396187 -5.945969 5.556344 -6.942062 5.657906 -7.477219 C 5.759469 -8.012375 5.923531 -8.758469 6.025094 -9.137375 C 6.126656 -9.512375 6.286812 -9.988937 6.388375 -10.199875 C 6.489937 -10.410812 6.654 -10.613937 6.755562 -10.656906 C 6.857125 -10.703781 7.017281 -10.641281 7.118844 -10.531906 C 7.220406 -10.422531 7.384469 -10.117844 7.486031 -9.87175 C 7.587594 -9.629562 7.74775 -9.12175 7.849312 -8.762375 C 7.950875 -8.406906 8.114937 -7.735031 8.2165 -7.293625 C 8.314156 -6.852219 8.478219 -6.074875 8.579781 -5.578781 C 8.681344 -5.082687 8.845406 -4.24675 8.946969 -3.727219 C 9.044625 -3.211594 9.208687 -2.363937 9.31025 -1.852219 C 9.411812 -1.344406 9.575875 -0.531906 9.673531 -0.05925 C 9.775094 0.417313 9.939156 1.151688 10.040719 1.569656 C 10.142281 1.991531 10.302437 2.616531 10.404 2.964188 C 10.505562 3.307938 10.669625 3.804031 10.771187 4.06575 C 10.87275 4.327469 11.032906 4.675125 11.134469 4.843094 C 11.236031 5.014969 11.400094 5.214188 11.501656 5.292313 C 11.603219 5.374344 11.763375 5.429031 11.864937 5.421219 C 11.9665 5.417313 12.130562 5.335281 12.232125 5.25325 C 12.333687 5.171219 12.493844 4.979813 12.595406 4.831375 C 12.696969 4.686844 12.861031 4.397781 12.962594 4.202469 C 13.064156 4.007156 13.224312 3.655594 13.325875 3.425125 C 13.427437 3.198563 13.5915 2.804031 13.693062 2.557938 C 13.794625 2.311844 13.954781 1.901688 14.056344 1.651688 C 14.157906 1.405594 14.321969 1.007156 14.423531 0.768875 C 14.525094 0.5345 14.68525 0.163406 14.786812 -0.0514375 C 14.888375 -0.262375 15.052437 -0.586594 15.154 -0.770187 C 15.255562 -0.949875 15.415719 -1.2155 15.517281 -1.360031 C 15.618844 -1.504562 15.782906 -1.703781 15.884469 -1.805344 C 15.982125 -1.906906 16.146187 -2.039719 16.24775 -2.102219 C 16.349312 -2.160812 16.513375 -2.223312 16.614937 -2.24675 C 16.712594 -2.266281 16.876656 -2.270187 16.978219 -2.254562 C 17.079781 -2.242844 17.243844 -2.188156 17.3415 -2.145187 C 17.443062 -2.098312 17.607125 -2.004562 17.708687 -1.93425 C 17.81025 -1.867844 17.970406 -1.735031 18.071969 -1.649094 C 18.173531 -1.563156 18.337594 -1.410812 18.439156 -1.313156 C 18.540719 -1.219406 18.700875 -1.055344 18.802437 -0.957687 C 18.904 -0.856125 19.068062 -0.695969 19.169625 -0.598312 C 19.271187 -0.500656 19.431344 -0.348312 19.532906 -0.258469 C 19.634469 -0.168625 19.798531 -0.0319062 19.900094 0.0462188 C 20.001656 0.124344 20.161812 0.241531 20.263375 0.304031 C 20.364937 0.370438 20.529 0.460281 20.630562 0.507156 C 20.732125 0.557938 20.892281 0.624344 20.993844 0.655594 C 21.095406 0.686844 21.259469 0.725906 21.361031 0.745438 C 21.462594 0.761063 21.62275 0.776688 21.724312 0.776688 C 21.825875 0.780594 21.989937 0.776688 22.0915 0.768875 C 22.193062 0.761063 22.353219 0.733719 22.454781 0.714188 C 22.556344 0.698563 22.720406 0.6595 22.821969 0.632156 C 22.923531 0.608719 23.083687 0.557938 23.18525 0.526688 C 23.286812 0.495438 23.450875 0.444656 23.552437 0.413406 C 23.650094 0.37825 23.814156 0.323563 23.915719 0.292313 C 24.017281 0.261063 24.181344 0.206375 24.282906 0.175125 C 24.380562 0.143875 24.544625 0.097 24.646187 0.0696563 C 24.74775 0.0423125 24.911812 -0.00065625 25.009469 -0.0240937 C 25.111031 -0.043625 25.275094 -0.0787812 25.376656 -0.0983125 C 25.478219 -0.117844 25.638375 -0.141281 25.739937 -0.156906 C 25.8415 -0.168625 26.005562 -0.18425 26.107125 -0.192062 C 26.208687 -0.199875 26.368844 -0.211594 26.470406 -0.2155 C 26.571969 -0.219406 26.736031 -0.223312 26.837594 -0.223312 C 26.939156 -0.219406 27.099312 -0.2155 27.200875 -0.2155 C 27.302437 -0.211594 27.4665 -0.199875 27.568062 -0.195969 C 27.669625 -0.188156 27.829781 -0.176437 27.931344 -0.168625 C 28.032906 -0.160812 28.196969 -0.149094 28.298531 -0.137375 C 28.400094 -0.129562 28.56025 -0.113937 28.661812 -0.106125 C 28.763375 -0.0983125 28.927437 -0.0826875 29.029 -0.074875 C 29.130562 -0.0631562 29.290719 -0.0514375 29.392281 -0.043625 C 29.493844 -0.0358125 29.657906 -0.0201875 29.759469 -0.0162812 C 29.861031 -0.00846875 30.021187 0.00325 30.12275 0.00715625 C 30.224312 0.0149688 30.388375 0.0227813 30.489937 0.0266875 C 30.5915 0.0305938 30.751656 0.0345 30.853219 0.0384063 C 30.954781 0.0423125 31.118844 0.0462188 31.220406 0.0462188 C 31.318062 0.050125 31.482125 0.050125 31.583687 0.050125 C 31.68525 0.050125 31.849312 0.050125 31.946969 0.050125 C 32.048531 0.050125 32.212594 0.050125 32.314156 0.050125 C 32.415719 0.0462188 32.579781 0.0462188 32.677437 0.0423125 C 32.779 0.0423125 32.943062 0.0384063 33.044625 0.0384063 C 33.146187 0.0345 33.306344 0.0305938 33.407906 0.0305938 C 33.509469 0.0266875 33.673531 0.0227813 33.775094 0.0227813 C 33.876656 0.018875 34.036812 0.0149688 34.138375 0.0149688 C 34.239937 0.0110625 34.404 0.0110625 34.505562 0.00715625 C 34.607125 0.00715625 34.767281 0.00325 34.868844 0.00325 C 34.970406 -0.00065625 35.134469 -0.00065625 35.236031 -0.00065625 C 35.337594 -0.0045625 35.49775 -0.0045625 35.599312 -0.0045625 C 35.700875 -0.0045625 35.864937 -0.00846875 35.9665 -0.00846875 C 36.068062 -0.00846875 36.228219 -0.00846875 36.329781 -0.00846875 C 36.431344 -0.00846875 36.595406 -0.00846875 36.696969 -0.00846875 C 36.798531 -0.00846875 36.958687 -0.00846875 37.06025 -0.00846875 C 37.161812 -0.00846875 37.325875 -0.00846875 37.427437 -0.00846875 C 37.529 -0.00846875 37.689156 -0.00846875 37.790719 -0.00846875 C 37.892281 -0.00846875 38.056344 -0.00846875 38.157906 -0.0045625 C 38.259469 -0.0045625 38.419625 -0.0045625 38.521187 -0.0045625 C 38.62275 -0.0045625 38.786812 -0.0045625 38.888375 -0.0045625 C 38.986031 -0.0045625 39.150094 -0.0045625 39.251656 -0.00065625 C 39.353219 -0.00065625 39.517281 -0.00065625 39.614937 -0.00065625 C 39.7165 -0.00065625 39.880562 -0.00065625 39.982125 -0.00065625 C 40.083687 -0.00065625 40.345406 -0.00065625 40.345406 -0.00065625 " transform="matrix(1,0,0,-1,28.346,28.347)"/>
</g>
</g>
</g>
</svg>
