<?xml version="1.0" encoding="UTF-8" standalone="no"?>
<!-- Created with Inkscape (http://www.inkscape.org/) -->

<svg
   xmlns:dc="http://purl.org/dc/elements/1.1/"
   xmlns:cc="http://creativecommons.org/ns#"
   xmlns:rdf="http://www.w3.org/1999/02/22-rdf-syntax-ns#"
   xmlns:svg="http://www.w3.org/2000/svg"
   xmlns="http://www.w3.org/2000/svg"
   xmlns:sodipodi="http://sodipodi.sourceforge.net/DTD/sodipodi-0.dtd"
   xmlns:inkscape="http://www.inkscape.org/namespaces/inkscape"
   width="119.12598mm"
   height="19.205959mm"
   viewBox="0 0 119.12598 19.20596"
   version="1.1"
   id="svg843"
   inkscape:version="0.92.3 (2405546, 2018-03-11)"
   sodipodi:docname="tu-test.svg">
  <defs
     id="defs837" />
  <sodipodi:namedview
     id="base"
     pagecolor="#ffffff"
     bordercolor="#666666"
     borderopacity="1.0"
     inkscape:pageopacity="0.0"
     inkscape:pageshadow="2"
     inkscape:zoom="0.98994949"
     inkscape:cx="37.265828"
     inkscape:cy="120.01959"
     inkscape:document-units="mm"
     inkscape:current-layer="layer1"
     showgrid="false"
     fit-margin-top="0"
     fit-margin-left="0"
     fit-margin-right="0"
     fit-margin-bottom="0"
     inkscape:window-width="1920"
     inkscape:window-height="959"
     inkscape:window-x="0"
     inkscape:window-y="27"
     inkscape:window-maximized="1" />
  <metadata
     id="metadata840">
    <rdf:RDF>
      <cc:Work
         rdf:about="">
        <dc:format>image/svg+xml</dc:format>
        <dc:type
           rdf:resource="http://purl.org/dc/dcmitype/StillImage" />
        <dc:title></dc:title>
      </cc:Work>
    </rdf:RDF>
  </metadata>
  <g
     inkscape:label="Layer 1"
     inkscape:groupmode="layer"
     id="layer1"
     transform="translate(-135.73209,-166.62789)">
    <g
       id="g1399"
       transform="translate(-4.2763124,-18.708867)">
      <path
         style="fill:#e1ecc6;stroke-width:0.08466667"
         d="m 147.22625,204.40886 c 0.26776,-0.0168 0.70591,-0.0168 0.97367,0 0.26776,0.0168 0.0487,0.0306 -0.48683,0.0306 -0.53552,0 -0.7546,-0.0138 -0.48684,-0.0306 z m 10.49367,-6.8e-4 c 0.59098,-0.0145 1.58158,-0.0146 2.20134,-8e-5 0.61975,0.0145 0.13623,0.0264 -1.07451,0.0264 -1.21073,5e-5 -1.7178,-0.0118 -1.12683,-0.0263 z m -13.82324,-1.27025 -0.20526,-0.23284 0.23283,0.20526 c 0.21762,0.19185 0.27166,0.26041 0.20526,0.26041 -0.0152,0 -0.11994,-0.10477 -0.23283,-0.23283 z m 4.7708,-1.03717 c 0,-0.20955 0.0165,-0.29527 0.0367,-0.1905 0.0202,0.10478 0.0202,0.27623 0,0.381 -0.0202,0.10478 -0.0367,0.019 -0.0367,-0.1905 z m 13.18494,-0.7093 c 0,-0.0176 0.0667,-0.0843 0.14817,-0.14817 0.13428,-0.10531 0.13728,-0.10232 0.032,0.032 -0.1106,0.14103 -0.18013,0.18588 -0.18013,0.1162 z m -6.59732,-1.20275 c 0.004,-0.0986 0.0241,-0.1187 0.0512,-0.0512 0.0245,0.0611 0.0214,0.13415 -0.007,0.16228 -0.0281,0.0281 -0.0481,-0.0219 -0.0445,-0.11112 z m 9.85429,-4.77662 c 0,-2.67758 0.0107,-3.77295 0.0238,-2.43416 0.0131,1.33879 0.0131,3.52954 0,4.86833 -0.0131,1.33879 -0.0238,0.24342 -0.0238,-2.43417 z"
         id="path1423"
         inkscape:connector-curvature="0" />
      <path
         style="fill:#d6d6d6;stroke-width:0.08466667"
         d="m 171.50442,200.79879 c 0,-0.0176 0.0667,-0.0842 0.14817,-0.14816 0.13428,-0.10532 0.13728,-0.10232 0.032,0.032 -0.1106,0.14104 -0.18013,0.18589 -0.18013,0.1162 z m 80.5072,-5.9582 c -0.10531,-0.13428 -0.10232,-0.13728 0.032,-0.032 0.14103,0.1106 0.18588,0.18013 0.11619,0.18013 -0.0176,0 -0.0843,-0.0667 -0.14816,-0.14817 z m -77.55467,-0.0847 c -0.10531,-0.13429 -0.10232,-0.13728 0.032,-0.032 0.0815,0.0639 0.14817,0.13059 0.14817,0.14817 0,0.0697 -0.0695,0.0248 -0.18014,-0.1162 z m 2.5508,0.1162 c 0,-0.0176 0.0667,-0.0843 0.14817,-0.14817 0.13429,-0.10531 0.13728,-0.10232 0.032,0.032 -0.11061,0.14103 -0.18014,0.18588 -0.18014,0.1162 z m 2.19054,-0.1162 c -0.10532,-0.13429 -0.10232,-0.13728 0.032,-0.032 0.0815,0.0639 0.14817,0.13059 0.14817,0.14817 0,0.0697 -0.0695,0.0248 -0.18013,-0.1162 z m 16.93333,0 c -0.10531,-0.13429 -0.10232,-0.13728 0.032,-0.032 0.0815,0.0639 0.14816,0.13059 0.14816,0.14817 0,0.0697 -0.0695,0.0248 -0.18013,-0.1162 z m 7.29213,0.1162 c 0,-0.0176 0.0667,-0.0843 0.14817,-0.14817 0.13429,-0.10531 0.13728,-0.10232 0.032,0.032 -0.11061,0.14103 -0.18014,0.18588 -0.18014,0.1162 z m 7.14629,-0.15854 -0.16129,-0.1905 0.1905,0.16129 c 0.10478,0.0887 0.1905,0.17444 0.1905,0.1905 0,0.0678 -0.0681,0.0177 -0.21971,-0.16129 z m 26.17005,0.0212 c 0.0843,-0.0931 0.17229,-0.16933 0.19558,-0.16933 0.0233,0 -0.0266,0.0762 -0.11092,0.16933 -0.0843,0.0931 -0.17229,0.16933 -0.19558,0.16933 -0.0233,0 0.0266,-0.0762 0.11092,-0.16933 z m -52.62034,-3.58797 c 0,-0.0176 0.0667,-0.0842 0.14817,-0.14816 0.13429,-0.10532 0.13728,-0.10232 0.032,0.032 -0.11061,0.14104 -0.18014,0.18589 -0.18014,0.1162 z m 5.16467,0 c 0,-0.0176 0.0667,-0.0842 0.14817,-0.14816 0.13428,-0.10532 0.13728,-0.10232 0.032,0.032 -0.1106,0.14104 -0.18013,0.18589 -0.18013,0.1162 z m 9.55653,-0.1162 c -0.10531,-0.13428 -0.10232,-0.13728 0.032,-0.032 0.0815,0.0639 0.14817,0.13058 0.14817,0.14816 0,0.0697 -0.0695,0.0248 -0.18014,-0.1162 z m -7.112,-0.0847 c -0.10531,-0.13429 -0.10232,-0.13728 0.032,-0.032 0.14103,0.11061 0.18588,0.18013 0.1162,0.18013 -0.0176,0 -0.0843,-0.0667 -0.14817,-0.14816 z"
         id="path1421"
         inkscape:connector-curvature="0" />
      <path
         style="fill:#bcbcbc;stroke-width:0.08466667"
         d="m 198.82919,204.41609 c 0.18906,-0.0407 0.18911,-0.0412 0.21386,-2.25754 l 0.0248,-2.21679 -0.002,2.24367 -0.002,2.24366 -0.21167,0.0139 c -0.1838,0.012 -0.18677,0.009 -0.0226,-0.0269 z m -24.32303,-3.20433 c -2e-5,-1.76953 0.0112,-2.50547 0.025,-1.63541 0.0138,0.87006 0.0138,2.31786 4e-5,3.21734 -0.0137,0.89947 -0.025,0.1876 -0.025,-1.58193 z m 13.29449,0.93133 c 0.002,-2.14137 0.007,-2.20156 0.17144,-2.20965 0.12606,-0.006 0.13182,6.8e-4 0.0226,0.0269 -0.13372,0.0321 -0.14897,0.22858 -0.17144,2.20966 l -0.0247,2.17446 0.002,-2.20134 z m 0.50163,1.016 c 9e-5,-0.6985 0.0132,-0.97298 0.0291,-0.60996 0.0159,0.36302 0.0158,0.93452 -2.5e-4,1.27 -0.016,0.33548 -0.029,0.0385 -0.0289,-0.66004 z m 12.45237,-1.016 c 0.002,-2.14137 0.007,-2.20156 0.17144,-2.20965 0.12606,-0.006 0.13182,6.8e-4 0.0226,0.0269 -0.13372,0.0321 -0.14897,0.22858 -0.17144,2.20966 l -0.0247,2.17446 0.002,-2.20134 z m 0.50163,1.016 c 9e-5,-0.6985 0.0132,-0.97298 0.0291,-0.60996 0.0159,0.36302 0.0158,0.93452 -2.5e-4,1.27 -0.016,0.33548 -0.029,0.0385 -0.0289,-0.66004 z m -30.66184,-0.93133 c 9.4e-4,-0.18627 0.0183,-0.2525 0.0385,-0.14718 0.0203,0.10532 0.0195,0.25772 -0.002,0.33867 -0.0212,0.081 -0.0378,-0.005 -0.0368,-0.19149 z m 3.38496,-0.0423 c 0,-0.16299 0.0174,-0.22966 0.0387,-0.14817 0.0213,0.0815 0.0213,0.21484 0,0.29633 -0.0213,0.0815 -0.0387,0.0148 -0.0387,-0.14816 z m -2.88495,0 c 0,-0.11642 0.0192,-0.16404 0.0427,-0.10584 0.0235,0.0582 0.0235,0.15346 0,0.21167 -0.0235,0.0582 -0.0427,0.0106 -0.0427,-0.10583 z m 27.45228,-1.016 c 0,-0.67522 0.0131,-0.95144 0.0292,-0.61384 0.0161,0.33761 0.0161,0.89006 0,1.22767 -0.0161,0.33761 -0.0292,0.0614 -0.0292,-0.61383 z m 5.22237,0.11994 c 0.004,-0.0986 0.0241,-0.11869 0.0512,-0.0511 0.0245,0.0611 0.0215,0.13414 -0.007,0.16228 -0.0281,0.0281 -0.0481,-0.0219 -0.0445,-0.11113 z m -22.26733,-0.762 c 0.004,-0.0986 0.0241,-0.11869 0.0512,-0.0511 0.0245,0.0611 0.0214,0.13414 -0.007,0.16228 -0.0281,0.0281 -0.0481,-0.0219 -0.0445,-0.11113 z m -7.50794,-1.22061 c 0,-0.72178 0.013,-1.01706 0.0289,-0.65617 0.0159,0.3609 0.0159,0.95145 0,1.31234 -0.0159,0.36089 -0.0289,0.0656 -0.0289,-0.65617 z m 9.38043,0.889 c 0.002,-0.1397 0.0207,-0.1866 0.0422,-0.10422 0.0215,0.0824 0.02,0.19668 -0.003,0.254 -0.0232,0.0573 -0.0408,-0.0101 -0.039,-0.14978 z m 3.20751,-0.0177 c -0.006,-0.17492 -0.0521,-0.18893 -0.70518,-0.2156 l -0.6985,-0.0285 0.70115,-0.0172 c 0.71573,-0.0176 0.86869,0.0514 0.75285,0.33981 -0.024,0.0597 -0.0466,0.0244 -0.0503,-0.0785 z m -5.44652,-0.25 c 0.0582,-0.0235 0.15346,-0.0235 0.21167,0 0.0582,0.0235 0.0106,0.0427 -0.10583,0.0427 -0.11642,0 -0.16405,-0.0192 -0.10584,-0.0427 z m 2.921,-0.005 c 0.12806,-0.0194 0.33761,-0.0194 0.46567,0 0.12806,0.0194 0.0233,0.0353 -0.23283,0.0353 -0.25612,0 -0.3609,-0.0159 -0.23284,-0.0353 z m 13.25563,-4.65386 c 0.0611,-0.0245 0.13414,-0.0214 0.16228,0.007 0.0281,0.0281 -0.0219,0.0481 -0.11113,0.0445 -0.0986,-0.004 -0.11869,-0.0241 -0.0512,-0.0512 z m 0.42333,0 c 0.0611,-0.0245 0.13415,-0.0214 0.16228,0.007 0.0281,0.0281 -0.0219,0.0481 -0.11113,0.0445 -0.0986,-0.004 -0.11869,-0.0241 -0.0512,-0.0512 z m 4.318,0 c 0.0611,-0.0245 0.13415,-0.0214 0.16228,0.007 0.0281,0.0281 -0.0219,0.0481 -0.11113,0.0445 -0.0986,-0.004 -0.11869,-0.0241 -0.0512,-0.0512 z m 0.33867,0 c 0.0611,-0.0245 0.13414,-0.0214 0.16228,0.007 0.0281,0.0281 -0.0219,0.0481 -0.11113,0.0445 -0.0986,-0.004 -0.11869,-0.0241 -0.0512,-0.0512 z m 16.04065,-8.5e-4 c 0.0824,-0.0215 0.19668,-0.02 0.254,0.003 0.0573,0.0232 -0.0101,0.0408 -0.14978,0.039 -0.1397,-0.002 -0.1866,-0.0207 -0.10422,-0.0422 z m 24.68401,8.5e-4 c 0.0611,-0.0245 0.13415,-0.0214 0.16229,0.007 0.0281,0.0281 -0.0219,0.0481 -0.11113,0.0445 -0.0986,-0.004 -0.11869,-0.0241 -0.0512,-0.0512 z m 0.42334,0 c 0.0611,-0.0245 0.13414,-0.0214 0.16228,0.007 0.0281,0.0281 -0.0219,0.0481 -0.11113,0.0445 -0.0986,-0.004 -0.11869,-0.0241 -0.0511,-0.0512 z m 9.48266,0 c 0.0611,-0.0245 0.13415,-0.0214 0.16229,0.007 0.0281,0.0281 -0.0219,0.0481 -0.11113,0.0445 -0.0986,-0.004 -0.11869,-0.0241 -0.0512,-0.0512 z m 0.33867,0 c 0.0611,-0.0245 0.13415,-0.0214 0.16228,0.007 0.0281,0.0281 -0.0219,0.0481 -0.11112,0.0445 -0.0986,-0.004 -0.1187,-0.0241 -0.0512,-0.0512 z m 2.11667,-0.0847 c 0.0611,-0.0245 0.13414,-0.0215 0.16228,0.007 0.0281,0.0281 -0.0219,0.0481 -0.11113,0.0445 -0.0986,-0.004 -0.11869,-0.0241 -0.0512,-0.0512 z m -71.99701,-3.24416 c 0,-1.79282 0.0112,-2.52624 0.0249,-1.62983 0.0137,0.89641 0.0137,2.36326 0,3.25966 -0.0137,0.89641 -0.0249,0.16299 -0.0249,-1.62983 z m 0.50363,1.94733 c 0,-0.72178 0.013,-1.01705 0.0289,-0.65616 0.0159,0.36089 0.0159,0.95144 0,1.31233 -0.0159,0.36089 -0.0289,0.0656 -0.0289,-0.65617 z m 3.04936,-0.33866 c 0,-0.90805 0.0125,-1.27953 0.0277,-0.8255 0.0152,0.45402 0.0152,1.19697 0,1.651 -0.0152,0.45402 -0.0277,0.0825 -0.0277,-0.8255 z m 1.6102,-0.59267 c 0,-1.23402 0.0118,-1.73884 0.0263,-1.12183 0.0145,0.61701 0.0145,1.62666 0,2.24366 -0.0145,0.61701 -0.0263,0.11219 -0.0263,-1.12183 z m 0.50467,1.016 c 0,-0.67522 0.0131,-0.95144 0.0292,-0.61383 0.0161,0.33761 0.0161,0.89006 0,1.22766 -0.0161,0.33761 -0.0292,0.0614 -0.0292,-0.61383 z m 5.25267,-1.016 c 0,-1.23402 0.0118,-1.73884 0.0263,-1.12183 0.0145,0.61701 0.0145,1.62666 0,2.24366 -0.0145,0.61701 -0.0263,0.11219 -0.0263,-1.12183 z m 44.19599,0 c 0,-1.23402 0.0118,-1.73884 0.0263,-1.12183 0.0145,0.61701 0.0145,1.62666 0,2.24366 -0.0145,0.61701 -0.0263,0.11219 -0.0263,-1.12183 z m 0.50468,1.016 c 0,-0.67522 0.0131,-0.95144 0.0292,-0.61383 0.0161,0.33761 0.0161,0.89006 0,1.22766 -0.0161,0.33761 -0.0292,0.0614 -0.0292,-0.61383 z m 16.65905,1.016 c 0,-0.11642 0.0192,-0.16404 0.0427,-0.10583 0.0235,0.0582 0.0235,0.15346 0,0.21166 -0.0235,0.0582 -0.0427,0.0106 -0.0427,-0.10583 z m -35.72933,-0.16933 c 0,-0.11642 0.0192,-0.16404 0.0427,-0.10584 0.0235,0.0582 0.0235,0.15346 0,0.21167 -0.0235,0.0582 -0.0427,0.0106 -0.0427,-0.10583 z m 24.55333,-0.84667 c 0,-0.11642 0.0192,-0.16404 0.0427,-0.10583 0.0235,0.0582 0.0235,0.15346 0,0.21166 -0.0235,0.0582 -0.0427,0.0106 -0.0427,-0.10583 z m -48.5697,-0.16933 -0.254,-0.0646 0.22784,-0.01 c 0.12531,-0.006 0.25138,0.0281 0.28016,0.0746 0.0288,0.0466 0.0405,0.0802 0.0262,0.0747 -0.0144,-0.006 -0.14046,-0.0391 -0.28016,-0.0747 z m 45.61578,-0.0587 c 0.0824,-0.0215 0.19668,-0.02 0.254,0.003 0.0573,0.0232 -0.0101,0.0408 -0.14978,0.039 -0.1397,-0.002 -0.1866,-0.0207 -0.10422,-0.0422 z m -40.82543,-0.49871 c 0.004,-0.0986 0.0241,-0.1187 0.0512,-0.0512 0.0245,0.0611 0.0214,0.13414 -0.007,0.16227 -0.0281,0.0281 -0.0481,-0.0219 -0.0445,-0.11112 z m -26.99113,-0.33161 c 6.7e-4,-0.23284 0.0171,-0.31804 0.0365,-0.18934 0.0195,0.1287 0.0189,0.3192 -10e-4,0.42333 -0.0201,0.10414 -0.036,-0.001 -0.0354,-0.23399 z m 0.49046,0.24694 c 0.004,-0.0986 0.0241,-0.11869 0.0512,-0.0512 0.0245,0.0611 0.0215,0.13414 -0.007,0.16228 -0.0281,0.0281 -0.0481,-0.0219 -0.0445,-0.11113 z m 35.64467,0 c 0.004,-0.0986 0.0241,-0.11869 0.0512,-0.0512 0.0245,0.0611 0.0214,0.13414 -0.007,0.16228 -0.0281,0.0281 -0.0481,-0.0219 -0.0445,-0.11113 z m 23.46563,-0.20461 c 0,-0.16298 0.0174,-0.22966 0.0387,-0.14817 0.0213,0.0815 0.0213,0.21485 0,0.29634 -0.0213,0.0815 -0.0387,0.0148 -0.0387,-0.14817 z m -55.70896,-0.21167 c 9.4e-4,-0.18626 0.0183,-0.25249 0.0385,-0.14718 0.0203,0.10532 0.0195,0.25772 -0.002,0.33867 -0.0212,0.081 -0.0378,-0.005 -0.0368,-0.19149 z m 36.15096,0.0423 c 0,-0.16299 0.0174,-0.22966 0.0387,-0.14817 0.0213,0.0815 0.0213,0.21484 0,0.29633 -0.0213,0.0815 -0.0387,0.0148 -0.0387,-0.14816 z m 39.33448,0.19616 c 0.0611,-0.0245 0.13414,-0.0214 0.16228,0.007 0.0281,0.0281 -0.0219,0.0481 -0.11113,0.0445 -0.0986,-0.004 -0.11869,-0.0241 -0.0512,-0.0512 z m 1.26471,-0.0829 c 0.0582,-0.0235 0.15346,-0.0235 0.21166,0 0.0582,0.0235 0.0106,0.0427 -0.10583,0.0427 -0.11642,0 -0.16404,-0.0192 -0.10583,-0.0427 z m -44.50682,-0.24732 c 0.004,-0.0986 0.0241,-0.11869 0.0512,-0.0512 0.0245,0.0611 0.0214,0.13414 -0.007,0.16228 -0.0281,0.0281 -0.0481,-0.0219 -0.0445,-0.11113 z m -9.144,-0.0847 c 0.004,-0.0986 0.0241,-0.11869 0.0512,-0.0512 0.0245,0.0611 0.0214,0.13415 -0.007,0.16228 -0.0281,0.0281 -0.0481,-0.0219 -0.0445,-0.11113 z m 53.06344,-0.0931 c 0.0611,-0.0245 0.13415,-0.0215 0.16228,0.007 0.0281,0.0281 -0.0219,0.0481 -0.11112,0.0445 -0.0986,-0.004 -0.1187,-0.0241 -0.0512,-0.0511 z M 186.4971,192.0607 c 0.004,-0.0986 0.0241,-0.11869 0.0512,-0.0512 0.0245,0.0611 0.0214,0.13415 -0.007,0.16228 -0.0281,0.0281 -0.0482,-0.0219 -0.0445,-0.11113 z m 9.398,-0.16933 c 0.004,-0.0986 0.0241,-0.11869 0.0512,-0.0512 0.0245,0.0611 0.0215,0.13414 -0.007,0.16228 -0.0281,0.0281 -0.0481,-0.0219 -0.0445,-0.11113 z m -11.91041,-1.85561 c 9e-5,-0.74507 0.0131,-1.03853 0.0288,-0.65215 0.0157,0.38639 0.0156,0.99599 -1.7e-4,1.35467 -0.0159,0.35868 -0.0287,0.0426 -0.0286,-0.70252 z m -8.30883,0.99966 c 0.0824,-0.0215 0.19668,-0.02 0.254,0.003 0.0573,0.0232 -0.0101,0.0408 -0.14977,0.039 -0.1397,-0.002 -0.1866,-0.0207 -0.10423,-0.0422 z m 9.652,0 c 0.0824,-0.0215 0.19668,-0.02 0.254,0.003 0.0573,0.0232 -0.0101,0.0408 -0.14977,0.039 -0.1397,-0.002 -0.1866,-0.0207 -0.10423,-0.0422 z m 12.06438,-10e-4 c 0.10532,-0.0203 0.25772,-0.0195 0.33867,0.002 0.081,0.0212 -0.005,0.0378 -0.19149,0.0368 -0.18627,-9.4e-4 -0.2525,-0.0183 -0.14718,-0.0385 z m 9.60868,0.002 c 0.0815,-0.0213 0.21484,-0.0213 0.29633,0 0.0815,0.0213 0.0148,0.0387 -0.14816,0.0387 -0.16299,0 -0.22966,-0.0174 -0.14817,-0.0387 z m 4.82761,-3.1e-4 c 0.0824,-0.0215 0.19668,-0.0201 0.254,0.003 0.0573,0.0232 -0.0101,0.0408 -0.14978,0.039 -0.1397,-0.002 -0.1866,-0.0207 -0.10422,-0.0422 z m 23.45267,0 c 0.0824,-0.0215 0.19668,-0.0201 0.254,0.003 0.0573,0.0232 -0.0101,0.0408 -0.14978,0.039 -0.1397,-0.002 -0.1866,-0.0207 -0.10422,-0.0422 z m 5.66639,-0.15299 c 0.002,-0.1397 0.0207,-0.1866 0.0422,-0.10423 0.0215,0.0824 0.0201,0.19668 -0.003,0.254 -0.0232,0.0573 -0.0408,-0.0101 -0.039,-0.14977 z m 2.206,0.1533 c 0.0815,-0.0213 0.21484,-0.0213 0.29633,0 0.0815,0.0213 0.0148,0.0387 -0.14817,0.0387 -0.16298,0 -0.22966,-0.0174 -0.14816,-0.0387 z m 4.90287,-0.11097 c 0,-0.11642 0.0192,-0.16404 0.0427,-0.10583 0.0235,0.0582 0.0235,0.15346 0,0.21166 -0.0235,0.0582 -0.0427,0.0106 -0.0427,-0.10583 z m 5.46978,0.10945 c 0.10532,-0.0203 0.25772,-0.0195 0.33867,0.002 0.0809,0.0212 -0.005,0.0378 -0.19149,0.0368 -0.18627,-9.4e-4 -0.2525,-0.0183 -0.14718,-0.0385 z m 5.53688,-0.10945 c 0,-0.11642 0.0192,-0.16404 0.0427,-0.10583 0.0235,0.0582 0.0235,0.15346 0,0.21166 -0.0235,0.0582 -0.0427,0.0106 -0.0427,-0.10583 z m -18.61726,-0.31267 c 0.0824,-0.0215 0.19668,-0.0201 0.254,0.003 0.0573,0.0232 -0.0101,0.0408 -0.14977,0.039 -0.1397,-0.002 -0.1866,-0.0207 -0.10423,-0.0422 z m 12.10573,-1.31716 c 0.0195,-0.254 0.044,-0.27517 0.3175,-0.27517 0.27354,0 0.29796,0.0212 0.3175,0.27517 0.0209,0.27128 0.0205,0.27158 -0.0265,0.0212 -0.0399,-0.21222 -0.0877,-0.254 -0.29096,-0.254 -0.20326,0 -0.25112,0.0418 -0.29097,0.254 -0.047,0.25042 -0.0474,0.25012 -0.0265,-0.0212 z m -58.08115,-0.10584 c 9.4e-4,-0.18626 0.0183,-0.25249 0.0385,-0.14718 0.0203,0.10532 0.0195,0.25772 -0.002,0.33867 -0.0212,0.081 -0.0378,-0.005 -0.0368,-0.19149 z m 59.85915,-0.18536 c 0.0815,-0.0213 0.21484,-0.0213 0.29633,0 0.0815,0.0213 0.0148,0.0387 -0.14817,0.0387 -0.16298,0 -0.22966,-0.0174 -0.14816,-0.0387 z"
         id="path1419"
         inkscape:connector-curvature="0" />
      <path
         style="fill:#c4db91;stroke-width:0.08466667"
         d="m 163.79975,203.15909 c 0.10937,-0.11641 0.2179,-0.21166 0.24119,-0.21166 0.0233,0 -0.0472,0.0952 -0.15652,0.21166 -0.10937,0.11642 -0.2179,0.21167 -0.24118,0.21167 -0.0233,0 0.0472,-0.0952 0.15651,-0.21167 z"
         id="path1417"
         inkscape:connector-curvature="0" />
      <path
         style="fill:#beda89;stroke-width:0.08466667"
         d="m 157.89425,201.78353 c 0.54716,-0.0147 1.44251,-0.0147 1.98967,0 0.54716,0.0147 0.0995,0.0268 -0.99483,0.0268 -1.09432,0 -1.542,-0.0121 -0.99484,-0.0268 z m 4.59038,-6.4561 c 0,-2.58445 0.0108,-3.64173 0.0239,-2.3495 0.0131,1.29222 0.0131,3.40677 0,4.699 -0.0131,1.29222 -0.0239,0.23495 -0.0239,-2.3495 z m -21.82004,-2.09499 c 0.38417,-0.0157 1.01282,-0.0157 1.397,0 0.38417,0.0157 0.0699,0.0285 -0.6985,0.0285 -0.76835,0 -1.08268,-0.0128 -0.6985,-0.0285 z m 6.477,-4.3e-4 c 1.01282,-0.0135 2.67017,-0.0135 3.683,0 1.01282,0.0135 0.18415,0.0246 -1.8415,0.0246 -2.02565,0 -2.85433,-0.0111 -1.8415,-0.0246 z"
         id="path1415"
         inkscape:connector-curvature="0" />
      <path
         style="fill:#979797;stroke-width:0.08466667"
         d="m 176.40429,203.98459 c -0.10532,-0.13428 -0.10232,-0.13728 0.032,-0.032 0.0815,0.0639 0.14817,0.13058 0.14817,0.14816 0,0.0697 -0.0695,0.0248 -0.18013,-0.1162 z m 2.5508,0.1162 c 0,-0.0176 0.0667,-0.0842 0.14816,-0.14816 0.13429,-0.10532 0.13728,-0.10232 0.032,0.032 -0.11061,0.14104 -0.18013,0.18589 -0.18013,0.1162 z m -5.588,-0.33866 c 0,-0.0176 0.0667,-0.0843 0.14816,-0.14817 0.13429,-0.10531 0.13728,-0.10232 0.032,0.032 -0.11061,0.14103 -0.18013,0.18588 -0.18013,0.1162 z m 5.24933,0 c 0,-0.0176 0.0667,-0.0843 0.14817,-0.14817 0.13428,-0.10531 0.13728,-0.10232 0.032,0.032 -0.1106,0.14103 -0.18013,0.18588 -0.18013,0.1162 z m 0.41253,-3.4182 c -0.10531,-0.13429 -0.10232,-0.13728 0.032,-0.032 0.14103,0.11061 0.18588,0.18013 0.1162,0.18013 -0.0176,0 -0.0843,-0.0667 -0.14817,-0.14816 z m 9.4088,0.0315 c 0,-0.0176 0.0667,-0.0843 0.14817,-0.14817 0.13429,-0.10531 0.13728,-0.10232 0.032,0.032 -0.11061,0.14103 -0.18014,0.18588 -0.18014,0.1162 z m 2.794,0 c 0,-0.0176 0.0667,-0.0843 0.14817,-0.14817 0.13429,-0.10531 0.13728,-0.10232 0.032,0.032 -0.11061,0.14103 -0.18014,0.18588 -0.18014,0.1162 z m 53.42467,-5.50333 c 0,-0.0176 0.0667,-0.0843 0.14817,-0.14817 0.13429,-0.10531 0.13728,-0.10232 0.032,0.032 -0.11061,0.14103 -0.18014,0.18588 -0.18014,0.1162 z m 7.28133,-1.778 c 0,-0.0176 0.0667,-0.0843 0.14817,-0.14817 0.13429,-0.10531 0.13728,-0.10232 0.032,0.032 -0.11061,0.14103 -0.18014,0.18588 -0.18014,0.1162 z m -77.30066,-1.524 c 0,-0.0176 0.0667,-0.0843 0.14816,-0.14817 0.13429,-0.10531 0.13728,-0.10232 0.032,0.032 -0.11061,0.14103 -0.18013,0.18588 -0.18013,0.1162 z m 38.17386,-0.20087 c -0.10531,-0.13429 -0.10232,-0.13728 0.032,-0.032 0.14103,0.11061 0.18588,0.18014 0.1162,0.18014 -0.0176,0 -0.0843,-0.0667 -0.14817,-0.14817 z m 23.83643,-0.29633 -0.16129,-0.1905 0.1905,0.16129 c 0.17902,0.15157 0.22904,0.21971 0.16129,0.21971 -0.0161,0 -0.1018,-0.0857 -0.1905,-0.1905 z"
         id="path1413"
         inkscape:connector-curvature="0" />
      <path
         style="fill:#a2c952;stroke-width:0.08466667"
         d="m 148.58599,203.92109 c 5.1e-4,-0.2794 0.0163,-0.38349 0.0351,-0.23131 0.0189,0.15217 0.0185,0.38077 -8.6e-4,0.508 -0.0193,0.12722 -0.0347,0.003 -0.0343,-0.27669 z m 5.04296,-1.03716 c -0.10531,-0.13429 -0.10232,-0.13728 0.032,-0.032 0.0815,0.0639 0.14817,0.13059 0.14817,0.14817 0,0.0697 -0.0695,0.0248 -0.18014,-0.1162 z m -6.1487,-1.0994 c 0.22119,-0.0174 0.58315,-0.0174 0.80434,0 0.22119,0.0174 0.0402,0.0317 -0.40217,0.0317 -0.44238,0 -0.62336,-0.0143 -0.40217,-0.0317 z m 9.2763,0.004 c 0.0611,-0.0245 0.13414,-0.0214 0.16227,0.007 0.0281,0.0281 -0.0219,0.0481 -0.11112,0.0445 -0.0986,-0.004 -0.1187,-0.0241 -0.0512,-0.0512 z m -14.03211,-1.51555 c 0.004,-0.0986 0.0241,-0.11869 0.0512,-0.0512 0.0245,0.0611 0.0215,0.13414 -0.007,0.16228 -0.0281,0.0281 -0.0481,-0.0219 -0.0445,-0.11113 z m 9.93806,-3.46428 c 2e-5,-1.9558 0.0111,-2.74381 0.0247,-1.75113 0.0135,0.99268 0.0135,2.59288 -4e-5,3.556 -0.0136,0.96312 -0.0247,0.15093 -0.0246,-1.80487 z m 9.78927,3.29495 c 0.004,-0.0986 0.0241,-0.1187 0.0511,-0.0512 0.0245,0.0611 0.0215,0.13414 -0.007,0.16227 -0.0281,0.0281 -0.0481,-0.0219 -0.0445,-0.11112 z m -21.78718,-9.49627 c 0.38417,-0.0157 1.01282,-0.0157 1.397,0 0.38417,0.0157 0.0699,0.0285 -0.6985,0.0285 -0.76835,0 -1.08268,-0.0128 -0.6985,-0.0285 z m 7.16039,-4.7e-4 c 1.38869,-0.0131 3.63659,-0.0131 4.99533,2e-5 1.35875,0.0131 0.22254,0.0238 -2.52489,0.0237 -2.74743,-1e-5 -3.85913,-0.0107 -2.47044,-0.0238 z m 15.31861,5.3e-4 c 0.36089,-0.0159 0.95144,-0.0159 1.31233,0 0.36089,0.0159 0.0656,0.0289 -0.65617,0.0289 -0.72178,0 -1.01706,-0.013 -0.65616,-0.0289 z"
         id="path1411"
         inkscape:connector-curvature="0" />
      <path
         style="fill:#7b7b7b;stroke-width:0.08466667"
         d="m 174.19259,204.41535 c 0.0582,-0.0235 0.15345,-0.0235 0.21166,0 0.0582,0.0235 0.0106,0.0427 -0.10583,0.0427 -0.11642,0 -0.16404,-0.0192 -0.10583,-0.0427 z m 7.10976,-0.005 c 0.18276,-0.0337 0.18906,-0.0705 0.21519,-1.25711 l 0.0269,-1.22236 -0.004,1.24894 -0.004,1.24893 -0.21167,0.008 c -0.17956,0.007 -0.18311,0.003 -0.0234,-0.0266 z m 6.65018,0.002 c 0.0824,-0.0215 0.19668,-0.0201 0.254,0.003 0.0573,0.0232 -0.0101,0.0408 -0.14978,0.039 -0.1397,-0.002 -0.1866,-0.0207 -0.10422,-0.0422 z m 2.83472,0.003 c 0.0582,-0.0235 0.15346,-0.0235 0.21167,0 0.0582,0.0235 0.0106,0.0427 -0.10583,0.0427 -0.11642,0 -0.16405,-0.0192 -0.10584,-0.0427 z m 2.68348,-0.0526 c -0.0229,-0.0598 -0.0303,-0.7932 -0.0164,-1.62984 l 0.0253,-1.52115 0.0191,1.58188 0.0191,1.58187 0.23284,0.0353 0.23283,0.0353 -0.23549,0.0127 c -0.12952,0.007 -0.25426,-0.0362 -0.2772,-0.096 z m 7.4358,0.05 c 0.0824,-0.0215 0.19668,-0.02 0.254,0.003 0.0573,0.0232 -0.0101,0.0408 -0.14978,0.039 -0.1397,-0.002 -0.1866,-0.0207 -0.10422,-0.0422 z m 3.17146,-0.002 c 0.18522,-0.0342 0.18903,-0.0609 0.21468,-1.51107 l 0.0261,-1.47631 -0.003,1.50291 -0.003,1.5029 -0.21166,0.008 c -0.18019,0.007 -0.18363,0.003 -0.0231,-0.0266 z m 5.08193,0.005 0.1905,-0.0409 v -3.16349 -3.16349 l -0.23283,-0.039 c -0.22123,-0.0371 -0.22017,-0.0384 0.0212,-0.0268 l 0.254,0.0122 v 3.21734 3.21733 l -0.21166,0.0139 c -0.18653,0.0122 -0.18904,0.009 -0.0212,-0.0271 z m -0.22615,-0.33253 c 0.004,-0.0986 0.0241,-0.1187 0.0511,-0.0512 0.0245,0.0611 0.0215,0.13415 -0.007,0.16228 -0.0281,0.0281 -0.0481,-0.0219 -0.0445,-0.11112 z m -24.18653,-2.23662 c 0,-0.81492 0.0127,-1.14829 0.0282,-0.74083 0.0155,0.40746 0.0155,1.07421 0,1.48166 -0.0155,0.40746 -0.0282,0.0741 -0.0282,-0.74083 z m 10.75738,-0.33867 0.003,-1.56633 0.21167,-0.008 c 0.18036,-0.007 0.18376,-0.003 0.023,0.0266 -0.18575,0.0343 -0.18905,0.0585 -0.21447,1.57451 l -0.0258,1.53972 z m 3.01515,0.96662 c 0.004,-0.0986 0.0241,-0.1187 0.0512,-0.0512 0.0245,0.0611 0.0214,0.13415 -0.007,0.16228 -0.0281,0.0281 -0.0481,-0.0219 -0.0445,-0.11112 z m -15.64724,-2.12596 c 0.0824,-0.0215 0.19668,-0.02 0.254,0.003 0.0573,0.0232 -0.0101,0.0408 -0.14978,0.039 -0.1397,-0.002 -0.1866,-0.0207 -0.10422,-0.0422 z m 6.64472,-0.0821 c 0.0582,-0.0235 0.15346,-0.0235 0.21167,0 0.0582,0.0235 0.0106,0.0427 -0.10583,0.0427 -0.11642,0 -0.16405,-0.0192 -0.10584,-0.0427 z m 2.88396,-0.002 c 0.0611,-0.0245 0.13415,-0.0214 0.16228,0.007 0.0281,0.0281 -0.0219,0.0481 -0.11113,0.0445 -0.0986,-0.004 -0.11869,-0.0241 -0.0512,-0.0512 z m 6.30399,-0.33951 c 0.0824,-0.0215 0.19668,-0.02 0.254,0.003 0.0573,0.0232 -0.0101,0.0408 -0.14978,0.039 -0.1397,-0.002 -0.1866,-0.0207 -0.10422,-0.0422 z m -13.965,-0.57633 c 3.4e-4,-0.32596 0.0157,-0.44894 0.034,-0.27327 0.0183,0.17566 0.018,0.44236 -6.8e-4,0.59266 -0.0187,0.15031 -0.0337,0.007 -0.0333,-0.31939 z m -10.58834,-1.371 c 0.0824,-0.0215 0.19668,-0.0201 0.254,0.003 0.0573,0.0232 -0.0101,0.0408 -0.14977,0.039 -0.1397,-0.002 -0.1866,-0.0207 -0.10423,-0.0422 z m 18.04667,-4.42866 c 0,-0.90805 0.0125,-1.27953 0.0277,-0.8255 0.0152,0.45402 0.0152,1.19697 0,1.651 -0.0152,0.45402 -0.0277,0.0825 -0.0277,-0.8255 z m 1.69487,-0.59267 c 0,-1.23402 0.0118,-1.73884 0.0263,-1.12183 0.0145,0.61701 0.0145,1.62666 0,2.24366 -0.0145,0.61701 -0.0263,0.11219 -0.0263,-1.12183 z m 11.76576,0.93133 c 0,-0.72178 0.013,-1.01705 0.0289,-0.65616 0.0159,0.36089 0.0159,0.95144 0,1.31233 -0.0159,0.36089 -0.0289,0.0656 -0.0289,-0.65617 z m 16.59757,-0.93133 c 0,-1.23402 0.0118,-1.73884 0.0263,-1.12183 0.0145,0.61701 0.0145,1.62666 0,2.24366 -0.0145,0.61701 -0.0263,0.11219 -0.0263,-1.12183 z m 3.04631,0.635 c 0,-0.88477 0.0126,-1.23521 0.0279,-0.77877 0.0153,0.45645 0.0152,1.18035 0,1.60867 -0.0153,0.42832 -0.0278,0.0549 -0.0277,-0.8299 z m -52.17659,1.31233 c 0,-0.11641 0.0192,-0.16404 0.0427,-0.10583 0.0235,0.0582 0.0235,0.15346 0,0.21167 -0.0235,0.0582 -0.0427,0.0106 -0.0427,-0.10584 z m -0.75259,-0.14334 c 0.0824,-0.0215 0.19668,-0.02 0.254,0.003 0.0573,0.0232 -0.0101,0.0408 -0.14977,0.039 -0.1397,-0.002 -0.1866,-0.0207 -0.10423,-0.0422 z m 77.72239,3.4e-4 c 0.0815,-0.0213 0.21484,-0.0213 0.29634,0 0.0815,0.0213 0.0148,0.0387 -0.14817,0.0387 -0.16298,0 -0.22966,-0.0174 -0.14817,-0.0387 z m 8.21267,0 c 0.0815,-0.0213 0.21484,-0.0213 0.29633,0 0.0815,0.0213 0.0148,0.0387 -0.14816,0.0387 -0.16299,0 -0.22966,-0.0174 -0.14817,-0.0387 z m -38.32922,-0.18981 c -0.0268,-0.0434 -0.01,-0.10275 0.0373,-0.132 0.0473,-0.0292 0.0861,0.006 0.0861,0.0788 0,0.14872 -0.0508,0.17061 -0.12339,0.0532 z m 37.22636,-1.88526 -0.019,-1.49841 -0.4445,-0.0311 -0.4445,-0.0311 0.44716,-0.0157 c 0.29854,-0.0105 0.46105,0.0205 0.48895,0.0933 0.023,0.0599 0.0303,0.75524 0.0163,1.54516 l -0.0255,1.43623 z m -85.49297,-0.11026 0.003,-1.43933 0.635,-0.005 0.635,-0.005 -0.61184,0.03 -0.61185,0.03 -0.0262,1.41464 -0.0262,1.41464 0.003,-1.43933 z m 28.59935,0.33867 c 9.4e-4,-0.18627 0.0183,-0.2525 0.0385,-0.14718 0.0203,0.10532 0.0195,0.25772 -0.002,0.33866 -0.0212,0.081 -0.0378,-0.005 -0.0368,-0.19148 z m 53.80548,-0.0137 c 0.0582,-0.0235 0.15346,-0.0235 0.21167,0 0.0582,0.0235 0.0106,0.0427 -0.10584,0.0427 -0.11641,0 -0.16404,-0.0192 -0.10583,-0.0427 z m -16.82082,-0.16265 c 0.004,-0.0986 0.0241,-0.1187 0.0512,-0.0512 0.0245,0.0611 0.0214,0.13414 -0.007,0.16227 -0.0281,0.0281 -0.0481,-0.0219 -0.0445,-0.11112 z m -48.17533,-0.0847 c 0.004,-0.0986 0.0241,-0.11869 0.0512,-0.0512 0.0245,0.0611 0.0214,0.13414 -0.007,0.16228 -0.0281,0.0281 -0.0481,-0.0219 -0.0445,-0.11113 z m 65.00144,-0.17778 c 0.0611,-0.0245 0.13415,-0.0215 0.16228,0.007 0.0281,0.0281 -0.0219,0.0481 -0.11112,0.0445 -0.0986,-0.004 -0.1187,-0.0241 -0.0512,-0.0511 z m -45.44344,-0.49955 c 0.004,-0.0986 0.0241,-0.1187 0.0512,-0.0512 0.0245,0.0611 0.0215,0.13414 -0.007,0.16227 -0.0281,0.0281 -0.0481,-0.0219 -0.0445,-0.11112 z m 46.57335,-0.0353 c 0,-0.11642 0.0192,-0.16404 0.0427,-0.10583 0.0235,0.0582 0.0235,0.15346 0,0.21166 -0.0235,0.0582 -0.0427,0.0106 -0.0427,-0.10583 z m -49.59357,-1.86267 c 0,-0.76835 0.0128,-1.08267 0.0285,-0.6985 0.0157,0.38418 0.0157,1.01283 0,1.397 -0.0157,0.38418 -0.0285,0.0699 -0.0285,-0.6985 z m -35.30877,0.97646 c -0.0262,-0.0683 -0.028,-0.17309 -0.004,-0.23283 0.024,-0.0597 0.0466,-0.0249 0.0503,0.0774 0.006,0.16301 0.0618,0.18993 0.45118,0.21717 l 0.4445,0.0311 -0.44716,0.0157 c -0.32565,0.0114 -0.46011,-0.0181 -0.49482,-0.10855 z m 52.29899,-0.01 c 0.004,-0.0986 0.0241,-0.11869 0.0512,-0.0512 0.0245,0.0611 0.0215,0.13415 -0.007,0.16228 -0.0281,0.0281 -0.0481,-0.0219 -0.0445,-0.11113 z m 25.66848,0.0734 c 0.12806,-0.0194 0.33761,-0.0194 0.46567,0 0.12806,0.0194 0.0233,0.0353 -0.23283,0.0353 -0.25612,0 -0.36089,-0.0159 -0.23284,-0.0353 z m 1.48167,-0.001 c 0.19791,-0.0178 0.52176,-0.0178 0.71967,0 0.19791,0.0178 0.036,0.0324 -0.35984,0.0324 -0.39581,0 -0.55774,-0.0146 -0.35983,-0.0324 z m 8.21267,0 c 0.19791,-0.0178 0.52176,-0.0178 0.71966,0 0.19791,0.0178 0.036,0.0324 -0.35983,0.0324 -0.39582,0 -0.55774,-0.0146 -0.35983,-0.0324 z m -86.30981,-1.08101 c 3.4e-4,-0.37253 0.0152,-0.5144 0.0331,-0.31526 0.0179,0.19914 0.0176,0.50394 -6e-4,0.67733 -0.0182,0.1734 -0.0328,0.0105 -0.0325,-0.36207 z m 85.51277,0.0423 c 0,-0.34925 0.0149,-0.49212 0.0332,-0.3175 0.0183,0.17463 0.0183,0.46038 0,0.635 -0.0183,0.17463 -0.0332,0.0317 -0.0332,-0.3175 z m -63.40903,-0.93133 c 0.007,-0.28311 0.0218,-0.29673 0.3258,-0.30521 0.31448,-0.009 0.31479,-0.008 0.026,0.026 -0.25593,0.0305 -0.29641,0.0685 -0.3258,0.30521 -0.0323,0.26004 -0.0333,0.25904 -0.026,-0.026 z m 53.23325,0.0686 c -0.012,-0.29587 -0.0295,-0.31414 -0.33018,-0.3456 l -0.3175,-0.0332 0.32016,-0.0142 c 0.35544,-0.0158 0.43376,0.0811 0.37617,0.46544 -0.0307,0.20514 -0.0378,0.19463 -0.0487,-0.0724 z m -19.50619,-0.38249 c 0.10531,-0.0202 0.25771,-0.0195 0.33866,0.002 0.081,0.0212 -0.005,0.0378 -0.19149,0.0368 -0.18626,-9.4e-4 -0.2525,-0.0183 -0.14717,-0.0385 z"
         id="path1409"
         inkscape:connector-curvature="0" />
      <path
         style="fill:#82b716;stroke-width:0.08466667"
         d="m 145.96252,204.21818 c -0.33416,-0.0876 -0.73421,-0.22377 -0.889,-0.30262 -0.96779,-0.49303 -1.72268,-1.3883 -2.08683,-2.47491 l -0.21857,-0.65222 -0.032,-3.78884 -0.032,-3.78883 h -1.34786 -1.34786 v -1.27 -1.27 h 1.35467 1.35466 v -2.667 -2.667 h 1.31234 1.31233 v 2.667 2.667 h 4.953 4.953 l 5.1e-4,4.84717 c 3.4e-4,3.27645 0.0308,4.95691 0.094,5.18583 0.12538,0.45386 0.62593,0.92178 1.1188,1.04589 0.60696,0.15283 4.31914,0.12962 4.85791,-0.0304 0.57147,-0.16971 0.98865,-0.62619 1.11632,-1.22149 0.0622,-0.29018 0.0938,-2.01725 0.0938,-5.1322 v -4.69483 h 1.27 1.27 v 4.82957 c 0,4.07605 -0.0209,4.93139 -0.13413,5.48217 -0.31576,1.53624 -1.29918,2.64311 -2.81308,3.1662 -0.54448,0.18813 -0.66829,0.19573 -3.19112,0.19573 -2.9823,0 -3.37262,-0.058 -4.26235,-0.63303 -0.84463,-0.54591 -1.32487,-1.13795 -1.73611,-2.14024 -0.17513,-0.42683 -0.18385,-0.59691 -0.22454,-4.38107 l -0.0423,-3.937 -3.66184,-0.0221 -3.66183,-0.0221 v 3.62494 3.62495 l 0.21074,0.41879 c 0.3623,0.71998 0.98468,0.96755 2.43509,0.96863 l 0.65617,4.9e-4 -5.1e-4,0.5715 c -2.5e-4,0.31433 -0.025,0.88583 -0.0549,1.27 l -0.0544,0.6985 -0.98228,-0.005 c -0.67667,-0.003 -1.17131,-0.0542 -1.58985,-0.16392 z"
         id="path1407"
         inkscape:connector-curvature="0" />
      <path
         style="fill:#575757;stroke-width:0.08466667"
         d="m 191.48575,200.71413 c 0,-0.0176 0.0667,-0.0843 0.14817,-0.14817 0.13429,-0.10531 0.13728,-0.10232 0.032,0.032 -0.11061,0.14103 -0.18014,0.18588 -0.18014,0.1162 z m -14.81666,-6.18067 c 0,-0.0176 0.0667,-0.0843 0.14816,-0.14817 0.13429,-0.10531 0.13728,-0.10232 0.032,0.032 -0.11061,0.14103 -0.18013,0.18588 -0.18013,0.1162 z m 36.15266,0 c 0,-0.0176 0.0667,-0.0843 0.14817,-0.14817 0.13429,-0.10531 0.13728,-0.10232 0.032,0.032 -0.11061,0.14103 -0.18014,0.18588 -0.18014,0.1162 z m 6.604,0 c 0,-0.0176 0.0667,-0.0843 0.14817,-0.14817 0.13429,-0.10531 0.13728,-0.10232 0.032,0.032 -0.11061,0.14103 -0.18014,0.18588 -0.18014,0.1162 z m 14.9752,-0.1162 c -0.10531,-0.13429 -0.10232,-0.13728 0.032,-0.032 0.0815,0.0639 0.14817,0.13059 0.14817,0.14817 0,0.0697 -0.0695,0.0248 -0.18014,-0.1162 z m -44.86253,-2.9318 c 0,-0.0176 0.0667,-0.0843 0.14817,-0.14817 0.13428,-0.10531 0.13728,-0.10232 0.032,0.032 -0.1106,0.14103 -0.18013,0.18588 -0.18013,0.1162 z m 16.51,0 c 0,-0.0176 0.0667,-0.0843 0.14817,-0.14817 0.13428,-0.10531 0.13728,-0.10232 0.032,0.032 -0.1106,0.14103 -0.18013,0.18588 -0.18013,0.1162 z m 1.85187,-0.20087 c -0.10532,-0.13428 -0.10232,-0.13728 0.032,-0.032 0.0815,0.0639 0.14817,0.13058 0.14817,0.14816 0,0.0697 -0.0695,0.0248 -0.18013,-0.1162 z"
         id="path1405"
         inkscape:connector-curvature="0" />
      <path
         style="fill:#3b3b3b;stroke-width:0.08466667"
         d="m 172.41459,204.50002 c 0.0582,-0.0235 0.15345,-0.0235 0.21166,0 0.0582,0.0235 0.0106,0.0427 -0.10583,0.0427 -0.11642,0 -0.16404,-0.0192 -0.10583,-0.0427 z m 5.24933,0 c 0.0582,-0.0235 0.15346,-0.0235 0.21167,0 0.0582,0.0235 0.0106,0.0427 -0.10584,0.0427 -0.11641,0 -0.16404,-0.0192 -0.10583,-0.0427 z m 29.67728,-0.003 c 0.0824,-0.0215 0.19668,-0.02 0.254,0.003 0.0573,0.0232 -0.0101,0.0408 -0.14978,0.039 -0.1397,-0.002 -0.1866,-0.0207 -0.10422,-0.0422 z m -16.66682,-1.67699 c 8e-5,-0.88477 0.0126,-1.23522 0.0279,-0.77877 0.0153,0.45644 0.0152,1.18034 -1.7e-4,1.60866 -0.0153,0.42833 -0.0278,0.0549 -0.0277,-0.82989 z m 0.42231,0.254 c 9e-5,-0.74507 0.0131,-1.03854 0.0288,-0.65215 0.0157,0.38639 0.0156,0.99599 -1.7e-4,1.35467 -0.0158,0.35868 -0.0287,0.0425 -0.0286,-0.70252 z m 7.50775,1.17828 c 0.004,-0.0986 0.0241,-0.1187 0.0511,-0.0512 0.0245,0.0611 0.0215,0.13415 -0.007,0.16228 -0.0281,0.0281 -0.0481,-0.0219 -0.0445,-0.11112 z M 172.37225,204.074 c 0.0815,-0.0213 0.21484,-0.0213 0.29634,0 0.0815,0.0213 0.0148,0.0387 -0.14817,0.0387 -0.16298,0 -0.22966,-0.0174 -0.14817,-0.0387 z m 5.24934,0 c 0.0815,-0.0213 0.21484,-0.0213 0.29633,0 0.0815,0.0213 0.0148,0.0387 -0.14817,0.0387 -0.16298,0 -0.22966,-0.0174 -0.14816,-0.0387 z m 19.39027,-3.4e-4 c 0.0824,-0.0215 0.19668,-0.0201 0.254,0.003 0.0573,0.0232 -0.0101,0.0408 -0.14977,0.039 -0.1397,-0.002 -0.1866,-0.0207 -0.10423,-0.0422 z m 10.32773,3.4e-4 c 0.0815,-0.0213 0.21484,-0.0213 0.29633,0 0.0815,0.0213 0.0148,0.0387 -0.14817,0.0387 -0.16298,0 -0.22966,-0.0174 -0.14816,-0.0387 z m 1.55688,-0.23797 c -0.0268,-0.0699 -0.0118,-0.127 0.0333,-0.127 0.0451,0 0.082,0.0572 0.082,0.127 0,0.0699 -0.015,0.127 -0.0333,0.127 -0.0183,0 -0.0552,-0.0571 -0.082,-0.127 z m -0.56205,-0.0743 c 0,-0.0176 0.0667,-0.0843 0.14817,-0.14817 0.13428,-0.10531 0.13728,-0.10232 0.032,0.032 -0.1106,0.14103 -0.18013,0.18588 -0.18013,0.1162 z m -29.09996,-1.5767 c 0,-0.25612 0.0159,-0.36089 0.0353,-0.23284 0.0194,0.12806 0.0194,0.33761 0,0.46567 -0.0194,0.12806 -0.0353,0.0233 -0.0353,-0.23283 z m -3.38898,0 c 0,-0.20955 0.0165,-0.29528 0.0367,-0.1905 0.0202,0.10477 0.0202,0.27622 0,0.381 -0.0202,0.10477 -0.0367,0.019 -0.0367,-0.1905 z m 29.718,0 c 0,-0.20955 0.0165,-0.29528 0.0367,-0.1905 0.0202,0.10477 0.0202,0.27622 0,0.381 -0.0202,0.10477 -0.0367,0.019 -0.0367,-0.1905 z m -29.29808,0 c 0,-0.16299 0.0174,-0.22966 0.0387,-0.14817 0.0213,0.0815 0.0213,0.21484 0,0.29633 -0.0213,0.0815 -0.0387,0.0148 -0.0387,-0.14816 z m 29.718,0 c 0,-0.16299 0.0174,-0.22966 0.0387,-0.14817 0.0213,0.0815 0.0213,0.21484 0,0.29633 -0.0213,0.0815 -0.0387,0.0148 -0.0387,-0.14816 z m 2.96333,0 c 0,-0.16299 0.0174,-0.22966 0.0387,-0.14817 0.0213,0.0815 0.0213,0.21484 0,0.29633 -0.0213,0.0815 -0.0387,0.0148 -0.0387,-0.14816 z m -7.25864,-1.524 c 0.0843,-0.0931 0.17229,-0.16934 0.19557,-0.16934 0.0233,0 -0.0266,0.0762 -0.11091,0.16934 -0.0843,0.0931 -0.17229,0.16933 -0.19557,0.16933 -0.0233,0 0.0266,-0.0762 0.11091,-0.16933 z m -30.52234,-0.2013 c 0,-0.0176 0.0667,-0.0843 0.14817,-0.14817 0.13429,-0.10531 0.13728,-0.10232 0.032,0.032 -0.11061,0.14103 -0.18014,0.18588 -0.18014,0.1162 z m 12.93435,-0.11406 c 0.15218,-0.0188 0.38078,-0.0185 0.508,8.6e-4 0.12723,0.0193 0.003,0.0347 -0.27668,0.0343 -0.2794,-5.1e-4 -0.38349,-0.0163 -0.23132,-0.0351 z m 1.43782,-6e-4 c 0.19791,-0.0178 0.52176,-0.0178 0.71967,0 0.1979,0.0178 0.036,0.0324 -0.35984,0.0324 -0.39581,0 -0.55774,-0.0146 -0.35983,-0.0324 z m -13.07939,-0.0813 c 0.0824,-0.0215 0.19668,-0.0201 0.254,0.003 0.0573,0.0232 -0.0101,0.0408 -0.14978,0.039 -0.1397,-0.002 -0.1866,-0.0207 -0.10422,-0.0422 z m 5.24933,0 c 0.0824,-0.0215 0.19668,-0.0201 0.254,0.003 0.0573,0.0232 -0.0101,0.0408 -0.14977,0.039 -0.1397,-0.002 -0.1866,-0.0207 -0.10423,-0.0422 z m 23.43658,-0.0754 c 0.004,-0.0986 0.0241,-0.1187 0.0512,-0.0512 0.0245,0.0611 0.0214,0.13415 -0.007,0.16228 -0.0281,0.0281 -0.0481,-0.0219 -0.0445,-0.11112 z m 1.45542,0.0754 c 0.0824,-0.0215 0.19668,-0.0201 0.254,0.003 0.0573,0.0232 -0.0101,0.0408 -0.14977,0.039 -0.1397,-0.002 -0.1866,-0.0207 -0.10423,-0.0422 z m 4.78206,0.003 c 0.0582,-0.0235 0.15346,-0.0235 0.21167,0 0.0582,0.0235 0.0106,0.0427 -0.10584,0.0427 -0.11641,0 -0.16404,-0.0192 -0.10583,-0.0427 z m -19.19148,-0.16265 c 0.004,-0.0986 0.0241,-0.1187 0.0512,-0.0512 0.0245,0.0611 0.0214,0.13414 -0.007,0.16227 -0.0281,0.0281 -0.0482,-0.0219 -0.0445,-0.11112 z m -5.36087,-0.17983 c 0.10532,-0.0203 0.25772,-0.0195 0.33867,0.002 0.081,0.0212 -0.005,0.0378 -0.19149,0.0368 -0.18626,-9.4e-4 -0.25249,-0.0183 -0.14718,-0.0385 z m 9.57164,-0.0826 c 0.0611,-0.0245 0.13415,-0.0215 0.16228,0.007 0.0281,0.0281 -0.0219,0.0481 -0.11113,0.0445 -0.0986,-0.004 -0.11869,-0.0241 -0.0512,-0.0511 z m 14.986,0 c 0.0611,-0.0245 0.13415,-0.0215 0.16228,0.007 0.0281,0.0281 -0.0219,0.0481 -0.11113,0.0445 -0.0986,-0.004 -0.11869,-0.0241 -0.0511,-0.0511 z m -35.05729,-4.65494 c 0.0582,-0.0235 0.15346,-0.0235 0.21167,0 0.0582,0.0235 0.0106,0.0427 -0.10584,0.0427 -0.11641,0 -0.16404,-0.0192 -0.10583,-0.0427 z m 77.724,0 c 0.0582,-0.0235 0.15346,-0.0235 0.21167,0 0.0582,0.0235 0.0106,0.0427 -0.10584,0.0427 -0.11641,0 -0.16404,-0.0192 -0.10583,-0.0427 z m 8.21267,0 c 0.0582,-0.0235 0.15346,-0.0235 0.21166,0 0.0582,0.0235 0.0106,0.0427 -0.10583,0.0427 -0.11642,0 -0.16404,-0.0192 -0.10583,-0.0427 z m -49.98169,-1.5526 c 0,-0.86148 0.0126,-1.2139 0.0279,-0.78316 0.0154,0.43074 0.0154,1.13559 0,1.56633 -0.0154,0.43074 -0.0279,0.0783 -0.0279,-0.78317 z m 0.42333,0 c 0,-0.86148 0.0126,-1.2139 0.0279,-0.78316 0.0154,0.43074 0.0154,1.13559 0,1.56633 -0.0154,0.43074 -0.0279,0.0783 -0.0279,-0.78317 z m 11.75317,-0.65616 c -0.019,-2.14965 -0.0251,-2.2225 -0.18677,-2.2225 -0.15778,0 -0.16863,0.0711 -0.19393,1.27009 l -0.0268,1.2701 0.003,-1.29126 c 0.003,-1.27421 0.006,-1.29162 0.1943,-1.31837 0.10498,-0.0149 0.21043,0.0239 0.23433,0.0861 0.0239,0.0623 0.0326,1.08413 0.0193,2.27077 l -0.0242,2.15755 z m 2.21509,1.03716 c 1.7e-4,-0.65193 0.0134,-0.90744 0.0295,-0.56779 0.0161,0.33964 0.016,0.87304 -2.6e-4,1.18533 -0.0162,0.31229 -0.0294,0.0344 -0.0293,-0.61754 z m 5.23557,-1.03154 -0.0196,-2.21688 -0.23283,-0.0353 -0.23284,-0.0353 0.2355,-0.0127 c 0.12951,-0.007 0.25401,0.0356 0.27665,0.0946 0.0226,0.059 0.0303,1.07819 0.017,2.26483 l -0.0242,2.15755 z m 19.05,0 -0.0196,-2.21688 -0.23283,-0.0353 -0.23284,-0.0353 0.2355,-0.0127 c 0.12951,-0.007 0.25401,0.0356 0.27665,0.0946 0.0226,0.059 0.0303,1.07819 0.017,2.26483 l -0.0242,2.15755 z m 3.86017,1.94813 c 0.0361,-0.1772 0.0574,-0.19849 0.0821,-0.0821 0.0183,0.0864 -0.004,0.1941 -0.0488,0.23925 -0.053,0.053 -0.0648,-0.003 -0.0333,-0.15716 z m 2.32202,-0.0859 c 0.0815,-0.0213 0.21484,-0.0213 0.29634,0 0.0815,0.0213 0.0148,0.0387 -0.14817,0.0387 -0.16298,0 -0.22966,-0.0174 -0.14817,-0.0387 z m 1.24884,0.0264 c 0,-0.0176 0.0667,-0.0843 0.14816,-0.14817 0.13429,-0.10531 0.13728,-0.10232 0.032,0.032 -0.11061,0.14103 -0.18013,0.18588 -0.18013,0.1162 z m 1.16945,-0.11054 c 0.0611,-0.0245 0.13415,-0.0215 0.16229,0.007 0.0281,0.0281 -0.0219,0.0481 -0.11113,0.0445 -0.0986,-0.004 -0.11869,-0.0241 -0.0512,-0.0511 z m -54.35092,-0.34433 c -0.10531,-0.13429 -0.10232,-0.13728 0.032,-0.032 0.0815,0.0639 0.14816,0.13059 0.14816,0.14817 0,0.0697 -0.0695,0.0248 -0.18013,-0.1162 z m 53.56247,0.0635 c -0.0288,-0.0466 -0.012,-0.0847 0.0373,-0.0847 0.0493,0 0.0897,0.0381 0.0897,0.0847 0,0.0466 -0.0168,0.0847 -0.0373,0.0847 -0.0205,0 -0.0609,-0.0381 -0.0897,-0.0847 z m 0.49952,-1.143 c 0,-0.6985 0.0132,-0.97298 0.0291,-0.60996 0.0159,0.36302 0.0158,0.93452 0,1.27 -0.016,0.33548 -0.0291,0.0385 -0.0289,-0.66004 z m -6.26421,-0.762 c 9e-5,-0.8382 0.0128,-1.16965 0.0282,-0.73655 0.0154,0.4331 0.0153,1.1189 0,1.524 -0.0155,0.4051 -0.0281,0.0507 -0.028,-0.78745 z m 0.42334,0 c 8e-5,-0.8382 0.0128,-1.16965 0.0282,-0.73655 0.0154,0.4331 0.0153,1.1189 0,1.524 -0.0155,0.4051 -0.0281,0.0507 -0.028,-0.78745 z m 2.26438,1.31233 c 0,-0.11641 0.0192,-0.16404 0.0427,-0.10583 0.0235,0.0582 0.0235,0.15346 0,0.21167 -0.0235,0.0582 -0.0427,0.0106 -0.0427,-0.10584 z m -47.97703,-0.0847 -0.254,-0.0646 0.27516,-0.01 c 0.15134,-0.006 0.27517,0.0281 0.27517,0.0746 0,0.0466 -0.01,0.0802 -0.0212,0.0747 -0.0116,-0.006 -0.13546,-0.0391 -0.27516,-0.0747 z m 13.28986,-1.524 0.003,-1.56634 h 0.21167 0.21167 l 0.003,1.56634 0.003,1.56633 -0.0258,-1.54517 c -0.0246,-1.46829 -0.0341,-1.54516 -0.19143,-1.54516 -0.15736,0 -0.16688,0.0769 -0.19143,1.54516 l -0.0258,1.54517 z m -35.06875,1.46532 c 0.0824,-0.0215 0.19668,-0.02 0.254,0.003 0.0573,0.0232 -0.0101,0.0408 -0.14978,0.039 -0.1397,-0.002 -0.1866,-0.0207 -0.10422,-0.0422 z m -3.30172,-0.78799 c 0,-0.20955 0.0165,-0.29527 0.0367,-0.1905 0.0202,0.10478 0.0202,0.27623 0,0.381 -0.0202,0.10478 -0.0367,0.0191 -0.0367,-0.1905 z m 0.41992,0 c 0,-0.16298 0.0174,-0.22966 0.0387,-0.14817 0.0213,0.0815 0.0213,0.21485 0,0.29634 -0.0213,0.0815 -0.0387,0.0148 -0.0387,-0.14817 z m 19.86622,0.10583 c -0.10531,-0.13428 -0.10232,-0.13728 0.032,-0.032 0.0815,0.0639 0.14816,0.13058 0.14816,0.14816 0,0.0697 -0.0695,0.0248 -0.18013,-0.1162 z m 55.89748,-0.0705 c 0.004,-0.0986 0.0241,-0.1187 0.0512,-0.0512 0.0245,0.0611 0.0215,0.13414 -0.007,0.16227 -0.0281,0.0281 -0.0481,-0.0219 -0.0445,-0.11112 z m -1.04385,-0.0914 c 0.0582,-0.0235 0.15346,-0.0235 0.21167,0 0.0582,0.0235 0.0106,0.0427 -0.10583,0.0427 -0.11642,0 -0.16405,-0.0192 -0.10584,-0.0427 z m -0.50271,-0.34043 c 0.0611,-0.0245 0.13415,-0.0214 0.16229,0.007 0.0281,0.0281 -0.0219,0.0482 -0.11113,0.0445 -0.0986,-0.004 -0.11869,-0.0241 -0.0512,-0.0512 z m 1.18534,-0.0847 c 0.0611,-0.0245 0.13414,-0.0215 0.16228,0.007 0.0281,0.0281 -0.0219,0.0481 -0.11113,0.0445 -0.0986,-0.004 -0.11869,-0.0241 -0.0511,-0.0511 z m -57.90693,-0.175 c -0.10531,-0.13428 -0.10232,-0.13728 0.032,-0.032 0.14103,0.1106 0.18588,0.18013 0.1162,0.18013 -0.0176,0 -0.0843,-0.0667 -0.14817,-0.14817 z m 58.28111,-0.10583 c 0,-0.16298 0.0174,-0.22966 0.0387,-0.14817 0.0213,0.0815 0.0213,0.21485 0,0.29634 -0.0213,0.0815 -0.0387,0.0148 -0.0387,-0.14817 z m -13.1296,-0.33867 c 0,-0.11641 0.0192,-0.16404 0.0427,-0.10583 0.0235,0.0582 0.0235,0.15346 0,0.21167 -0.0235,0.0582 -0.0427,0.0106 -0.0427,-0.10584 z m 10.33874,0.11066 c 0.0824,-0.0215 0.19668,-0.02 0.254,0.003 0.0573,0.0232 -0.0101,0.0408 -0.14978,0.039 -0.1397,-0.002 -0.1866,-0.0207 -0.10422,-0.0422 z m -12.63811,-0.39662 c 0,-0.0176 0.0667,-0.0843 0.14816,-0.14817 0.13429,-0.10531 0.13728,-0.10232 0.032,0.032 -0.11061,0.14103 -0.18013,0.18588 -0.18013,0.1162 z m -53.18147,-0.28554 c -0.10531,-0.13428 -0.10232,-0.13728 0.032,-0.032 0.14103,0.1106 0.18588,0.18013 0.1162,0.18013 -0.0176,0 -0.0843,-0.0667 -0.14817,-0.14817 z m 19.6958,-0.1905 c 0.0843,-0.0931 0.17229,-0.16933 0.19558,-0.16933 0.0233,0 -0.0266,0.0762 -0.11091,0.16933 -0.0843,0.0931 -0.1723,0.16934 -0.19558,0.16934 -0.0233,0 0.0266,-0.0762 0.11091,-0.16934 z m 28.067,0.13737 c 0,-0.0176 0.0667,-0.0843 0.14817,-0.14817 0.13429,-0.10531 0.13728,-0.10232 0.032,0.032 -0.11061,0.14103 -0.18014,0.18588 -0.18014,0.1162 z m -47.46371,-0.2432 -0.16129,-0.1905 0.1905,0.16129 c 0.10477,0.0887 0.1905,0.17443 0.1905,0.1905 0,0.0677 -0.0681,0.0177 -0.21971,-0.16129 z m 16.88824,0.0423 c -0.10531,-0.13428 -0.10232,-0.13728 0.032,-0.032 0.14103,0.1106 0.18588,0.18013 0.1162,0.18013 -0.0176,0 -0.0843,-0.0667 -0.14817,-0.14817 z m 38.53414,0.1162 c 0,-0.0176 0.0667,-0.0842 0.14816,-0.14816 0.13429,-0.10532 0.13728,-0.10232 0.032,0.032 -0.11061,0.14104 -0.18013,0.18589 -0.18013,0.1162 z m -68.91199,-0.19744 c -0.006,-0.17492 -0.0521,-0.18893 -0.70518,-0.2156 l -0.6985,-0.0285 0.70116,-0.0172 c 0.71572,-0.0176 0.86868,0.0514 0.75284,0.33981 -0.024,0.0597 -0.0466,0.0244 -0.0503,-0.0785 z m 65.94865,-0.0469 c 0,-0.0744 -0.0857,-0.15174 -0.1905,-0.17192 l -0.1905,-0.0367 0.19316,-0.0115 c 0.1861,-0.0111 0.34921,0.19399 0.24063,0.30257 -0.029,0.029 -0.0528,-0.008 -0.0528,-0.0824 z m -49.95333,-0.0482 c 0,-0.0543 -0.0857,-0.10319 -0.1905,-0.10859 -0.1568,-0.008 -0.1627,-0.017 -0.0333,-0.0503 0.16888,-0.0435 0.37721,0.10429 0.2817,0.1998 -0.0318,0.0318 -0.0579,0.0134 -0.0579,-0.0409 z m 39.96267,-0.11344 c 0,-0.0385 0.1143,-0.07 0.254,-0.07 0.1397,0 0.254,0.0147 0.254,0.0327 0,0.018 -0.1143,0.0495 -0.254,0.07 -0.1397,0.0205 -0.254,0.006 -0.254,-0.0327 z m 3.64066,0.0147 -0.21166,-0.0678 0.23283,-0.008 c 0.12806,-0.005 0.23283,0.0297 0.23283,0.0762 0,0.0466 -0.01,0.0809 -0.0212,0.0762 -0.0117,-0.005 -0.11642,-0.0389 -0.23284,-0.0762 z m -62.0395,-0.0606 c 0.12806,-0.0194 0.33761,-0.0194 0.46567,0 0.12806,0.0194 0.0233,0.0353 -0.23283,0.0353 -0.25612,0 -0.3609,-0.0159 -0.23284,-0.0353 z m 23.45428,0.002 c 0.0824,-0.0215 0.19668,-0.02 0.254,0.003 0.0573,0.0232 -0.0101,0.0408 -0.14978,0.039 -0.1397,-0.002 -0.1866,-0.0207 -0.10422,-0.0422 z m 28.31939,0.003 c 0.0582,-0.0235 0.15346,-0.0235 0.21167,0 0.0582,0.0235 0.0106,0.0427 -0.10584,0.0427 -0.11641,0 -0.16404,-0.0192 -0.10583,-0.0427 z m 26.15838,-0.004 0.44087,-0.0335 0.0303,-0.5672 0.0303,-0.5672 -0.006,0.59267 -0.006,0.59266 -0.46567,0.008 -0.46567,0.008 0.44088,-0.0335 z m 0.90697,-0.0545 c -0.0241,-0.0628 -0.0304,-0.37715 -0.0139,-0.6985 l 0.0299,-0.58426 0.0166,0.65274 0.0166,0.65274 0.6985,0.0285 0.6985,0.0285 -0.70116,0.0172 c -0.52272,0.0128 -0.71231,-0.0118 -0.74499,-0.097 z m 7.1415,0.0529 c 0.15218,-0.0189 0.38078,-0.0185 0.508,8.6e-4 0.12723,0.0193 0.003,0.0347 -0.27668,0.0343 -0.2794,-4.7e-4 -0.38349,-0.0163 -0.23132,-0.0351 z m 1.43782,-6.4e-4 c 0.19791,-0.0178 0.52176,-0.0178 0.71966,0 0.19791,0.0178 0.036,0.0324 -0.35983,0.0324 -0.39582,0 -0.55774,-0.0146 -0.35983,-0.0324 z m -5.29167,-1.09703 c 0.0815,-0.0213 0.21484,-0.0213 0.29633,0 0.0815,0.0213 0.0148,0.0387 -0.14816,0.0387 -0.16299,0 -0.22966,-0.0174 -0.14817,-0.0387 z m 1.75184,0.011 c 0.2025,-0.0385 0.25596,-0.0978 0.28622,-0.3175 0.0359,-0.26101 0.0368,-0.26012 0.0262,0.0262 -0.0101,0.27092 -0.0347,0.29815 -0.28622,0.3175 -0.26206,0.0202 -0.26331,0.0189 -0.0262,-0.0262 z m -26.47432,-0.41834 c 9.3e-4,-0.18626 0.0183,-0.25249 0.0385,-0.14718 0.0203,0.10532 0.0195,0.25772 -0.002,0.33867 -0.0212,0.081 -0.0378,-0.005 -0.0368,-0.19149 z"
         id="path1403"
         inkscape:connector-curvature="0" />
      <path
         style="fill:#000000;stroke-width:0.08466667"
         d="m 171.69807,204.29474 c -1.12707,-0.5579 -1.39707,-2.71997 -0.47429,-3.79803 0.37459,-0.43762 0.72119,-0.59728 1.29664,-0.59728 0.53149,0 0.95529,0.1711 1.2771,0.5156 l 0.2469,0.26431 v -1.32129 -1.32129 h 0.21167 0.21166 v 3.175 c 0,3.05874 -0.006,3.175 -0.16027,3.175 -0.17842,0 -0.26306,-0.15723 -0.26306,-0.48866 v -0.22082 l -0.27517,0.28259 c -0.15134,0.15542 -0.39776,0.3341 -0.54761,0.39707 -0.40987,0.17224 -1.10749,0.14376 -1.52357,-0.0622 z m 1.26267,-0.24994 c 0.82317,-0.22863 1.30467,-1.52561 0.98879,-2.66343 -0.1266,-0.45602 -0.69588,-1.01605 -1.11036,-1.0923 -0.72715,-0.13377 -1.40539,0.3161 -1.63323,1.08332 -0.33547,1.12964 0.033,2.28809 0.83947,2.63912 0.32092,0.13969 0.50777,0.14648 0.91533,0.0333 z m 3.99485,0.26465 c -0.38897,-0.17664 -0.75663,-0.6073 -0.92771,-1.08668 -0.0624,-0.17472 -0.11503,-0.66575 -0.11708,-1.09117 -0.003,-0.6863 0.023,-0.82454 0.23279,-1.22623 0.14764,-0.28261 0.37307,-0.5487 0.59996,-0.70816 0.3293,-0.23144 0.42574,-0.25545 1.0262,-0.25545 0.60151,0 0.69657,0.0238 1.02882,0.25728 0.24163,0.16983 0.45036,0.42211 0.61407,0.74222 0.21841,0.42708 0.24796,0.57316 0.24764,1.22438 -4.2e-4,0.79537 -0.18231,1.37463 -0.56116,1.78673 -0.46153,0.50205 -1.45856,0.66814 -2.14353,0.35708 z m 1.2554,-0.27672 c 0.71787,-0.21508 1.16853,-1.14656 1.04857,-2.16729 -0.16607,-1.41298 -1.43256,-2.06519 -2.41121,-1.24171 -0.73793,0.62093 -0.73809,2.48197 -2.5e-4,3.13842 0.38449,0.34209 0.8294,0.43042 1.3629,0.27058 z m 7.17876,0.2904 c -0.52855,-0.26404 -0.59238,-0.5194 -0.59253,-2.37054 l -1.3e-4,-1.62983 h -0.46567 c -0.40922,0 -0.46567,-0.0205 -0.46567,-0.16933 0,-0.14881 0.0565,-0.16934 0.46567,-0.16934 h 0.46567 v -0.62513 c 0,-0.59957 0.009,-0.62678 0.21166,-0.66559 0.21126,-0.0404 0.21167,-0.0392 0.21167,0.62513 v 0.66559 h 0.67733 c 0.62089,0 0.67734,0.0141 0.67734,0.16934 0,0.15522 -0.0564,0.16933 -0.67734,0.16933 h -0.67733 v 1.63958 c 0,1.54594 0.0103,1.65271 0.18076,1.86939 0.16807,0.21366 0.21862,0.22784 0.71985,0.20192 0.50156,-0.0259 0.53907,-0.0154 0.5389,0.15153 -1.7e-4,0.14151 -0.0673,0.19051 -0.31768,0.2319 -0.4872,0.0805 -0.63176,0.0663 -0.9525,-0.094 z m 11.00671,0.0532 c -0.11639,-0.0464 -0.30069,-0.16782 -0.40956,-0.2698 -0.38782,-0.36329 -0.43715,-0.63856 -0.43715,-2.43942 v -1.683 h 0.21167 0.21167 l 10e-4,1.67217 c 8.6e-4,1.15859 0.0334,1.73467 0.10583,1.87567 0.18777,0.36535 0.53317,0.55245 1.0199,0.55245 0.5623,0 0.963,-0.23478 1.24691,-0.7306 0.19627,-0.34276 0.21008,-0.45181 0.23647,-1.86685 l 0.028,-1.50284 h 0.20481 0.20481 v 2.20134 c 0,2.09945 -0.007,2.20133 -0.15946,2.20133 -0.16347,0 -0.26058,-0.21365 -0.26271,-0.578 -0.001,-0.18937 -0.01,-0.18676 -0.22348,0.0672 -0.32651,0.38804 -0.79242,0.5964 -1.31947,0.59008 -0.24633,-0.003 -0.54311,-0.0433 -0.6595,-0.0898 z m 10.28696,-0.0456 c -0.70809,-0.37329 -0.98979,-0.89105 -1.04162,-1.91445 -0.0612,-1.20834 0.29241,-2.01924 1.02568,-2.35215 0.69305,-0.31465 1.66691,-0.13336 2.07576,0.3864 l 0.18385,0.23372 v -1.32375 -1.32375 h 0.21166 0.21167 v 3.175 c 0,3.11856 -0.003,3.175 -0.16933,3.175 -0.14111,0 -0.16934,-0.0564 -0.16934,-0.33867 0,-0.3956 -0.0425,-0.41513 -0.27098,-0.12463 -0.40032,0.50892 -1.46482,0.71966 -2.05735,0.40728 z m 1.55967,-0.47986 c 0.90857,-0.60126 0.97872,-2.59427 0.11522,-3.2735 -0.75551,-0.59428 -1.84226,-0.26934 -2.19586,0.65657 -0.20993,0.54968 -0.19529,1.46449 0.0316,1.97666 0.17089,0.38572 0.5843,0.77774 0.91266,0.86547 0.31874,0.0852 0.81639,-0.0135 1.13634,-0.2252 z m -27.17134,-1.67134 v -2.20722 l 0.1905,0.0271 c 0.15613,0.0222 0.19814,0.0935 0.23284,0.39534 l 0.0423,0.36829 0.18342,-0.24945 c 0.24811,-0.33742 0.68524,-0.52946 1.20521,-0.52946 0.36576,0 0.4317,0.0243 0.4317,0.15885 0,0.13157 -0.0806,0.16554 -0.46917,0.19776 -0.56099,0.0465 -0.84679,0.23504 -1.13944,0.75156 -0.19897,0.35119 -0.21338,0.46073 -0.24121,1.834 l -0.0296,1.4605 h -0.20329 -0.20329 z m 6.77334,0.006 c 0,-2.14053 0.005,-2.20134 0.16833,-2.20134 0.13053,0 0.18033,0.075 0.22174,0.33401 l 0.0534,0.33402 0.27193,-0.28833 c 0.32697,-0.34669 0.60905,-0.46436 1.11315,-0.46436 0.52246,0 0.91109,0.18301 1.15694,0.54481 l 0.20824,0.30644 0.21868,-0.28671 c 0.29012,-0.38038 0.70302,-0.56454 1.26569,-0.56454 0.54391,0 0.9322,0.21896 1.20164,0.67762 0.15736,0.26787 0.17663,0.46327 0.20248,2.05288 l 0.0286,1.75683 h -0.21906 -0.21907 v -1.61139 c 0,-1.71378 -0.0511,-1.99616 -0.42053,-2.32561 -0.13944,-0.12433 -0.30966,-0.16933 -0.64048,-0.16933 -0.54398,0 -0.83394,0.18518 -1.13861,0.72716 -0.19721,0.35082 -0.21193,0.46477 -0.24228,1.87634 -0.0302,1.4054 -0.0427,1.50283 -0.1922,1.50283 -0.15068,0 -0.1599,-0.0857 -0.1599,-1.48651 0,-0.8207 -0.0427,-1.65597 -0.0953,-1.86486 -0.10808,-0.42923 -0.37377,-0.68176 -0.80176,-0.76206 -0.39422,-0.0739 -0.65733,0.007 -0.99932,0.3072 -0.46216,0.40577 -0.55898,0.82571 -0.55898,2.42431 v 1.38192 h -0.21167 -0.21166 z m 12.954,0 c 0,-2.11116 0.007,-2.20134 0.16189,-2.20134 0.12352,0 0.17577,0.0822 0.22047,0.34674 l 0.0586,0.34674 0.26636,-0.25259 c 0.44984,-0.42659 0.77789,-0.54775 1.37936,-0.50945 0.64224,0.0409 0.9228,0.21654 1.19417,0.74763 0.17858,0.34948 0.1905,0.47767 0.1905,2.04821 v 1.67539 h -0.21167 -0.21166 l -10e-4,-1.67217 c -8.6e-4,-1.15858 -0.0334,-1.73467 -0.10583,-1.87567 -0.18783,-0.36548 -0.53314,-0.55245 -1.02036,-0.55245 -0.57511,0 -0.96694,0.22628 -1.24323,0.71795 -0.19989,0.35573 -0.21322,0.46024 -0.23969,1.87951 l -0.028,1.50283 h -0.20481 -0.20481 v -2.20133 z m -25.61594,-7.05494 c -0.47135,-0.1814 -0.78694,-0.47906 -1.02767,-0.96927 -0.20758,-0.42273 -0.238,-0.58235 -0.23763,-1.24679 3.4e-4,-0.59572 0.0392,-0.84515 0.17806,-1.143 0.35217,-0.75536 0.9056,-1.12755 1.68418,-1.13263 1.10125,-0.007 1.905,0.8693 1.905,2.07742 v 0.32521 h -1.69334 -1.69333 v 0.23881 c 0,0.36731 0.42762,1.13281 0.75335,1.3486 0.21401,0.14177 0.41138,0.19059 0.77065,0.19059 0.57914,0 0.97081,-0.22361 1.22767,-0.7009 0.12037,-0.22366 0.22606,-0.31471 0.36554,-0.31487 0.16373,-1.7e-4 0.18689,0.0313 0.13993,0.19027 -0.27351,0.92594 -1.45228,1.49066 -2.37241,1.13656 z m 2.0786,-2.68445 c 0,-0.24955 -0.2327,-0.76784 -0.44854,-0.999 -0.52368,-0.56087 -1.42798,-0.59354 -1.99679,-0.0721 -0.23691,0.21716 -0.51349,0.78127 -0.51614,1.05269 -0.002,0.19037 -8.5e-4,0.1905 1.47981,0.1905 1.43302,0 1.48166,-0.006 1.48166,-0.17205 z m 2.44515,2.56014 c -0.32776,-0.17122 -0.52242,-0.34908 -0.70465,-0.64382 -0.22216,-0.35934 -0.25588,-0.50114 -0.28669,-1.20555 -0.0466,-1.06496 0.0752,-1.48315 0.57863,-1.98655 0.29628,-0.29628 0.4958,-0.41543 0.82982,-0.49556 0.83854,-0.20116 1.6459,0.15941 1.97393,0.88156 0.20423,0.4496 0.19826,0.55446 -0.0314,0.55077 -0.13853,-0.002 -0.2367,-0.0992 -0.35984,-0.35543 -0.21594,-0.44935 -0.51561,-0.66485 -1.00053,-0.71951 -0.81029,-0.0913 -1.43622,0.472 -1.59077,1.43167 -0.15039,0.93382 0.1202,1.7846 0.69088,2.1723 0.24679,0.16765 0.37309,0.19319 0.81945,0.1657 0.43884,-0.027 0.56969,-0.0727 0.77702,-0.27137 0.13712,-0.13137 0.29481,-0.34868 0.35041,-0.48291 0.0731,-0.17644 0.15942,-0.24405 0.31166,-0.24405 0.187,0 0.20423,0.0261 0.15394,0.23283 -0.0868,0.35683 -0.48127,0.80476 -0.89474,1.016 -0.52164,0.26651 -1.04749,0.25153 -1.61717,-0.0461 z m 17.20061,0.14223 c -0.43228,-0.13148 -0.74759,-0.38609 -0.93634,-0.75607 -0.22035,-0.43193 -0.21418,-0.58912 0.0231,-0.58805 0.14133,6.8e-4 0.22674,0.0871 0.33089,0.33518 0.20377,0.48524 0.56972,0.67925 1.28198,0.67964 0.66921,3.4e-4 1.01469,-0.14489 1.20087,-0.50491 0.18499,-0.35774 0.15978,-0.55768 -0.10815,-0.85755 -0.21397,-0.23947 -0.32452,-0.27946 -1.15677,-0.41841 -1.02733,-0.17153 -1.29478,-0.31403 -1.4742,-0.78544 -0.45,-1.18235 1.1135,-2.0788 2.45245,-1.40614 0.34206,0.17185 0.5642,0.46378 0.63954,0.84046 0.0431,0.21552 0.0247,0.25364 -0.12222,0.25364 -0.11582,0 -0.22418,-0.10487 -0.32808,-0.3175 -0.22104,-0.45237 -0.60898,-0.63081 -1.28814,-0.59252 -0.48306,0.0272 -0.56607,0.0593 -0.78317,0.30225 -0.34647,0.38776 -0.30502,0.90124 0.0898,1.11254 0.0877,0.0469 0.53271,0.1414 0.98895,0.20993 0.51149,0.0768 0.91019,0.18484 1.03991,0.28169 0.37595,0.28069 0.5454,0.58338 0.5454,0.97425 0,0.77027 -0.57083,1.25067 -1.54306,1.29861 -0.30772,0.0152 -0.69145,-0.0125 -0.85274,-0.0616 z m 4.65358,-0.0353 c -0.72468,-0.32691 -1.11034,-0.95964 -1.16744,-1.91533 -0.0953,-1.59492 0.61382,-2.55538 1.8871,-2.55606 0.30065,-1.6e-4 0.61168,0.0545 0.762,0.13383 0.68135,0.35973 1.17611,1.33455 0.67734,1.33455 -0.15241,0 -0.21167,-0.0456 -0.21167,-0.16283 0,-0.20867 -0.37368,-0.65381 -0.68321,-0.81387 -0.50902,-0.26323 -1.22745,-0.0969 -1.62568,0.37637 -0.30709,0.36496 -0.423,0.85144 -0.38439,1.61329 0.0576,1.13604 0.52391,1.69638 1.41177,1.69638 0.57453,0 0.96087,-0.22407 1.17046,-0.67884 0.11131,-0.24151 0.20563,-0.33339 0.34388,-0.33498 0.11977,-0.001 0.1905,0.0486 0.1905,0.13446 0,0.26106 -0.37012,0.79301 -0.70679,1.0158 -0.42905,0.28393 -1.21778,0.35846 -1.66387,0.15723 z m 9.57421,-0.0944 c -0.7771,-0.38724 -1.17674,-1.27546 -1.08206,-2.40489 0.092,-1.09709 0.69296,-1.82436 1.63714,-1.98116 1.06182,-0.17634 2.01393,0.67785 2.12537,1.90679 l 0.0455,0.50203 h -1.70509 -1.70509 v 0.19903 c 0,0.51598 0.41597,1.22925 0.84684,1.45206 0.13498,0.0698 0.45122,0.12691 0.70276,0.12691 0.55831,0 0.96115,-0.23727 1.18787,-0.69962 0.11352,-0.23151 0.20846,-0.31638 0.35392,-0.31638 0.17928,0 0.19185,0.0242 0.12808,0.24654 -0.11637,0.40575 -0.43267,0.7579 -0.88178,0.9817 -0.56503,0.28156 -1.07033,0.27759 -1.65348,-0.013 z m 2.27912,-2.57262 c 0,-0.24955 -0.23271,-0.76784 -0.44854,-0.999 -0.52368,-0.56087 -1.42799,-0.59354 -1.9968,-0.0721 -0.2369,0.21716 -0.51348,0.78127 -0.51613,1.05269 -0.002,0.19037 -8.5e-4,0.1905 1.4798,0.1905 1.43303,0 1.48167,-0.006 1.48167,-0.17205 z m 4.4044,2.60622 c -0.69958,-0.35746 -0.71784,-0.41815 -0.74723,-2.48246 -0.0254,-1.78253 -0.0228,-1.81437 0.14816,-1.81437 0.16901,0 0.17402,0.0432 0.17448,1.50283 5e-4,1.64927 0.0603,2.00631 0.38722,2.31345 0.18745,0.17611 0.30123,0.20538 0.79825,0.20538 0.70464,0 0.96008,-0.15422 1.26939,-0.7664 0.19592,-0.38776 0.21387,-0.52444 0.24137,-1.8371 0.0278,-1.32619 0.0401,-1.41816 0.1905,-1.41816 0.15382,0 0.16079,0.0954 0.16079,2.20133 0,2.14489 -0.004,2.20133 -0.16933,2.20133 -0.14543,0 -0.16933,-0.0564 -0.16933,-0.39987 v -0.39986 l -0.25233,0.27625 c -0.53729,0.58826 -1.36507,0.75841 -2.03194,0.41765 z m 16.78846,-0.024 c -1.64253,-0.81851 -1.44185,-3.82115 0.28903,-4.32433 1.2389,-0.36016 2.39411,0.58901 2.39411,1.96711 v 0.37036 h -1.70415 -1.70416 l 0.0571,0.35741 c 0.0784,0.49049 0.3736,0.99494 0.71785,1.22681 0.21624,0.14566 0.40762,0.19378 0.77064,0.19378 0.57914,0 0.97082,-0.22361 1.22767,-0.7009 0.12037,-0.22366 0.22607,-0.31471 0.36554,-0.31487 0.16374,-1.7e-4 0.18689,0.0313 0.13994,0.19027 -0.1308,0.44277 -0.47932,0.84079 -0.9131,1.04276 -0.57943,0.26978 -1.08751,0.26718 -1.64052,-0.008 z m 2.25981,-2.58225 c 0,-0.24955 -0.23271,-0.76784 -0.44854,-0.999 -0.52368,-0.56087 -1.42799,-0.59354 -1.9968,-0.0721 -0.2369,0.21716 -0.51348,0.78127 -0.51613,1.05269 -0.002,0.19037 -8.5e-4,0.1905 1.4798,0.1905 1.43303,0 1.48167,-0.006 1.48167,-0.17205 z m 5.715,2.67571 c -0.4123,-0.15089 -0.94094,-0.71825 -0.99174,-1.06439 -0.0318,-0.21664 -0.01,-0.25393 0.14946,-0.25393 0.12596,0 0.21963,0.0794 0.28782,0.24405 0.0556,0.13423 0.2139,0.35213 0.35178,0.48423 0.21613,0.20707 0.33219,0.24477 0.84204,0.27358 0.89617,0.0506 1.43497,-0.26833 1.43497,-0.84951 0,-0.56422 -0.30602,-0.77077 -1.35467,-0.91435 -1.13445,-0.15533 -1.524,-0.45957 -1.524,-1.19026 0,-0.9127 1.033,-1.46906 2.13358,-1.14911 0.507,0.14739 0.75695,0.36645 0.95272,0.83497 0.1678,0.40161 0.16746,0.40373 -0.0653,0.40373 -0.13992,0 -0.23121,-0.0787 -0.3175,-0.27365 -0.18436,-0.41656 -0.60739,-0.65768 -1.15384,-0.65768 -0.57459,0 -0.93588,0.18293 -1.09005,0.5519 -0.25676,0.61451 0.0942,0.92787 1.23043,1.09859 0.89319,0.13421 1.25452,0.31212 1.46847,0.72305 0.18777,0.36067 0.14867,0.93713 -0.0848,1.24982 -0.38041,0.50952 -1.534,0.75808 -2.26934,0.48896 z m 9.87536,-0.0619 c -0.47603,-0.23562 -0.6884,-0.58404 -0.6884,-1.12939 0,-0.88424 0.50967,-1.26318 1.8197,-1.35296 0.4191,-0.0287 0.89039,-0.072 1.04731,-0.0962 l 0.28532,-0.044 -0.0568,-0.43876 c -0.0854,-0.65916 -0.3873,-0.9292 -1.08275,-0.96833 -0.66156,-0.0372 -1.05323,0.14226 -1.29371,0.59284 -0.11613,0.21758 -0.22733,0.31734 -0.35393,0.3175 -0.16647,2e-4 -0.17715,-0.0257 -0.10876,-0.26416 0.19654,-0.6853 0.73136,-1.03198 1.60569,-1.04085 0.66587,-0.007 1.1373,0.19926 1.41705,0.61926 0.18107,0.27186 0.19161,0.37052 0.19161,1.79312 0,1.25569 0.0221,1.5275 0.13305,1.63848 0.0732,0.0732 0.18748,0.13305 0.254,0.13305 0.0665,0 0.12095,0.0762 0.12095,0.16933 0,0.1317 -0.0564,0.16933 -0.254,0.16933 -0.3095,0 -0.59266,-0.26293 -0.59266,-0.55033 0,-0.11642 -0.0146,-0.21167 -0.0324,-0.21167 -0.0178,0 -0.18059,0.14822 -0.36174,0.32937 -0.53204,0.53205 -1.37299,0.66924 -2.04952,0.33436 z m 1.36974,-0.27839 c 0.17771,-0.0634 0.39582,-0.18104 0.4847,-0.26147 0.23537,-0.21302 0.47868,-0.78217 0.53784,-1.25813 l 0.0515,-0.4146 -0.99492,0.0594 c -1.13084,0.0675 -1.41885,0.18069 -1.64932,0.648 -0.41977,0.85116 0.53399,1.59633 1.57017,1.22678 z m -82.15241,0.14757 c -0.36028,-0.32283 -0.41997,-0.65839 -0.42234,-2.37441 l -0.002,-1.4605 h -0.42333 c -0.36689,0 -0.42334,-0.0226 -0.42334,-0.16933 0,-0.14676 0.0564,-0.16933 0.42334,-0.16933 h 0.42333 v -0.635 c 0,-0.34925 0.035,-0.635 0.0777,-0.635 0.0428,0 0.13801,-0.0231 0.21167,-0.0514 0.11533,-0.0443 0.13392,0.0439 0.13392,0.635 v 0.68639 h 0.67734 c 0.62089,0 0.67733,0.0141 0.67733,0.16933 0,0.15522 -0.0564,0.16933 -0.67733,0.16933 h -0.67734 v 1.51137 c 0,0.85063 0.0394,1.62444 0.0902,1.77 0.11414,0.32741 0.46542,0.47971 0.97417,0.42237 0.3548,-0.04 0.38222,-0.0295 0.35843,0.13731 -0.0229,0.16081 -0.0878,0.18335 -0.59173,0.20553 -0.51774,0.0228 -0.58848,0.005 -0.83,-0.21167 z m 11.85231,-2.98824 v -3.21733 h 0.21166 0.21167 v 1.36362 1.36362 l 0.23389,-0.25038 c 0.46064,-0.49312 1.10663,-0.69176 1.72113,-0.52926 0.45708,0.12087 0.89699,0.5253 1.00867,0.92731 0.0459,0.16505 0.0836,1.03351 0.0838,1.92992 l 4.7e-4,1.62983 h -0.21167 -0.21166 v -1.65372 c 0,-1.84518 -0.0614,-2.137 -0.49713,-2.36232 -0.31864,-0.16478 -0.96015,-0.17171 -1.26391,-0.0137 -0.70398,0.36628 -0.86363,0.85493 -0.86363,2.64336 v 1.38635 h -0.21167 -0.21166 z m 5.16466,1.016 c 0,-2.10342 0.007,-2.20133 0.16028,-2.20133 0.17887,0 0.26306,0.15729 0.26306,0.49146 v 0.22361 l 0.24119,-0.26407 c 0.36031,-0.39449 0.75152,-0.56894 1.28281,-0.57205 0.64454,-0.004 1.08748,0.23387 1.3335,0.71539 0.17904,0.35045 0.1905,0.47617 0.1905,2.0906 v 1.71772 h -0.21167 -0.21167 l -3.4e-4,-1.7145 c -2.5e-4,-1.54099 -0.0168,-1.74146 -0.16278,-1.98093 -0.19856,-0.32565 -0.64342,-0.48932 -1.16894,-0.43009 -0.47226,0.0532 -0.76506,0.26364 -1.03863,0.74636 -0.20004,0.35299 -0.2132,0.45602 -0.23968,1.87633 l -0.028,1.50283 h -0.20481 -0.20481 v -2.20133 z m 5.24934,0 v -2.20133 h 0.21166 0.21167 v 2.20133 2.20133 h -0.21167 -0.21166 z m 11.26066,-1.016 v -3.21733 h 0.21167 0.21167 v 1.37185 1.37185 l 0.3175,-0.30351 c 0.4511,-0.43122 0.6715,-0.52315 1.25616,-0.52392 0.66095,-8.8e-4 1.02724,0.20086 1.28384,0.7071 0.17894,0.35304 0.1905,0.48002 0.1905,2.09357 0,1.66128 -0.006,1.71772 -0.16934,1.71772 -0.16271,0 -0.1696,-0.0587 -0.17614,-1.50283 -0.004,-0.85115 -0.0498,-1.6669 -0.10584,-1.88118 -0.13337,-0.5096 -0.50529,-0.76465 -1.11502,-0.76465 -0.55095,0 -0.93189,0.23746 -1.22766,0.76527 -0.19966,0.35629 -0.21334,0.46301 -0.24106,1.88056 l -0.0294,1.50283 h -0.20344 -0.20345 z m 17.10267,1.016 c 0,-2.14489 0.004,-2.20133 0.16933,-2.20133 0.14111,0 0.16934,0.0564 0.16934,0.33866 0,0.18627 0.0128,0.33867 0.0285,0.33867 0.0157,0 0.18287,-0.1468 0.37148,-0.32622 0.77667,-0.73882 2.00993,-0.6203 2.51639,0.24184 0.15736,0.26787 0.17663,0.46327 0.20248,2.05288 l 0.0286,1.75683 h -0.21906 -0.21907 v -1.61138 c 0,-1.69434 -0.0528,-1.99796 -0.40115,-2.30807 -0.38425,-0.34204 -1.21084,-0.28513 -1.66623,0.11471 -0.47705,0.41886 -0.57301,0.78706 -0.62197,2.38658 -0.0401,1.31106 -0.0553,1.41816 -0.20103,1.41816 -0.14968,0 -0.15762,-0.11094 -0.15762,-2.20133 z m 5.16467,0 v -2.20133 h 0.21166 0.21167 v 2.20133 2.20133 h -0.21167 -0.21166 z m 3.24425,2.05317 c -0.0288,-0.0815 -0.40865,-1.04273 -0.84401,-2.13609 -0.43537,-1.09335 -0.79158,-2.01981 -0.79158,-2.05879 0,-0.039 0.0998,-0.0588 0.22172,-0.0441 0.24218,0.0293 0.15065,-0.16318 1.17367,2.46744 0.2685,0.69042 0.5157,1.22382 0.54933,1.18533 0.0336,-0.0385 0.36187,-0.8796 0.72943,-1.86915 0.59987,-1.61501 0.68787,-1.79916 0.85973,-1.79916 0.1053,0 0.19146,0.0316 0.19146,0.0703 0,0.0386 -0.34447,0.98162 -0.76548,2.0955 -0.42102,1.11388 -0.78177,2.07286 -0.80168,2.13107 -0.0555,0.16229 -0.46182,0.12938 -0.52259,-0.0423 z m 7.93175,-2.05317 c 0,-2.09945 0.007,-2.20133 0.15946,-2.20133 0.16249,0 0.26054,0.21339 0.26271,0.57174 0.001,0.17245 0.0293,0.15961 0.2944,-0.13384 0.31071,-0.34392 0.74206,-0.52257 1.26175,-0.52257 0.27174,0 0.30768,0.0247 0.30768,0.21167 0,0.19828 -0.0275,0.21166 -0.43451,0.21166 -0.55049,0 -0.9456,0.23365 -1.19566,0.70704 -0.16638,0.31499 -0.18884,0.50663 -0.21725,1.85413 l -0.0317,1.50283 h -0.20344 -0.20344 z m 7.874,0 v -2.20133 h 0.21166 0.21167 v 2.20133 2.20133 h -0.21167 -0.21166 z m 2.98401,2.07187 c -0.39989,-0.28229 -0.44401,-0.50882 -0.44401,-2.27933 v -1.65521 h -0.46567 c -0.40505,0 -0.46567,-0.0215 -0.46567,-0.16491 0,-0.13924 0.0692,-0.16889 0.4445,-0.1905 l 0.4445,-0.0256 0.0255,-0.59032 c 0.023,-0.53335 0.0963,-0.71656 0.28847,-0.72071 0.033,-7.1e-4 0.0711,0.29398 0.0847,0.65487 l 0.0247,0.65616 0.6985,0.0246 c 0.62888,0.0221 0.6985,0.0411 0.6985,0.1905 0,0.1519 -0.0614,0.16591 -0.72746,0.16591 h -0.72746 l 0.029,1.65843 0.029,1.65842 0.24826,0.21345 c 0.21524,0.18507 0.30865,0.20844 0.70257,0.17577 0.42205,-0.035 0.45252,-0.0251 0.42907,0.13896 -0.0222,0.15543 -0.0913,0.1795 -0.57557,0.20049 -0.39759,0.0172 -0.60334,-0.0136 -0.74132,-0.11098 z m 8.20188,-0.009 c -0.37331,-0.26148 -0.43323,-0.58161 -0.43323,-2.31455 v -1.61139 h -0.46566 c -0.40922,0 -0.46567,-0.0205 -0.46567,-0.16933 0,-0.14881 0.0564,-0.16933 0.46567,-0.16933 h 0.46566 v -0.635 c 0,-0.34925 0.035,-0.635 0.0777,-0.635 0.0428,0 0.13801,-0.0231 0.21167,-0.0514 0.11533,-0.0443 0.13393,0.0439 0.13393,0.635 v 0.68639 h 0.67733 c 0.62089,0 0.67733,0.0141 0.67733,0.16933 0,0.15522 -0.0564,0.16933 -0.67733,0.16933 h -0.67733 v 1.65485 1.65485 l 0.21892,0.21892 c 0.19958,0.19958 0.26314,0.21491 0.71967,0.17351 0.4424,-0.0401 0.50074,-0.0277 0.50074,0.10684 0,0.19924 -0.16411,0.25503 -0.75009,0.25503 -0.30879,0 -0.55312,-0.0496 -0.67935,-0.13806 z m -5.08989,-5.70394 c 0,-0.22577 0.0282,-0.254 0.254,-0.254 0.22578,0 0.254,0.0282 0.254,0.254 0,0.22578 -0.0282,0.254 -0.254,0.254 -0.22578,0 -0.254,-0.0282 -0.254,-0.254 z m 1.60866,0 c 0,-0.22577 0.0282,-0.254 0.254,-0.254 0.22578,0 0.254,0.0282 0.254,0.254 0,0.22578 -0.0282,0.254 -0.254,0.254 -0.22578,0 -0.254,-0.0282 -0.254,-0.254 z m -60.36733,-0.127 c 0,-0.28222 0.0141,-0.29633 0.29633,-0.29633 0.28223,0 0.29634,0.0141 0.29634,0.29633 0,0.28223 -0.0141,0.29634 -0.29634,0.29634 -0.28222,0 -0.29633,-0.0141 -0.29633,-0.29634 z m 33.528,0 c 0,-0.28222 0.0141,-0.29633 0.29633,-0.29633 0.28222,0 0.29634,0.0141 0.29634,0.29633 0,0.28223 -0.0141,0.29634 -0.29634,0.29634 -0.28222,0 -0.29633,-0.0141 -0.29633,-0.29634 z m 19.05,0 c 0,-0.28222 0.0141,-0.29633 0.29633,-0.29633 0.28222,0 0.29634,0.0141 0.29634,0.29633 0,0.28223 -0.0141,0.29634 -0.29634,0.29634 -0.28222,0 -0.29633,-0.0141 -0.29633,-0.29634 z"
         id="path1401"
         inkscape:connector-curvature="0" />
    </g>
  </g>
</svg>
