<?xml version="1.0" encoding="UTF-8" standalone="no"?>
<svg
   xmlns:dc="http://purl.org/dc/elements/1.1/"
   xmlns:cc="http://creativecommons.org/ns#"
   xmlns:rdf="http://www.w3.org/1999/02/22-rdf-syntax-ns#"
   xmlns:svg="http://www.w3.org/2000/svg"
   xmlns="http://www.w3.org/2000/svg"
   viewBox="0 0 450.66666 73.333336"
   height="73.333336"
   width="450.66666"
   xml:space="preserve"
   id="svg2"
   version="1.1"><metadata
     id="metadata8"><rdf:RDF><cc:Work
         rdf:about=""><dc:format>image/svg+xml</dc:format><dc:type
           rdf:resource="http://purl.org/dc/dcmitype/StillImage" /></cc:Work></rdf:RDF></metadata><defs
     id="defs6"><clipPath
       id="clipPath20"
       clipPathUnits="userSpaceOnUse"><path
         id="path18"
         d="M 0,0 H 3376.38 V 543.918 H 0 Z" /></clipPath></defs><g
     transform="matrix(1.3333333,0,0,-1.3333333,0,73.333333)"
     id="g10"><g
       transform="scale(0.1)"
       id="g12"><g
         id="g14"><g
           clip-path="url(#clipPath20)"
           id="g16"><path
             id="path22"
             style="fill:#ffffff;fill-opacity:1;fill-rule:nonzero;stroke:none"
             d="m 637.25,393.984 v -262.39 c 0,-37.4924 -19.492,-54.719 -54.762,-54.719 H 486.57 c -35.257,0 -54.746,17.2266 -54.746,54.719 v 262.39 H 150.707 V 543.918 H 77.2227 V 393.984 H 0 V 319.758 H 77.2227 V 133.098 C 77.2227,52.8438 131.184,3.39844 205.438,3.39844 h 38.23 l 1.496,74.19926 h -39.726 c -35.223,0 -54.731,18.75 -54.731,55.5003 v 186.66 H 358.34 V 131.594 c 0,-79.4768 55.5,-128.19556 128.23,-128.19556 h 95.918 c 72.75,0 128.219,48.71876 128.219,128.19556 v 262.39 H 637.25" /><path
             id="path24"
             style="fill:#ffffff;fill-opacity:1;fill-rule:nonzero;stroke:none"
             d="m 918.457,264 c -23.406,0 -32.465,14.867 -32.465,36.766 v 79.308 h -25.176 v 11.571 h 25.176 v 34.761 l 12.567,3.012 v -37.773 h 39.046 v -11.571 h -39.046 v -78.812 c 0,-14.856 4.023,-25.449 20.918,-25.449 6.796,0 13.086,1.042 19.882,2.296 V 267.02 C 932.32,265.508 925.523,264 918.457,264" /><path
             id="path26"
             style="fill:#ffffff;fill-opacity:1;fill-rule:nonzero;stroke:none"
             d="m 1068.26,325.676 h -96.17 c 0.258,-14.598 5.027,-28.172 13.082,-37.75 7.058,-8.324 16.878,-13.348 30.478,-13.348 11.08,0 20.65,4.043 27.44,11.082 4.54,4.774 8.06,10.324 9.56,17.871 h 13.08 c -1.76,-10.836 -7.03,-19.652 -14.08,-26.429 -9.05,-9.055 -21.65,-14.602 -36,-14.602 -18.13,0 -30.966,7.551 -40.045,17.848 -10.324,12.086 -16.101,28.718 -16.101,47.851 0,15.856 2.508,31.473 12.328,44.809 10.578,14.351 25.184,21.898 42.798,21.898 33.99,0 53.89,-29.203 53.89,-60.914 0,-3.031 -0.26,-5.265 -0.26,-8.316 m -53.63,57.394 c -25.935,0 -42.282,-20.882 -42.282,-45.789 h 83.322 c -0.49,23.91 -15.36,45.789 -41.04,45.789" /><path
             id="path28"
             style="fill:#ffffff;fill-opacity:1;fill-rule:nonzero;stroke:none"
             d="m 1149.84,262.5 c -15.61,0 -28.21,6.02 -37.01,14.852 -13.1,13.082 -17.64,29.953 -17.64,51.375 0,21.367 4.54,38.238 17.64,51.347 8.8,8.805 21.4,14.832 37.01,14.832 26.18,0 45.57,-17.093 48.59,-42.566 h -13.09 c -2.79,17.402 -16.38,30.226 -35.5,30.226 -12.1,0 -21.41,-4.007 -27.96,-10.808 -11.32,-11.813 -13.85,-26.692 -13.85,-43.031 0,-16.403 2.53,-31.469 13.85,-43.321 6.55,-6.785 15.86,-10.562 27.96,-10.562 19.38,0 32.71,13.578 35.76,30.691 h 13.33 c -3.27,-24.418 -22.67,-43.035 -49.09,-43.035" /><path
             id="path30"
             style="fill:#ffffff;fill-opacity:1;fill-rule:nonzero;stroke:none"
             d="m 1320,265.766 v 82.32 c 0,21.902 -9.56,34.984 -32.48,34.984 -30.95,0 -41.79,-27.164 -41.79,-54.343 v -62.961 h -12.59 v 181.773 h 12.59 V 368.48 c 7.04,16.133 24.93,26.426 42.55,26.426 28.94,0 44.32,-17.855 44.32,-46.058 V 265.766 H 1320" /><path
             id="path32"
             style="fill:#ffffff;fill-opacity:1;fill-rule:nonzero;stroke:none"
             d="m 1466.79,265.766 v 82.32 c 0,21.902 -9.56,34.48 -32.49,34.48 -30.97,0 -41.77,-26.66 -41.77,-53.839 v -62.961 h -12.6 v 125.879 h 11.08 l 1.52,-22.899 c 7.05,15.867 24.93,26.16 42.54,26.16 28.96,0 44.31,-17.855 44.31,-46.058 v -83.082 h -12.59" /><path
             id="path34"
             style="fill:#ffffff;fill-opacity:1;fill-rule:nonzero;stroke:none"
             d="m 1525.71,444.246 h 17.61 v -17.605 h -17.61 z m 2.27,-52.601 h 13.34 V 265.766 h -13.34 v 125.879" /><path
             id="path36"
             style="fill:#ffffff;fill-opacity:1;fill-rule:nonzero;stroke:none"
             d="m 1673.5,277.59 c -9.06,-10.063 -24.17,-15.09 -40.79,-15.09 -17.11,0 -31.72,5.273 -41.29,16.121 -7.04,8.035 -10.08,15.074 -10.57,25.422 h 12.83 c 0.75,-7.59 4.03,-14.109 9.33,-19.398 7.28,-7.055 17.61,-10.067 29.7,-10.067 13.11,0 23.42,3.012 29.72,9.301 4.51,4.543 6.78,8.816 6.78,16.117 0,11.332 -8.05,20.902 -23.15,22.91 l -24.43,3.282 c -10.31,1.25 -21.4,4.539 -28.45,12.578 -4.53,5.289 -7.05,11.843 -7.05,19.918 0,10.062 4.29,18.367 10.83,24.386 9.07,8.356 21.4,11.836 34.5,11.836 15.09,0 29.44,-4.761 38.01,-14.832 5.78,-6.804 9.32,-15.129 9.58,-23.156 h -12.6 c -0.49,4.02 -2.27,10.328 -6.29,15.09 -5.8,6.805 -15.62,11.062 -28.7,11.062 -9.83,0 -17.12,-1.726 -22.67,-5.757 -6.28,-4.543 -9.81,-10.594 -9.81,-17.368 0,-10.586 5.29,-18.644 24.41,-21.179 l 23.91,-3.278 c 23.67,-3.246 34.76,-19.371 34.76,-34.722 0,-9.34 -3.01,-16.887 -8.56,-23.176" /><path
             id="path38"
             style="fill:#ffffff;fill-opacity:1;fill-rule:nonzero;stroke:none"
             d="m 1764.89,262.5 c -15.61,0 -28.19,6.02 -36.99,14.852 -13.11,13.082 -17.65,29.953 -17.65,51.375 0,21.367 4.54,38.238 17.65,51.347 8.8,8.805 21.38,14.832 36.99,14.832 26.18,0 45.56,-17.093 48.59,-42.566 h -13.07 c -2.78,17.402 -16.37,30.226 -35.52,30.226 -12.08,0 -21.41,-4.007 -27.96,-10.808 -11.31,-11.813 -13.83,-26.692 -13.83,-43.031 0,-16.403 2.52,-31.469 13.83,-43.321 6.55,-6.785 15.88,-10.562 27.96,-10.562 19.38,0 32.74,13.578 35.75,30.691 h 13.35 c -3.29,-24.418 -22.67,-43.035 -49.1,-43.035" /><path
             id="path40"
             style="fill:#ffffff;fill-opacity:1;fill-rule:nonzero;stroke:none"
             d="m 1935.07,265.766 v 82.32 c 0,21.902 -9.57,34.984 -32.49,34.984 -30.97,0 -41.77,-27.164 -41.77,-54.343 v -62.961 h -12.62 v 181.773 h 12.62 V 368.48 c 7.03,16.133 24.9,26.426 42.52,26.426 28.98,0 44.33,-17.855 44.33,-46.058 v -83.082 h -12.59" /><path
             id="path42"
             style="fill:#ffffff;fill-opacity:1;fill-rule:nonzero;stroke:none"
             d="m 2092.93,325.676 h -96.16 c 0.24,-14.598 5.02,-28.172 13.07,-37.75 7.06,-8.324 16.89,-13.348 30.47,-13.348 11.07,0 20.65,4.043 27.45,11.082 4.52,4.774 8.05,10.324 9.56,17.871 h 13.1 c -1.77,-10.836 -7.07,-19.652 -14.11,-26.429 -9.07,-9.055 -21.65,-14.602 -36,-14.602 -18.15,0 -30.96,7.551 -40.02,17.848 -10.32,12.086 -16.13,28.718 -16.13,47.851 0,15.856 2.52,31.473 12.34,44.809 10.58,14.351 25.17,21.898 42.81,21.898 33.99,0 53.87,-29.203 53.87,-60.914 0,-3.031 -0.25,-5.265 -0.25,-8.316 m -53.62,57.394 c -25.94,0 -42.3,-20.882 -42.3,-45.789 h 83.33 c -0.51,23.91 -15.36,45.789 -41.03,45.789" /><path
             id="path44"
             style="fill:#ffffff;fill-opacity:1;fill-rule:nonzero;stroke:none"
             d="m 2270.68,266.023 -1.52,22.915 c -7.05,-16.125 -24.92,-26.196 -42.55,-26.196 -28.95,0 -44.31,17.879 -44.31,46.074 v 83.086 h 12.59 v -82.336 c 0,-21.894 9.56,-34.488 32.49,-34.488 30.94,0 41.78,26.68 41.78,53.871 v 62.953 h 12.6 V 266.023 h -11.08" /><path
             id="path46"
             style="fill:#ffffff;fill-opacity:1;fill-rule:nonzero;stroke:none"
             d="m 2418.48,265.766 v 82.32 c 0,21.902 -9.58,34.48 -32.49,34.48 -30.97,0 -41.81,-26.66 -41.81,-53.839 v -62.961 h -12.57 v 125.879 h 11.07 l 1.5,-22.899 c 7.06,15.867 24.95,26.16 42.56,26.16 28.96,0 44.31,-17.855 44.31,-46.058 v -83.082 h -12.57" /><path
             id="path48"
             style="fill:#ffffff;fill-opacity:1;fill-rule:nonzero;stroke:none"
             d="m 2477.39,444.246 h 17.62 v -17.605 h -17.62 z m 2.26,-52.601 h 13.32 V 265.766 h -13.32 v 125.879" /><path
             id="path50"
             style="fill:#ffffff;fill-opacity:1;fill-rule:nonzero;stroke:none"
             d="m 2585.15,265.766 h -12.86 l -49.83,125.879 h 14.34 l 42.31,-108 40.51,108 h 13.37 l -47.84,-125.879" /><path
             id="path52"
             style="fill:#ffffff;fill-opacity:1;fill-rule:nonzero;stroke:none"
             d="m 2758.07,325.676 h -96.16 c 0.24,-14.598 5.03,-28.172 13.08,-37.75 7.04,-8.324 16.88,-13.348 30.45,-13.348 11.11,0 20.66,4.043 27.45,11.082 4.54,4.774 8.06,10.324 9.56,17.871 h 13.1 c -1.76,-10.836 -7.04,-19.652 -14.09,-26.429 -9.08,-9.055 -21.67,-14.602 -36.02,-14.602 -18.11,0 -30.97,7.551 -40.01,17.848 -10.33,12.086 -16.11,28.718 -16.11,47.851 0,15.856 2.5,31.473 12.33,44.809 10.59,14.351 25.18,21.898 42.79,21.898 33.99,0 53.88,-29.203 53.88,-60.914 0,-3.031 -0.25,-5.265 -0.25,-8.316 m -53.63,57.394 c -25.9,0 -42.29,-20.882 -42.29,-45.789 h 83.34 c -0.5,23.91 -15.36,45.789 -41.05,45.789" /><path
             id="path54"
             style="fill:#ffffff;fill-opacity:1;fill-rule:nonzero;stroke:none"
             d="m 2848.46,380.82 c -31.49,0 -40.02,-28.191 -40.02,-54.632 v -60.422 h -12.61 v 125.879 h 11.07 l 1.54,-25.415 c 5.52,17.372 22.38,26.68 40.02,26.68 4.02,0 8.3,0 12.34,-0.758 v -12.597 c -4.04,1.019 -8.32,1.265 -12.34,1.265" /><path
             id="path56"
             style="fill:#ffffff;fill-opacity:1;fill-rule:nonzero;stroke:none"
             d="m 2970.55,277.59 c -9.04,-10.063 -24.15,-15.09 -40.79,-15.09 -17.09,0 -31.71,5.273 -41.29,16.121 -7.06,8.035 -10.05,15.074 -10.55,25.422 h 12.82 c 0.76,-7.59 4.04,-14.109 9.33,-19.398 7.28,-7.055 17.61,-10.067 29.69,-10.067 13.12,0 23.43,3.012 29.7,9.301 4.55,4.543 6.82,8.816 6.82,16.117 0,11.332 -8.05,20.902 -23.18,22.91 l -24.42,3.282 c -10.33,1.25 -21.4,4.539 -28.43,12.578 -4.52,5.289 -7.05,11.843 -7.05,19.918 0,10.062 4.27,18.367 10.81,24.386 9.07,8.356 21.4,11.836 34.48,11.836 15.13,0 29.47,-4.761 38.05,-14.832 5.8,-6.804 9.3,-15.129 9.55,-23.156 h -12.59 c -0.5,4.02 -2.25,10.328 -6.28,15.09 -5.82,6.805 -15.6,11.062 -28.73,11.062 -9.81,0 -17.1,-1.726 -22.64,-5.757 -6.29,-4.543 -9.82,-10.594 -9.82,-17.368 0,-10.586 5.3,-18.644 24.39,-21.179 l 23.95,-3.278 c 23.67,-3.246 34.75,-19.371 34.75,-34.722 0,-9.34 -3.03,-16.887 -8.57,-23.176" /><path
             id="path58"
             style="fill:#ffffff;fill-opacity:1;fill-rule:nonzero;stroke:none"
             d="m 3017.15,444.246 h 17.61 v -17.605 h -17.61 z m 2.25,-52.601 h 13.36 V 265.766 h -13.36 v 125.879" /><path
             id="path60"
             style="fill:#ffffff;fill-opacity:1;fill-rule:nonzero;stroke:none"
             d="m 3122.38,264 c -23.41,0 -32.49,14.867 -32.49,36.766 v 79.308 h -25.16 v 11.571 h 25.16 v 34.761 l 12.58,3.012 v -37.773 h 39.03 v -11.571 h -39.03 v -78.812 c 0,-14.856 4.03,-25.449 20.9,-25.449 6.81,0 13.09,1.042 19.92,2.296 V 267.02 c -7.06,-1.512 -13.86,-3.02 -20.91,-3.02" /><path
             id="path62"
             style="fill:#ffffff;fill-opacity:1;fill-rule:nonzero;stroke:none"
             d="m 3274.96,264.988 c -15.62,0 -19.91,11.34 -19.91,24.696 -6.8,-17.887 -25.93,-27.184 -45.32,-27.184 -24.4,0 -43.32,14.602 -43.32,38.762 0,22.398 17.38,35.754 42.34,37.504 l 46.3,3.297 v 12.324 c 0,20.91 -14.11,28.683 -33.23,28.683 -19.88,0 -34.99,-9.039 -36.26,-27.672 h -12.58 c 1.78,25.422 21.65,39.508 48.84,39.508 17.12,0 35.75,-5.781 42.56,-23.148 3.01,-7.805 3.26,-15.852 3.26,-24.18 V 290.18 c 0,-8.563 1.27,-13.578 9.83,-13.578 1.5,0 2.26,0 3.52,0.253 v -11.089 c -3.03,-0.493 -3.03,-0.778 -6.03,-0.778 m -19.91,65.473 -45.06,-2.781 c -18.64,-1.227 -30.71,-11.039 -30.71,-26.418 0,-18.125 13.59,-27.196 31.45,-27.196 31.73,0 44.32,25.684 44.32,49.86 z m -63.42,108.012 h 15.08 v -15.856 h -15.08 z m 46.3,0 h 15.35 v -15.856 h -15.35 z" /><path
             id="path64"
             style="fill:#ffffff;fill-opacity:1;fill-rule:nonzero;stroke:none"
             d="m 3355.48,264 c -23.41,0 -32.49,14.867 -32.49,36.766 v 79.308 h -25.17 v 11.571 h 25.17 v 34.761 l 12.59,3.012 v -37.773 h 39.02 v -11.571 h -39.02 v -78.812 c 0,-14.856 4.02,-25.449 20.92,-25.449 6.77,0 13.08,1.042 19.88,2.296 V 267.02 c -7.05,-1.512 -13.86,-3.02 -20.9,-3.02" /><path
             id="path66"
             style="fill:#ffffff;fill-opacity:1;fill-rule:nonzero;stroke:none"
             d="M 965.793,3.26563 964.297,25.4141 C 957.48,9.80469 939.359,0 922.488,0 c -14.336,0 -25.168,4.51172 -33.48,11.8242 -14.102,12.3242 -20.645,32.4883 -20.645,54.1133 0,20.6484 6.309,40.8005 19.641,53.3865 8.305,8.039 19.641,13.11 34.226,13.11 17.899,0 35.25,-10.082 42.067,-24.45 v 77.043 h 12.566 V 3.26563 Z M 948.676,110.266 c -6.289,6.027 -14.848,9.812 -26.446,9.812 -11.832,0 -20.378,-4.277 -26.925,-11.086 -9.832,-10.5545 -14.106,-26.6873 -14.106,-42.7811 0,-17.8984 5.028,-34.7578 16.617,-45.082 6.305,-5.5391 14.348,-8.8164 24.95,-8.8164 11.062,0 19.363,4.0508 25.652,10.0977 11.34,11.0312 16.129,26.414 16.129,43.8007 0,18.6289 -4.281,33.2227 -15.871,44.0551" /><path
             id="path68"
             style="fill:#ffffff;fill-opacity:1;fill-rule:nonzero;stroke:none"
             d="M 1107.28,15.0938 C 1098.47,6.28906 1086.15,0 1070.54,0 c -15.62,0 -27.94,6.28906 -36.79,15.0938 -13.08,13.082 -17.84,29.6953 -17.84,51.1171 0,21.3907 4.76,38.0271 17.84,51.1021 8.85,8.824 21.17,15.121 36.79,15.121 15.61,0 27.93,-6.297 36.74,-15.121 13.1,-13.075 17.88,-29.7114 17.88,-51.1021 0,-21.4218 -4.78,-38.0351 -17.88,-51.1171 m -9.05,93.8982 c -6.54,6.809 -15.62,11.086 -27.69,11.086 -12.07,0 -21.16,-4.277 -27.7,-11.086 -11.33,-11.8357 -14.1,-26.4295 -14.1,-42.7811 0,-16.3632 2.77,-30.9843 14.1,-42.8125 6.54,-6.8046 15.63,-11.0859 27.7,-11.0859 12.07,0 21.15,4.2813 27.69,11.0859 11.34,11.8282 14.08,26.4493 14.08,42.8125 0,16.3516 -2.74,30.9454 -14.08,42.7811" /><path
             id="path70"
             style="fill:#ffffff;fill-opacity:1;fill-rule:nonzero;stroke:none"
             d="m 1216.8,118.328 c -31.48,0 -40.03,-28.2225 -40.03,-54.66 V 3.26563 h -12.59 V 129.16 h 11.06 l 1.53,-25.453 c 5.54,17.391 22.4,26.703 40.03,26.703 4.03,0 8.31,0 12.34,-0.777 v -12.582 c -4.03,1.008 -8.31,1.277 -12.34,1.277" /><path
             id="path72"
             style="fill:#ffffff;fill-opacity:1;fill-rule:nonzero;stroke:none"
             d="m 1301.32,1.48438 c -23.4,0 -32.47,14.87892 -32.47,36.76952 v 79.3241 h -25.17 v 11.582 h 25.17 v 34.727 l 12.6,3.043 v -37.77 h 39.02 v -11.582 h -39.02 V 38.7539 c 0,-14.832 3.99,-25.418 20.9,-25.418 6.79,0 13.09,0.9883 19.87,2.2539 V 4.51172 c -7.04,-1.50391 -13.85,-3.02734 -20.9,-3.02734" /><path
             id="path74"
             style="fill:#ffffff;fill-opacity:1;fill-rule:nonzero;stroke:none"
             d="M 1516.1,3.26563 V 85.5859 c 0,21.9101 -8.07,34.9801 -29.98,34.9801 -9.56,0 -16.61,-3.253 -22.4,-8.554 -9.82,-9.317 -14.85,-22.3831 -14.85,-37.5237 V 3.26563 h -12.84 V 85.5859 c 0,21.9101 -8.31,34.9801 -30.21,34.9801 -9.57,0 -16.88,-3.253 -22.42,-8.554 -11.33,-10.512 -15.1,-27.9417 -15.1,-45.8011 V 3.26563 h -12.58 V 129.16 h 11.08 l 1.5,-21.664 c 6.55,14.344 20.15,24.938 38.25,24.938 21.94,0 34.76,-10.829 39.8,-27.207 6.55,15.597 19.89,27.207 40.54,27.207 29.45,0 41.8,-19.141 41.8,-46.0942 V 3.26563 h -12.59" /><path
             id="path76"
             style="fill:#ffffff;fill-opacity:1;fill-rule:nonzero;stroke:none"
             d="m 1661.88,3.51172 -1.54,22.91018 c -7.05,-16.1094 -24.91,-26.20315 -42.54,-26.20315 -28.96,0 -44.31,17.89455 -44.31,46.10935 v 83.0589 h 12.59 V 47.0703 c 0,-21.9023 9.57,-34.4883 32.48,-34.4883 30.97,0 41.78,26.6914 41.78,53.8711 v 62.9339 h 12.6 V 3.51172 h -11.06" /><path
             id="path78"
             style="fill:#ffffff;fill-opacity:1;fill-rule:nonzero;stroke:none"
             d="M 1809.65,3.26563 V 85.5859 c 0,21.9101 -9.57,34.4921 -32.46,34.4921 -30.98,0 -41.81,-26.6874 -41.81,-53.8671 V 3.26563 H 1722.8 V 129.16 h 11.07 l 1.51,-22.926 c 7.06,15.868 24.93,26.2 42.55,26.2 28.97,0 44.33,-17.907 44.33,-46.0942 V 3.26563 h -12.61" /><path
             id="path80"
             style="fill:#ffffff;fill-opacity:1;fill-rule:nonzero;stroke:none"
             d="m 1955.69,3.26563 -1.52,22.14847 C 1947.39,9.80469 1929.25,0 1912.36,0 c -14.34,0 -25.16,4.51172 -33.49,11.8242 -14.09,12.3242 -20.63,32.4883 -20.63,54.1133 0,20.6484 6.31,40.8005 19.66,53.3865 8.31,8.039 19.61,13.11 34.22,13.11 17.88,0 35.27,-10.082 42.05,-24.45 v 77.043 h 12.6 V 3.26563 Z M 1938.54,110.266 c -6.29,6.027 -14.84,9.812 -26.42,9.812 -11.83,0 -20.39,-4.277 -26.94,-11.086 -9.81,-10.5545 -14.11,-26.6873 -14.11,-42.7811 0,-17.8984 5.06,-34.7578 16.61,-45.082 6.31,-5.5391 14.37,-8.8164 24.95,-8.8164 11.07,0 19.38,4.0508 25.67,10.0977 11.33,11.0312 16.13,26.414 16.13,43.8007 0,18.6289 -4.29,33.2227 -15.89,44.0551" /></g></g></g></g></svg>